<?xml version="1.0" encoding="UTF-8"?>
<!DOCTYPE svg PUBLIC "-//W3C//DTD SVG 1.1//EN" "http://www.w3.org/Graphics/SVG/1.1/DTD/svg11.dtd">
<!-- Creator: CorelDRAW -->
<svg xmlns="http://www.w3.org/2000/svg" xml:space="preserve" width="77.3958mm" height="100mm" version="1.1" style="shape-rendering:geometricPrecision; text-rendering:geometricPrecision; image-rendering:optimizeQuality; fill-rule:evenodd; clip-rule:evenodd"
viewBox="0 0 7739580 10000000"
 xmlns:xlink="http://www.w3.org/1999/xlink"
 xmlns:xodm="http://www.corel.com/coreldraw/odm/2003">
 <defs>
  <style type="text/css">
   <![CDATA[
    .fil1 {fill:#5A5A5A}
    .fil0 {fill:#CCCCCC}
    .fil3 {fill:black;fill-rule:nonzero}
    .fil4 {fill:#82072A;fill-rule:nonzero}
    .fil2 {fill:white;fill-rule:nonzero}
   ]]>
  </style>
 </defs>
 <g id="Stamm-Zelle">
  <metadata id="CorelCorpID_0Corel-Layer"/>
  <polygon id="A" class="fil0" points="0,0 7739580,0 7739580,10000000 0,10000000 ">
   <metadata id="CorelCorpID_1">
    <xodm:odm xodm:name="FillColor" xodm:value="A" xodm:type="0"/>
   </metadata>
  </polygon>
  <path id="B" class="fil1" d="M4713090 9201850l444230 215670 47550 582480 -225510 0 -266270 -798150zm-1692830 -3088810l-792490 -2971160 -533480 -754110 1325970 3725270zm-2162690 -5857090l-81710 -255950 -47030 0 128740 255950zm1132960 -78800l-123480 -177150 -754300 0 85510 232330 792270 -55180zm1369350 -95380l-76640 -81770 -393410 0 93500 108000 376550 -26230zm-18070 6934660l1026230 -4766020 -102000 -297750 -979600 4908160 55370 155610zm430220 -5063870l153620 -993550 -148330 -431870 -5290 1425420zm-1872480 376310l1478320 -1372670 -8030 -379560 -1564420 1564990 94130 187240zm1402890 854520l-914740 -932980 -317640 417680 1373730 1399360 -141350 -884060zm-1435390 6816610l-1602190 -2299010 847890 2299010 754300 0zm-1867050 -2425760l775860 2425760 -47030 0 -728830 -1449400 0 -976360zm1127680 -815370l-767330 -6057980 -204130 -145510 143550 2234890 -299770 -229960 0 364150 329670 334580 194640 3027160 603370 472670zm2155560 3241130l-3283240 -3499040 0 182020 2889830 3317020 393410 0zm3073490 0l-694870 -337520 -105550 337520 800420 0zm360260 -916820l-2848590 -2403270 234950 700210 2613640 1703060zm1022590 -6522880l-451140 -346210 109630 363710 341510 346660 0 -364160zm-564240 -1483080l113100 1136870 119380 -965370 -232480 -171500zm-529070 2347920l-94440 -1645230 -388350 888340 482790 756890zm1093310 3075820l-2218320 -2363640 2218320 2545660 0 -182020zm0 818860l-2218340 -3182480 2218340 4413250 0 -1230770zm-2760220 -7319820l296940 887190 -71430 -887190 -225510 0zm576950 0l800420 0 -620440 1450960 -1579630 5044740 -814850 520730 2214500 -7016430z">
   <metadata id="CorelCorpID_2">
    <xodm:odm xodm:name="FillColor" xodm:value="B" xodm:type="0"/>
   </metadata>
  </path>
  <path id="D" class="fil2" d="M156220 555380l-156220 -111490 0 1049350 227220 167800 -71000 -1105660zm3213620 21260l-9950 -494860 -1996280 1180930 441810 878920 1564420 -1564990zm-2512240 -320580l340660 -23730 -85510 -232330 -336890 0 81740 256060zm97510 1086800l2724820 8657140 722940 0 -1116430 -3139180 979600 -4908160 -1245780 4160380 -1325970 -3725270 -739180 -1044910zm3667280 4850590l3117190 3806550 -2529200 -5152300 -587990 1345750zm-4373460 -4194460l-248930 76480 0 246700 273910 65600 -24980 -388780zm275380 4287210l-524310 -1379950 0 452720 524310 927230zm3155620 -6286200l940530 2987310 396040 -1263370 -613630 -1723940 -722940 0zm4059650 443880l-460240 -328150 -343150 784840 803390 592660 0 -1049350zm0 1631590l-451140 138620 451140 108080 0 -246700zm0 2830780l-1187760 -3126530 94450 1645420 1093310 1933820 0 -452710zm-6626830 5093750l-847890 -2299010 -264860 -381170 0 254420 775860 2425760 336890 0zm2243660 -5410780l-850700 -1054440 896850 796950 -46150 257490zm4232800 2514880l150370 470140 0 -254420 -150370 -215720z">
   <metadata id="CorelCorpID_3">
    <xodm:odm xodm:name="FillColor" xodm:value="D" xodm:type="0"/>
   </metadata>
  </path>
  <path id="C" class="fil3" d="M329670 3259040l-329670 -334580 0 313700 375100 725170 -45430 -704290zm6205100 6325480l-1821680 -382670 -403390 -1205220 2225070 1587890zm0 0l-178030 415480 760210 0 -582180 -415480zm1204810 -6660060l-341510 -346660 341510 660360 0 -313700zm-1382840 -2924460l-620450 1450960 -1579630 5044740 465730 -302250 2707560 -6193450 -973210 0zm-835480 4137300l2218320 1737670 0 625990 -2218320 -2363660zm-5521260 1737670l2985810 2339440 611150 1785590 -313720 0 -3283240 -3499040 0 -625990zm2505710 -2340180l725730 1873020 -211180 705230 -514550 -2578250zm0 0l896850 796940 41240 -264230 -1373740 -1399410 435650 866700zm514550 -2116140l282180 1764740 -914740 -932980 632560 -831760zm576700 -1418650l180350 527140 -494070 -527140 313720 0z">
   <metadata id="CorelCorpID_4">
    <xodm:odm xodm:name="FillColor" xodm:value="C" xodm:type="0"/>
   </metadata>
  </path>
  <path id="E" class="fil4" d="M7739580 443890l-622630 -443890 622630 0 0 443890zm-7100920 455360l-244250 -174080 1638410 6742730 -905140 -709030 -767330 -6057980 -360350 -257000 0 -443890c217470,305070 421060,591640 638660,899250zm-364750 1488520l-273910 -65600 0 238140 299770 229960 -25860 -402500zm1796150 280320l950200 -1249440 357610 -462450 -1416320 1496030 108510 215860zm1289830 -2586310l-1996270 1180930 -202640 -403110 2198910 -777820zm4379690 2240390l-451130 -108080 451130 346210 0 -238130zm-2760230 -2322170l296950 887190 -259800 836750 -613630 -1723940 576480 0zm-1637540 7016430l1278650 -4029120 -252420 -736900 -1026230 4766020 1061060 2983570 576480 0 -669650 -2003370 2807250 2003370 622630 0 -143750 -175550 -878820 -741260 -2613660 -1703070 -234950 -700210 -526590 336520z">
   <metadata id="CorelCorpID_5">
    <xodm:odm xodm:name="FillColor" xodm:value="E" xodm:type="0"/>
   </metadata>
  </path>
 </g>
</svg>
