<?xml version="1.0" encoding="UTF-8"?>
<!DOCTYPE svg PUBLIC "-//W3C//DTD SVG 1.1//EN" "http://www.w3.org/Graphics/SVG/1.1/DTD/svg11.dtd">
<!-- Creator: CorelDRAW X5 -->
<svg xmlns="http://www.w3.org/2000/svg" xml:space="preserve" width="6.93484cm" height="10cm" style="shape-rendering:geometricPrecision; text-rendering:geometricPrecision; image-rendering:optimizeQuality; fill-rule:evenodd; clip-rule:evenodd"
viewBox="0 0 693484 1000000"
 xmlns:xlink="http://www.w3.org/1999/xlink">
 <defs>
  <style type="text/css">
   <![CDATA[
    .fil2 {fill:black}
    .fil1 {fill:#5A5A5A}
    .fil0 {fill:#CCCCCC}
    .fil3 {fill:white}
   ]]>
  </style>
 </defs>
 <g id="Camou_x0020_">
  <metadata id="CorelCorpID_0Corel-Layer"/>
  <g id="Stamm-Zelle_Camou">
   <polygon id="A" class="fil0" points="0,4 693485,4 693485,1000000 0,1000000 ">
    <metadata id="CorelCorpID_1">
     <odm name="FillColor" value="A" type="0"/>
    </metadata>
   </polygon>
   <path id="B" class="fil1" d="M128546 209959c0,0 -5507,717 -11255,-2395 -5748,-3113 -13411,-11975 -15565,-7903 -2155,4072 1199,13891 -2394,19877 -3593,5986 -7184,12931 -9100,4550 -1916,-8382 -959,-20595 -8143,-30414 -7184,-9817 -718,-44300 479,-49089 1198,-4789 960,-16285 15328,-16285 14365,0 63458,6704 63458,-2395 0,-9097 -17602,-13529 -19277,-23824 -1676,-10297 41427,-5028 57471,-10058 16045,-5029 30411,-10059 30172,-16044 -239,-5987 -957,-10777 -9337,-7184 -8382,3593 -19397,8382 -24426,3593 -5030,-4789 0,-13891 -11733,-9580 -11735,4311 -30174,16046 -46697,10298 -3744,-1303 -7303,-2347 -10499,-3280 -5514,5196 -9886,8995 -13826,10769 -9578,4311 -45498,-2875 -48851,11973 -3351,14847 3832,20596 3353,29694 -480,9099 -8141,8621 -8620,17241 -479,8621 21552,16283 15804,29214 -7305,16439 -27965,21657 -44360,21657 -1155,0 -29372,-8143 -30528,-8143l0 -2846 0 -2849 0 -2847 0 -2846 0 -2847 0 -2849 0 -2847 0 -2846 0 -183c9540,2223 5429,-16382 0,-14600l0 -2302 0 -2846 0 -2847 0 -2847 0 -2850 0 -2847 0 -2847 0 -2847 0 -2848 0 -2847 0 -2847 0 -2847 0 -2848 0 -2847 0 -2847 0 -2847 0 -2848 0 -2847 0 -2847c3590,-2034 1364,-10374 0,-15265l0 -1817 0 -2850 0 -2847 0 -2847 0 -2847 0 -2848 0 -2847 0 -2847 0 -2847 0 -2848 0 -2847 0 -2847 0 -2847 0 -2848 0 -2847 0 -2847 0 -2847 0 -2848 0 -2847 0 -2847 0 -2847 0 -2848 0 -2847 0 -2848 0 -2847 0 -2848 0 -2847c28268,4511 52547,32631 84830,24905 35536,-8141 67403,-15442 102940,-23579 1101,-252 5340,-987 5992,-10 5747,8619 -7282,19887 -47034,41439 -8339,4521 3199,5941 -997,9635 -1144,1007 -2251,1997 -3326,2971 18595,981 40348,3389 46128,499 10058,-5029 40230,-26582 51964,-28258 11735,-1675 93752,-5147 95188,-597 1437,4549 12260,14656 27345,6515 15087,-8142 20546,-26152 33239,-17770 5266,3477 6447,9594 5398,15851 17636,-6026 23880,5678 30938,1697 9339,-5269 49570,7184 64178,13889 14609,6703 -3593,-6705 -11733,-14608 -8142,-7902 -40231,-8861 -49570,-7663 -9338,1197 -146030,-10311 -152264,-24920l64957 0 2968 0 2965 0 2956 0 2940 0 2922 0 2897 0 2865 0 2831 0 2791 0 2743 0 2693 0 2634 0 2574 0 29580 4c19023,0 38045,0 57067,0 4498,2901 9446,5819 16085,8633 14128,5986 25143,2634 32806,13890 7663,11255 3711,33047 -1437,38434 -5151,5386 -16764,-958 -20356,3712 -3591,4671 1736,10477 12273,16225 10537,5746 64177,1437 72797,6704 8621,5268 -18679,12932 -14368,22989 4311,10056 47414,7662 76629,-1916 20142,-6605 36639,-10477 47457,-17582 0,17859 0,35720 0,53578 -11015,4577 -19995,5776 -28301,14771 -8304,8996 4633,-5640 28301,-171l0 22937c-8052,-1389 -12048,4195 -18880,11805 -19775,22028 -41483,62485 -42705,14039 -1195,-15806 16283,-36638 5746,-44780 -10535,-8141 -37357,6466 -48131,13650 -28461,18975 -11369,48918 1555,66690 7662,10537 -6465,45500 -5508,61063 958,15565 6587,21672 2994,27180 -3592,5507 -54120,-1676 -66331,5508 -12212,7185 15565,5987 17002,15565 1436,9580 -39513,7903 -42147,19397 -2633,11493 15086,12212 27061,20833 11973,8621 -26343,28017 -25624,38315 721,10298 60705,25739 76989,26698 16283,958 37836,32088 42145,54119 4309,22029 26341,39752 30651,52203 4311,12453 -6703,42146 -25861,43583 -19156,1438 -18678,9099 478,22988 19158,13891 45979,21071 49331,41188 1359,8158 2690,-7392 9035,-16169 2732,-3781 5549,-5619 12200,-4864l0 19085c-6053,2051 -9008,15138 -13612,24689 -8849,18356 -17780,38043 -25823,38562 -14847,958 -19156,40229 1437,45498 20594,5267 18679,11972 11495,31129 -7184,19157 -59867,19637 -64656,19637 -4789,0 -62740,2635 -66571,-2874 -3832,-5509 1676,-17241 -16285,-28975 -17960,-11734 -42623,-17961 -56513,-41906 -13888,-23946 -27538,-2875 -44781,-7664 -17242,-4788 -34601,-31250 -42983,-41787 -8382,-10536 -34723,-7184 -42625,-8859 -7901,-1675 -11493,-16045 14848,-21073 26340,-5028 39870,13768 48251,19037 8382,5268 31848,-480 51963,1915 20116,2396 17721,16043 39034,22030 21313,5987 93630,-13170 99378,-16761 5747,-3592 -1198,-46697 -3593,-40711 -2395,5987 -21072,11735 -40947,10298 -19876,-1436 -57113,-20474 -69565,-28138 -12452,-7664 -22988,-5746 -36639,-12212 -13649,-6465 -121406,-9099 -125238,-16763 -3831,-7663 1437,-15087 -1675,-25144 -3111,-10059 -42625,0 -40230,-9339 2395,-9339 17481,-4550 20115,-12932 2634,-8381 -28018,1438 -41427,-2634 -13409,-4072 10057,-7661 25143,-8379 15086,-719 25384,1436 35680,957 10298,-479 15806,-7664 25863,-10776 10056,-3112 14367,2394 33047,-10777 18678,-13170 -16165,-27178 -24307,-30531 -8141,-3352 -28974,7422 -42865,13649 -13890,6227 -62021,239 -85967,4071 -23945,3832 -45738,16523 -54599,7663 -8860,-8859 14609,-6465 23229,-11495 8620,-5029 -1197,-18438 -718,-26340 479,-7903 36877,-18440 53160,-20115 16285,-1676 73156,12332 82256,8261 9100,-4071 19037,-56155 16403,-61663 -2634,-5509 -3353,-21072 10537,-30173 13888,-9100 24185,6705 34244,9819 10057,3113 16283,-3592 29214,-11494 12929,-7901 56635,-838 58790,-9459 2153,-8621 -15805,-8861 -20356,-17960 -4550,-9100 22988,-8141 39273,-9578 16284,-1437 11255,-8143 22031,-18919 10777,-10774 16762,-11014 28018,-12930 11255,-1916 6943,-4550 10057,-12214 3113,-7663 24546,-14008 24546,-26940 0,-12931 -18678,-16043 -39033,-7902 -20354,8141 -38793,-2155 -31849,-20834 6944,-18678 51726,-19395 51965,-33285 239,-13888 -27060,2394 -33286,6465 -6227,4071 -26222,4429 -22629,-14248 3592,-18677 17479,-6945 38075,-15806 20594,-8860 28735,-30172 18437,-34721 -10297,-4550 -50046,1677 -44779,-13889 5268,-15566 22989,-3353 37595,-480 14608,2874 32568,2875 35441,-15566 2873,-18439 -66572,-6224 -82614,-4788 -16045,1437 -12692,8860 -22033,12692 -9339,3832 -86087,1798 -88962,-13289 -2873,-15086 13890,-21551 19398,-51725 2780,-15227 -3527,-22341 -10458,-25654 -1833,2311 -3818,4072 -5705,4940 -8860,4071 -42145,10777 -56034,2634 -13890,-8142 -23230,-17004 -38315,-10777 -15087,6227 -48132,10298 -47893,19636 239,9339 39032,-1913 48132,7663 9100,9579 -13289,33647 -23587,41310 -10298,7661 -30413,12212 -35681,23467 -5268,11255 -2394,12451 -14606,15086 -12214,2634 -39034,-1437 -39752,13170 -718,14608 51964,8862 69685,-2154 17720,-11016 22749,-21073 44540,-20834 21791,239 31609,6225 45259,2155 13650,-4071 27823,-13935 32612,-3399 4789,10536 9293,18244 -2919,21837 -12213,3593 -31848,-3352 -46935,7184 -15085,10536 -21790,13652 -44539,14129 -22749,478 -17482,5506 -40470,5028 -22989,-478 -87284,-2512 -93032,8501 -5746,11015 31132,-4792 33286,3831 2155,8622 -35683,13650 -21074,23229 14609,9578 64895,-7184 56753,6465 -8140,13650 -36159,7423 -40707,15326 -322,559 -553,1130 -711,1708 8135,3592 15649,5991 21812,6449 32695,2428 200589,-20634 194404,-1212 -6186,19420 -30750,19297 -6006,25366 24743,6068 60107,11170 35166,14082 -41064,4797 -13436,35509 -3001,40313 13026,5996 2955,-10329 350,3992 -3531,19420 -14136,34595 -35345,21243 -21209,-13352 -44184,-39451 -75995,-36415 -140371,13394 -31575,-6292 -96318,-14566 -37995,-4856 -49481,-1214 -67156,-16387 -10490,-9005 -25959,-15659 -38465,-21865l5746 -9417c11914,2909 14201,-665 33601,8218 19399,8884 64507,38237 67159,29132 952,-3272 -14991,-15403 -35802,-29601 -860,711 -2005,1363 -3510,1949 -12932,5028 -24187,-4792 -27538,-15087 -900,-2764 -558,-5234 119,-7290 -2413,-1555 -4819,-3099 -7202,-4621 -13932,4701 -13455,18242 -23570,9277 -8064,-7149 2810,-12474 9967,-17906 -6951,-4379 -13416,-8411 -18970,-11853l0 -18284c6819,5158 16267,12086 26765,19172 2535,-5337 3995,-10077 -762,-11839zm-95464 155519c6363,4783 12368,8202 16979,8700 17720,1916 108718,-16282 105365,-958 -3352,15326 -20594,13890 -7184,18679 13411,4787 36398,9576 22989,12451 -13410,2874 -32566,-8622 -25861,10057 6704,18679 26341,9579 24425,24904 -1916,15327 -7663,27299 -19158,16764 -11494,-10537 -23947,-31131 -41187,-28736 -17242,2394 -33047,7663 -33047,7663 0,0 -23060,11081 -19157,-19157 1,-9 -19713,-33169 -27556,-40457 -41586,-38643 -11571,-21000 3392,-9910zm-33082 304826c10747,-3972 20362,-5674 23961,2007 7184,15325 -2394,5747 -7661,23467 -5268,17721 4788,47892 18677,46455 13889,-1436 113986,8143 142722,-7662 28735,-15804 60823,12931 68008,478 7183,-12453 -53643,-27298 -75672,-23945 -22029,3352 -54118,13408 -53160,-3832 956,-17240 10057,-15323 9578,-23945 -480,-8623 -22990,-23948 -38315,-9580 -15325,14369 -21552,44540 -30173,17241 -8619,-27298 478,-46934 -28735,-40229 -9562,2193 -19535,1823 -29230,449l0 19096zm177941 105515c3482,3868 12661,36520 33332,36845l91 4c18828,-409 35376,-1006 37213,-3864 4310,-6707 -15804,-32567 -7661,-39751 8143,-7184 34482,6705 52202,4789 17720,-1916 53640,-40229 61303,-32088 7664,8142 -17719,19156 -20115,32088 -2395,12931 40470,70643 56754,73038 16284,2395 79502,-5269 84769,4308 5268,9578 -12929,16764 -13888,29217 -959,12451 10537,6703 35920,10535 25383,3832 35441,19158 58429,29215 22988,10059 -17241,-44539 -7664,-52203 9578,-7664 67529,22031 68008,43104 480,21072 -19637,22988 -37356,38313 -12595,10892 -5730,11286 184,18301 27253,32330 -38721,31029 -52575,32330l-243673 0c-2663,-8860 -9005,-9725 -10689,-13515 -5747,-12931 16283,-20593 15804,-29214 -479,-8619 -8140,-8143 -8620,-17240 -480,-9099 6704,-14848 3352,-29694 -2250,-9966 -19172,-10004 -32953,-10257 49,810 67,1646 48,2520 -480,21072 -58430,50766 -68009,43102 -9576,-7662 30653,-62261 7664,-52203 -22988,10059 -33045,25384 -58429,29215 -25383,3832 -36878,-1915 -35920,10537 959,12451 19158,19637 13890,29215 -5269,9577 -68487,1915 -84771,4310 -5865,863 -2668,8207 -12072,18744 9463,-20116 4264,-35411 9523,-48941 19848,-51057 10562,-67194 -22032,-138432l132147 -27132 45794 4804zm515544 -775790l0 72615 0 862 0 822 0 784 0 741c-5491,-24085 -11139,-17158 -17764,-17466 -20594,-959 -17720,-12450 -10537,-32087 6038,-16501 17872,-20996 28301,-26271zm-204726 639713c-2873,-3112 -17479,-11015 -17958,-19395 -480,-8382 44299,-26583 59865,-27780 15565,-1198 20353,-3354 21791,-13649 1437,-10297 5988,-23945 14608,-16524 8620,7424 12930,15565 19396,15806 6466,240 19160,-4310 15806,3592 -3354,7902 -12454,5508 -20356,15804 -7903,10298 -16763,17242 -10537,25622 6227,8382 14609,14370 14609,21314 0,6944 -6946,13168 -14130,11493 -7183,-1674 -28256,3113 -38553,-4070 -10297,-7184 -8382,-11733 -18918,-11973 -10536,-240 -18677,4789 -25623,-240z">
    <metadata id="CorelCorpID_2">
     <odm name="FillColor" value="B" type="0"/>
    </metadata>
   </path>
   <path id="C" class="fil2" d="M247397 1000000c6207,-2386 9461,-6411 11599,-8843 6944,-7902 29455,-18917 41427,-19876 11973,-958 93092,1019 111830,9580 15421,7046 42852,10997 73586,19139l53947 0c1226,-2062 160,-4671 -976,-7285 -7184,-16522 -21076,-31370 -32808,-33286 -11733,-1916 -3831,-11734 -19157,-6944 -15325,4789 -38554,14846 -41907,9099 -3351,-5748 8621,-26580 26103,-24425 17481,2155 41905,20357 49090,12214 7184,-8143 3352,-27541 -9100,-30413 -12452,-2873 -45739,-6467 -56035,-479 -10297,5986 -25382,19877 -27777,8621 -2396,-11255 24483,-17301 26399,-25084 1916,-7782 -26461,-4791 -28258,-10297 -1795,-5507 26221,-7185 28137,-17961 1916,-10774 -52025,-11910 -57231,-19395 -5206,-7485 -9818,-17003 23707,-20116 33524,-3114 47412,-17242 52442,-23229 5029,-5986 85608,16644 107159,-3231 21553,-19878 26822,-38556 15567,-41908 -11255,-3353 -25623,-4310 -24425,-10776 1198,-6466 34602,-23349 29094,-32208 -5506,-8860 -15084,-4072 -19395,-11734 -4311,-7662 10535,-13409 1675,-19156 -29385,-19065 -123926,10816 -111351,29933 5987,9100 68008,7421 75911,1675 7902,-5746 19874,-17243 26820,-7184 6945,10059 5988,13649 -11972,16283 -17962,2635 -53401,6226 -63460,6466 -10057,241 -39871,-7781 -39871,-18797 0,-11015 718,-15804 -7903,-9818 -8619,5986 -17960,17242 -33046,12213 -15086,-5030 -36640,-10058 -35202,478 1438,10536 14129,25386 18679,25623 4551,239 2157,-17240 10298,-11733 8140,5508 1437,11493 11254,13409 9818,1916 20594,-17481 34961,-14847 14369,2635 30068,12135 21793,21552 -8275,9416 -25863,14848 -18679,23946 7184,9101 2634,26822 -20354,21074 -22989,-5748 -48851,-48371 -63218,-48851 -14368,-479 -17361,-2753 -47294,14966 -29935,17721 -64418,37596 -59868,45259 4550,7664 17719,4791 25623,959 7903,-3832 45555,-22317 48193,-18131 2639,4188 -2934,9270 -12751,13102 -9818,3831 -16882,13289 -30053,15445 -13171,2156 -23707,240 -30412,6227 -6705,5987 -9578,12212 -18678,12692 -9099,479 -20834,-2874 -24186,1676 -3353,4549 -4550,6225 4550,10057 9100,3831 53879,17721 63697,10297 9818,-7423 25144,-24665 40470,-20115 15325,4549 19156,1195 11973,10536 -7184,9340 -11734,13889 -3831,22988 7901,9100 48850,7904 49330,16525 479,8620 -44659,1793 -53521,8020 -8859,6227 -18799,10180 -33884,18081 -15087,7903 -23946,12214 -17960,18919 5986,6703 10298,10774 10298,10774 0,0 -13412,959 -44302,-3590 -30891,-4550 -45857,-7544 -56153,-12333 -10298,-4788 -27063,-17003 -33526,-12212 -6465,4790 28496,17719 23946,23467 -4550,5748 -10777,2874 -18200,1198 -7422,-1677 -8140,-8142 -27538,-7185 -19397,958 -38314,478 -42145,4789 -3831,4311 -7663,16764 2872,17482 10537,719 23947,-12691 34723,-7423 10777,5268 37119,8382 61784,8382 24663,0 53877,-3112 50285,4549 -3591,7662 -43582,-720 -57949,8141 -14369,8861 -27538,11494 -25383,17960 2153,6465 24424,-239 38073,-3591 13651,-3353 38315,-3592 23948,4550 -2740,1552 -5506,2895 -8169,4110l26685 0z">
    <metadata id="CorelCorpID_3">
     <odm name="FillColor" value="C" type="0"/>
    </metadata>
   </path>
   <path id="D" class="fil3" d="M637536 50258c-1665,30093 -63268,35941 -58669,44302 4600,8361 61237,6236 76782,8641 19876,18900 26102,-19428 26102,-29982 0,-33122 -43605,-34201 -44215,-22961zm-295144 840874c8198,10252 4789,18678 958,29215 -3832,10537 -3832,13889 17240,22509 21073,8620 15807,15325 34484,19157 18677,3832 31129,12451 56513,18199 25383,5748 48374,4790 39751,14848 -1518,1769 -10985,461 -5504,4940l-55900 0c-441,-1790 -1547,-2990 -2866,-4227 -6318,-5918 -20040,-8251 -27360,-11947 -11603,-5859 -13839,-7930 -30497,-5050 -24816,4290 -32567,13411 -48372,7184 -15804,-6227 -30897,-24924 -22393,-34254 8505,-9330 19040,-8849 22872,-16991 355,-756 -3784,-74667 21074,-43583zm248212 108868c8028,-3152 5493,-7665 9370,-13716 3878,-6051 5231,-22237 18161,-26545 12931,-4309 23707,-237 25622,-8859 1916,-8622 -2871,-16284 6707,-21314 9577,-5029 17240,-9578 22988,0 5747,9580 17718,6704 11494,19876 -6226,13171 -8621,17721 -16524,18679 -25959,3143 2445,25413 -28974,21790 -18677,-2154 -16705,6012 -17246,7264 -541,1253 -2327,1944 -2734,2825l-28864 0zm-586847 -18547c5985,-18024 7422,-50843 20354,-59160 12932,-8318 23706,-458 25622,-17100 1916,-16640 -2872,-31429 6706,-41136 9578,-9707 17241,-18488 22988,0 5748,18489 17720,12939 11494,38361 -6225,25423 -13110,33186 -16523,36052 -3412,2865 -5266,-8781 -10774,16639 -5509,25420 479,29578 -18201,25420 -12987,-2893 -14745,-8464 -16299,-2116 -1813,7409 -6670,7419 -3679,21587l-25445 0c332,-9506 822,-9719 3757,-18547zm669696 -108398c-1606,-4427 -12693,-32032 -17840,-21433 -4071,8381 -18438,13411 -24425,10777 -5926,-2607 -46516,7163 -38315,-7185 4790,-8381 8622,-5985 -1197,-14606 -9818,-8622 -14846,-13410 -3113,-16284 11734,-2875 23469,-1915 25383,-7903 1916,-5988 1437,-17719 13171,-17719 11735,0 22988,956 27059,-1438 4071,-2394 17977,-12387 24186,-5508 6208,6880 9793,-8665 15123,-6551l0 68684c-9751,-559 -14490,-5092 -20951,-7121 -7393,-2321 -11801,-2999 -5308,2101 12184,9572 18439,28736 6227,24186zm-673453 -87850c4641,1607 9024,3569 12894,6073 16283,10537 68967,1915 86207,6226 17242,4311 12451,15327 28734,16762 16285,1437 50768,-11013 41668,7185 -9100,18199 -37358,15327 -48850,10536 -11494,-4790 -8143,-12933 -30173,-11974 -22031,958 -60346,-11014 -65133,-478 -4790,10536 7181,32087 -12932,34003 -4230,403 -8376,466 -12415,351l0 -68684zm110954 -96775c0,0 94350,7662 117817,-959 23467,-8621 22989,-15326 50766,-15805 27778,-479 42147,-10058 49810,-11494 7662,-1437 58906,12452 75669,10537 16763,-1916 13890,-5747 30653,-6226 16761,-479 25862,-2394 22988,-6705 -2875,-4311 -25861,-10057 -37357,-12453 -11495,-2395 -42626,-479 -45020,-2395 -2394,-1916 43582,-3830 47414,-6226 3832,-2395 -10535,-15325 -14367,-20114 -3831,-4789 -11493,-11494 0,-10537 11494,957 24905,12451 29693,10057 4789,-2394 4310,-13886 13889,-9578 9580,4310 22031,12932 19636,3832 -2396,-9099 -16641,-13771 -12571,-20715 4071,-6943 19635,-10774 13410,-16043 -6226,-5268 -35440,24664 -42864,17959 -7425,-6705 15804,-14126 14846,-20114 -957,-5988 -3112,-3831 -18678,958 -15565,4789 -17242,5749 -16044,1676 1198,-4072 12454,-2156 12692,-8861 239,-6705 6944,-7183 9578,-10775 2634,-3593 16524,-9340 958,-13410 -15565,-4071 -23706,957 -20354,-6466 3353,-7424 15804,-4789 17720,-11974 1916,-7183 -478,-15802 3114,-19156 3591,-3354 6345,-18559 14247,-19995 7903,-1437 17242,6227 21792,9818 4549,3592 39512,22270 48612,24186 9100,1916 30054,22150 35561,16643 5506,-5508 10352,-8776 -239,-24186 -10592,-15411 -17483,-20116 -9340,-28017 8143,-7903 17002,-42384 10058,-50288 -6945,-7903 -64536,4191 -90398,14008 -25863,9818 -40231,-1437 -50768,-4071 -10536,-2634 -24904,720 -34722,-4069 -9818,-4791 -41549,-20714 -57830,-20714 -16283,0 -47653,-5749 -47653,1676 0,7423 2153,10297 6944,13889 4790,3591 -8859,239 -17481,6944 -8621,6705 64179,21069 71122,32326 6943,11256 9218,13769 15923,13530 6705,-239 22032,-1436 15566,4550 -6466,5987 -39991,21313 -34722,24665 5268,3353 29933,-4309 24424,3593 -5508,7903 -14845,7183 -15804,13649 -958,6465 9819,15805 13649,24426 3831,8621 239,10057 3592,15085 3352,5030 25145,17005 20355,23709 -4789,6705 -25864,3353 -40709,6705 -14847,3352 -22510,24904 -42146,34005 -19635,9098 -39870,7066 -50647,-359 -10777,-7425 -19396,-18438 -30651,-16283 -11255,2155 -23227,9339 -27538,16283 -4312,6944 16042,3830 26340,6465 10298,2634 15567,5986 8143,9100 -7425,3113 -21075,-4070 -21793,4072 -718,8140 14846,5985 718,10774 -14127,4789 -116378,10777 -88003,22868zm-110954 -97417c16568,4348 33246,7597 52647,9895 36398,4311 97282,-1001 105363,-13888 8080,-12889 8142,-16284 34963,-20116 26820,-3832 51724,-7664 24425,-16283 -27299,-8621 -39273,478 -58429,-480 -19158,-957 -93390,481 -118775,-1914 -15138,-1428 -28062,-8989 -40194,-14047l0 56833zm43786 -103850c0,0 81899,47412 96744,39271 14846,-8140 28734,-11014 30650,-29214 1916,-18199 12873,-29633 20535,-37296 7664,-7664 25444,-19218 39332,-36938 13889,-17721 8619,-23946 45018,-29693 36400,-5747 29217,-11494 51246,-19157 22031,-7664 51724,-1438 61303,2873 9579,4311 46934,18679 67528,12932 20596,-5748 20596,-15327 13411,-23469 -7184,-8140 12453,-17718 22509,-25382 10057,-7663 15804,-8622 11494,-16762 -4310,-8142 -42265,-48253 -38913,-58311 3353,-10057 29932,-17239 21073,-29932 -8860,-12693 -38792,-15806 -52202,-21793 -13411,-5985 -5628,-23348 8022,-29094 13650,-5746 44061,-9578 51724,-19158 7663,-9578 17722,-27777 6227,-28256 -11494,-479 -127420,-13983 -123564,-2395 2181,6558 -27838,16920 -59407,25407 -4559,1226 -9660,16200 -14193,17329 -4179,1042 -7812,-11741 -11817,-10808 -14720,3430 -30256,32974 -32586,25660 -10827,-34007 -107093,-12090 -118588,-4906 -11494,7184 -46455,-2395 -46455,5268 0,7663 -21554,19158 -11496,37835 10059,18678 35441,22988 21552,27299 -13888,4310 -17000,27540 -37116,-2634 -20115,-30175 -26341,-50289 -41187,-52204 -14848,-1916 -14847,1915 -23946,-7185 -227,-226 -454,-444 -684,-658l0 53073c9629,505 19331,2852 27503,10803 17719,17243 44539,34004 57471,34004 12931,0 19634,22512 44060,14848 24428,-7664 45022,-23467 65137,-26820 20113,-3352 34483,7182 46455,957 11973,-6225 17239,-10057 27298,-9578 10059,480 18678,8620 30172,-958 11496,-9578 7665,-8620 20596,-11015 12929,-2394 47651,-15085 63936,-8381 16283,6704 24426,10055 32088,6225 7661,-3829 18199,7663 10535,15327 -7662,7664 -37837,10057 -33046,19156 4790,9100 32090,23468 27779,33046 -4311,9579 -18678,12454 -31609,10058 -12931,-2395 -67528,-6705 -84292,1916 -16762,8621 -19156,25862 -36877,23946 -17720,-1916 -28258,-6707 -34963,-5748 -6704,959 -1916,15326 -19156,11016 -17242,-4310 -9338,-1198 -19396,19398 -10058,20594 956,23467 -2874,39271 -3832,15805 -17721,68966 -38793,56994 -21074,-11974 -117338,-28257 -108238,3833zm649699 103863c-4510,-1201 -9365,-1455 -14769,977 -5447,2452 -37175,4369 -57771,-1377 -20594,-5748 -20594,-15327 -13411,-23469 7184,-8140 -12451,-17718 -22509,-25382 -10056,-7663 -15802,-8622 -11492,-16762 4308,-8142 42265,-48254 38912,-58311 -3352,-10057 -29932,-17240 -21072,-29932 8859,-12693 38791,-15806 52202,-21793 13411,-5985 5627,-23349 -8022,-29094 -13650,-5746 -44062,-9578 -51725,-19157 -7664,-9579 -17721,-27778 -6227,-28257 5013,-209 30143,-545 56199,-3197 8271,-842 21206,-3365 28943,-5256 14430,-3525 22284,-4408 30742,2088l0 121707c-14712,627 -23605,9578 -31112,5824 -7663,-3829 -18201,7664 -10537,15327 7664,7664 37837,10058 33047,19156 -4791,9101 -32088,23468 -27779,33046 4310,9578 11397,4677 18453,3371 7055,-1307 11058,570 17928,3645l0 56846zm-448552 -584640c3795,10153 -17383,6904 -21923,19617 -4539,12713 21687,4025 3967,18870 -17721,14847 -64118,23935 -81897,17242 -63739,-23995 97954,-62111 99853,-55729zm185001 -6386c1744,7073 12584,5075 17611,9494 5029,4419 87978,-1618 85107,13707 -2874,15326 -18679,13649 -19397,25144 -718,11494 23948,31848 21553,21072 -2395,-10776 -2633,-23706 6464,-17002 9099,6704 53880,17004 62981,10058 9098,-6945 17718,-16763 4308,-17241 -13409,-478 -53162,-2396 -53640,-7185 -478,-4789 60585,1198 73517,-2155 12931,-3352 21910,926 27777,-17482 5866,-18402 -39075,-14385 -36747,-18410l-28870 0c-16868,4069 2726,8195 -13407,6918 -16135,-1278 -43021,-2793 -54609,-6914l-69486 -4 -23162 0zm263551 195792l0 53103c-5462,-218 -6840,5641 -10853,11891 -7449,11599 -15645,27412 -19712,28936 -11494,4310 -20318,-10292 -13890,-17240 0,0 9579,-8142 1438,-17242 -8142,-9100 -37836,-16283 -36879,-38793 957,-22509 30172,-12931 49809,-4311 19636,8621 7183,11495 9578,23469 1978,9878 2037,-18673 13290,-33457 2018,-2651 3452,-10048 7219,-6356z">
    <metadata id="CorelCorpID_4">
     <odm name="FillColor" value="D" type="0"/>
    </metadata>
   </path>
   <path id="C_0" class="fil2" d="M13604 705540c-18511,5524 -5512,11621 -6540,12003 -15795,53724 73222,-31903 6540,-12003z">
    <metadata id="CorelCorpID_5">
     <odm name="FillColor" value="C" type="0"/>
    </metadata>
   </path>
   <path id="C_1" class="fil2" d="M77543 732003c0,0 22418,-17708 40228,-3353 17811,14356 5269,27779 31609,29215 26341,1437 69446,7183 79025,-2395 9578,-9577 15803,-16283 22988,-13888 7184,2395 23466,5745 31609,957 8142,-4789 27777,-18678 32088,-8141 4311,10535 -5749,27778 -14847,28736 -9099,957 -28071,8090 -44541,11016 -16469,2924 -1914,-1438 -957,16761 957,18200 -10057,36399 -31609,16284 -21551,-20116 -6227,-24904 -27299,-25862 -21073,-959 -10059,11014 -30652,2393 -20594,-8619 -28256,-15324 -61781,-4789 -33525,10537 -120078,-16692 -73928,-37800 46151,-21108 48067,-9134 48067,-9134z">
    <metadata id="CorelCorpID_6">
     <odm name="FillColor" value="C" type="0"/>
    </metadata>
   </path>
   <path id="D_2" class="fil3" d="M523902 886940c-479,-1677 -15566,-5028 -10298,-19396 5269,-14369 22271,-14609 20357,-25384 -1916,-10775 7183,-14129 18438,-20116 11255,-5985 20833,-16762 12452,-17720 -8381,-957 -13411,1198 -13411,1198 -11495,838 8142,-34724 3353,-37117 -4789,-2394 -16524,2395 -18679,8381 -2153,5987 -719,11015 -5507,6466 -4789,-4550 -239,-7902 -13410,-7902 -13171,0 -46696,3591 -44541,-1916 2155,-5507 15566,-10537 15805,-15566 239,-5030 -10896,-22628 -26222,-25263 -15324,-2634 -28015,18437 -35919,12691 -37233,-27070 -45226,34773 -26341,37836 14837,2407 29215,-19158 37117,-22750 7903,-3591 19158,-6466 14847,3114 -4310,9578 -15806,1916 -11494,15085 4311,13171 34841,-2575 28855,6526 -5986,9100 -12096,3292 -14968,9280 -2870,5988 18920,-3592 26344,1676 7422,5269 -7424,20834 4548,27539 11974,6705 20396,-25661 30892,-17003 10495,8659 15804,11256 1436,20595 -16851,10953 -40291,29615 -18318,48970 10057,8859 15565,22989 24664,10776z">
    <metadata id="CorelCorpID_7">
     <odm name="FillColor" value="D" type="0"/>
    </metadata>
   </path>
   <path id="C_3" class="fil2" d="M689013 778103c0,0 -49090,17003 -57472,480 -8382,-16522 -16284,-73038 -24904,-77587 -6527,-3445 -15210,-6220 -23345,-651 -1922,1317 -4424,-583 -6109,-1744 -6942,-4789 -10537,-12690 -8621,-17480 1916,-4791 11175,-15321 12811,-22152 1637,-6830 -10057,-7662 -11255,-17001 -1197,-9340 22031,-23227 27061,-11974 5028,11255 -5030,14367 -2635,25623 2396,11256 15565,3591 16763,23468 1197,19876 4549,41190 9578,39513 5029,-1677 17720,-16045 18199,-3593 479,12451 240,15325 2874,14367 2635,-957 17174,-7179 22510,-2634 7266,6192 38992,43798 24545,51365zm-138765 -429116c0,0 35439,-8381 42384,4070 6946,12453 10539,25384 11257,16764 718,-8621 -9677,-17098 3973,-23084 13649,-5987 14896,-9819 14465,-13555 -430,-3736 -22270,720 -23468,-7902 -1197,-8622 4309,-24665 16762,-23468 12453,1198 28260,956 27540,-11256 -721,-12211 -7902,-24425 -20116,-13888 -12214,10536 -9100,17721 -20833,17242 -11734,-479 -27777,-5749 -27538,3830 239,9580 12691,14369 9578,19397 -3114,5029 -16284,13650 -27540,10298 -11255,-3353 -18676,-5508 -23227,0 -4550,5507 -1676,27538 16763,21552zm-68426 -169600c-9457,-839 -11015,-7184 -11015,-15326 0,-8141 12692,-10777 18677,-10297 5987,479 54599,-2874 62980,1677 8381,4550 22990,16523 27779,17721 4789,1197 20594,2634 28736,2634 8141,0 22687,177 23885,4488 1197,4311 9337,20475 -8262,19277 -17600,-1197 -35440,-10057 -32209,-1436 3232,8620 10778,8859 10298,15086 -479,6227 -3593,6466 -8143,2036 -4550,-4429 -17839,-11853 -20713,-21552 -4736,-15978 -6831,-25756 -25563,-21732 -17841,3831 -45917,9997 -66450,7424zm-191451 24782c0,0 20153,945 44406,1399 -3065,10603 271,34156 -14810,37013 -17696,3353 592,-12932 -37162,-17482 -37756,-4548 2361,11974 3541,23230 1059,10093 -23023,-10627 -35665,-25201 15792,-1716 39037,-3943 36446,-8720 -3117,-5748 -78210,-4311 -85064,-9100 -6855,-4790 2803,-7186 13085,-12214 10284,-5028 6856,-24183 -15578,-22030 -15425,1482 -32580,-4052 -41540,-1590 -4071,1118 6587,11280 -5510,12127 -9223,645 -23370,-24187 -28356,-31131 -4986,-6945 -16516,-1675 -14333,9099 2181,10776 35212,27299 27421,36638 -7791,9340 -16827,22269 -25240,11974 -8412,-10297 -16825,-5987 -16825,-5987 -6825,1258 -9970,42387 11529,42865 3066,69 5840,25 8337,-128 5945,9609 35948,-2434 35948,-2434 27963,2461 82102,-12318 86975,-4945 6485,9818 8257,9579 24774,13889 16516,4309 16516,12213 4720,13889 -11798,1677 -61941,-13889 -78457,-15325 -16516,-1437 -83764,20594 -74325,25383 9438,4789 77275,-239 117388,-959 40112,-719 36574,5509 59578,8382 23005,2872 28905,-3832 38932,-9100 10027,-5268 40113,-3591 66068,-6944 25954,-3352 -7671,-27299 -23598,-36160 -11703,-6511 4373,-15863 18872,-25591 14049,-825 24173,-2393 25358,-5157 4311,-10057 -18196,-28257 -16282,-36878 1915,-8620 23945,-3350 29693,-11014 5748,-7663 -24427,-16765 -25862,-31610 -1437,-14846 55077,-6226 56514,-10057 1436,-3832 -32568,-13410 -34004,-21073 -1437,-7663 22507,-6703 20113,-15325 -2394,-8623 -34004,-4310 -35441,-14368 -1436,-10058 3353,-20594 14369,-21552 11016,-959 38555,4548 53401,11733 14846,7184 42625,-5748 25861,-14369 -16762,-8619 -8140,-7184 -21072,-15804 -12931,-8620 -46458,3832 -54119,-1436 -7662,-5269 -11996,-3329 -5269,-10058 11135,-11134 -27593,-5570 -52891,-2739 -9338,1040 -13892,1055 -10114,4613 2615,2462 3612,4998 745,8184 -4184,4648 -36398,9577 -36398,13888 0,4311 31610,12454 44541,4790 12929,-7663 38411,-26866 29023,-17025 -9388,9841 -23756,25167 -20404,37619 3353,12452 14369,12931 1916,14367 -12451,1437 -29215,4310 -34004,11974 -4788,7663 -22989,11015 -25383,11015 -2394,0 8022,-14487 -18080,-4430 -26101,10058 -43344,6465 -50766,12692 -7423,6227 22749,-3353 18678,1197 -4071,4551 -18678,10776 -24185,13649 -5508,2874 16762,12453 27299,3353 10536,-9100 7423,-15087 16044,-13410 8619,1677 25383,6465 35918,6465 10537,0 8860,-3832 14369,479 5509,4311 12214,9100 22031,9100 9818,0 24426,-6705 27060,-718 2633,5986 5506,19637 -1198,19637 -6705,0 -12932,2631 -7902,6224 5029,3593 13171,9100 8861,14129 -4311,5030 -9102,12693 -11975,15326 -954,875 -3958,2822 -8455,5030 -7662,1318 -13759,3958 -18726,6955 -6684,1759 -14184,2984 -22029,2984 -24904,0 -55315,2153 -38792,10773zm195465 -204169l53949 0c-5001,9025 -43904,9624 -53949,0zm17335 417292c15939,-3352 79699,-30653 93867,-22032 14168,8621 18300,30173 23615,28257 5314,-1916 19481,-19158 25975,-7662 6494,11494 -21846,29215 -18301,37834 3542,8621 20665,23467 25976,15805 5312,-7662 18893,-16762 15350,-6705 -3543,10058 -20665,11494 -10629,17242 10038,5746 17122,12453 8266,18678 -8854,6226 2275,35535 -13578,39273 -15852,3737 -32467,1436 -21252,-12932 11216,-14367 25976,-19157 12987,-21072 -12987,-1916 -24793,0 -24204,-5748 589,-5748 31288,-1916 27155,-6705 -4132,-4789 -36601,-8143 -38372,-20594 -5307,-37324 -10082,-61835 -76156,-49330 -17710,3352 -34242,19638 -49000,18679 -14759,-958 -30108,-958 -33060,-11016 -2952,-10056 25385,-20114 51361,-11972zm-196756 -93631c-3582,-7794 4310,-13410 11015,-18918 6705,-5507 24424,-33287 46695,-27299 22270,5988 27778,-2153 32089,11974 4311,14128 16523,41189 16044,29934 -480,-11256 -16764,-27780 -1438,-23229 15327,4550 7902,20834 15087,17482 7184,-3353 4072,-35202 6945,-41189 2873,-5986 -2873,-21550 5748,-22988 8619,-1438 17240,-1436 11972,11733 -5269,13171 -9580,31608 -3114,40469 6466,8861 20116,32808 9580,36160 -10537,3353 -22749,1676 -26820,6944 -4071,5269 -6466,11972 -15805,9099 -9338,-2872 -7902,-9100 -24186,-8381 -16283,720 -43822,5748 -47654,959 -3831,-4789 23468,-26820 30173,-25383 6704,1435 27060,17003 31850,15326 4787,-1677 4787,-9581 -1916,-13891 -6705,-4308 -7424,-4069 -10058,-13888 -2634,-9818 -5986,-8861 -19635,-5747 -10394,2370 -62991,28626 -66572,20833zm-263593 10596c0,0 30172,24186 42624,20834 12452,-3352 6945,-10776 20595,-16523 13649,-5748 55793,-3831 58668,-10536 2874,-6706 8382,-20116 26101,-22032 17721,-1916 45259,-7902 47175,-479 1916,7423 -237,18200 -20115,20834 -19875,2633 -32807,2156 -38793,9578 -5986,7424 -25144,5506 -35440,12931 -10298,7425 -17960,11495 -9339,12931 8620,1436 33763,-10773 35440,-2393 1677,8379 -34482,15565 -47414,18438 -12930,2873 -31850,11254 -45259,4310 -13410,-6944 -51247,-35442 -53641,-45020 -2394,-9577 14789,-5925 19398,-2873zm147870 173254c16522,478 22031,-4550 20354,-14129 -1677,-9580 -1677,-21550 5987,-21791 7663,-240 10538,9817 29215,11733 18677,1916 9338,-4550 20113,-1197 10777,3352 27541,7902 38076,5986 10537,-1916 27301,-5507 24906,-11253 -2395,-5748 -60107,-4311 -65374,-9101 -5269,-4789 2153,-7185 10056,-12213 7902,-5028 5268,-24184 -11972,-22030 -17242,2155 -31369,15804 -36159,10537 -4791,-5268 -17961,-24187 -21793,-31132 -3832,-6944 -12692,-1674 -11015,9100 1677,10776 27061,27299 21074,36638 -5988,9339 -12932,22269 -19397,11974 -18568,-29566 -25513,36258 -4071,36878zm-59508 162716c10296,1677 11495,-14847 10537,-28257 -959,-13408 10057,-1914 17719,-8141 7663,-6227 3352,-4313 18198,-8142 14848,-3830 12933,-10537 21075,-15326 8141,-4789 -56034,12931 -48373,-479 7663,-13410 20594,-12453 18679,-26341 -1916,-13889 -15326,-29215 -23946,-16284 -8621,12932 -10059,5268 -17243,-5267 -7184,-10537 -27299,-25383 -24424,959 2874,26340 19635,37833 26819,48849 7185,11016 -12454,12454 -18200,18678 -5745,6226 -12451,5267 -1435,16763 11015,11495 1992,22563 20594,22988z">
    <metadata id="CorelCorpID_8">
     <odm name="FillColor" value="C" type="0"/>
    </metadata>
   </path>
   <path id="D_4" class="fil3" d="M9 453811c0,0 55260,-378 62923,-20014 7661,-19636 14081,-31778 -959,-45977 -15041,-14198 -16762,-14845 -26342,-27298 -9578,-12451 -35622,-28418 -35622,-28418l-9 -5 0 121712 9 0zm25436 -453811c12,60 5201,23311 -898,27256 -6106,3950 -18802,-7800 -19516,-14128 -436,-3866 -1675,-5126 -2902,-7220 -783,-1333 -2045,-2872 -2129,-5908l25445 0z">
    <metadata id="CorelCorpID_9">
     <odm name="FillColor" value="D" type="0"/>
    </metadata>
   </path>
   <path id="C_5" class="fil2" d="M220708 0c-167,64 -16158,6167 -15800,11883 359,5737 42339,-11823 42485,-11883l-26685 0zm258627 516095c-7079,-3167 -15850,-1582 -23575,4644 -17808,14352 -5267,27779 -31609,29215 -26341,1436 -69446,7183 -79023,-2394 -9578,-9578 -15805,-16285 -22989,-13889 -7183,2395 -23466,5746 -31609,957 -8142,-4789 -27777,-18677 -32088,-8142 -4311,10537 5749,27779 14847,28736 9099,957 28072,8090 44541,11016 16469,2926 1914,-1438 958,16761 -958,18200 10056,36399 31608,16285 21552,-20115 6226,-24903 27300,-25862 21072,-958 10058,11014 30651,2394 20593,-8621 28257,-15326 61781,-4789 33525,10536 120079,-16694 73928,-37802 -21832,-9983 -33791,-13102 -40278,-12514 -14890,1351 -8241,2633 -24443,-4616zm-420430 26937c0,0 35441,-8381 42385,4071 901,1615 2511,5608 1837,11020 -1426,11458 16937,6348 17561,-1153 362,-4362 -3900,-6332 -8767,-8305 -4745,-1925 -10186,-3876 -3448,-6831 13649,-5984 34724,1198 24427,-5985 -10297,-7184 -24187,-7901 -25383,-16523 -1198,-8622 4307,-24665 16761,-23468 12454,1198 28259,956 27540,-11256 -720,-12212 -7903,-24425 -20115,-13889 -12214,10537 -9100,17722 -20835,17243 -11733,-480 -27777,-5749 -27538,3830 239,9580 12693,14367 9580,19397 -3114,5029 -16286,13650 -27540,10298 -11255,-3353 -18678,-5508 -23228,0 -4549,5507 -1677,27538 16763,21551z">
    <metadata id="CorelCorpID_10">
     <odm name="FillColor" value="C" type="0"/>
    </metadata>
   </path>
   <path id="D_6" class="fil3" d="M378938 663059c-7758,576 -39559,-4899 -45258,-4483 -25086,1839 -29348,9590 -23323,8223 26879,-6099 80503,6158 64265,31374 -3400,5279 -25728,2003 -30997,9478 -4021,5705 -37941,-2446 -41470,5669 -3273,20118 61238,6237 76783,8641 19876,18901 26101,-19428 26101,-29982 0,-9082 -9340,-30137 -26101,-28920zm37836 151520c9746,-5532 11427,18346 11427,26933 0,12958 -39899,66185 -41992,66970 -20120,7545 -7643,-29106 -12453,-34482 -8140,-9098 -37836,-16283 -36878,-38793 957,-22509 30172,-12930 49809,-4310 7284,3328 7184,11494 9579,23468 2331,11651 1991,-30157 20508,-39786z">
    <metadata id="CorelCorpID_11">
     <odm name="FillColor" value="D" type="0"/>
    </metadata>
   </path>
   <path id="C_7" class="fil2" d="M176169 78991c9457,-839 11014,-7184 11014,-15325 0,-8142 -12691,-10777 -18677,-10298 -5986,479 -54598,-2873 -62980,1677 -8380,4550 -22989,16523 -27778,17721 -4789,1197 -20594,2634 -28736,2634 -8141,0 -22687,177 -23885,4488 -1197,4311 -9338,20475 8261,19277 17600,-1197 35441,-10057 32209,-1436 -3231,8621 -10777,8860 -10297,15087 479,6227 3592,6466 8142,2035 4550,-4429 17840,-11853 20714,-21551 4735,-15979 6831,-25757 25563,-21733 17841,3832 45917,9997 66450,7424z">
    <metadata id="CorelCorpID_12">
     <odm name="FillColor" value="C" type="0"/>
    </metadata>
   </path>
  </g>
 </g>
</svg>
