<svg xmlns="http://www.w3.org/2000/svg" version="1.1" xmlns:xlink="http://www.w3.org/1999/xlink" preserveAspectRatio="none" x="0px" y="0px" width="400px" height="400px" viewBox="0 0 400 400">

<path fill="#5C6051" stroke="none" d="
M 399.95 399.95
L 399.95 0 0 0 0 399.95 399.95 399.95 Z"/>

<path fill="#33352E" stroke="none" d="
M 175.55 196.05
L 171.85 192.9
Q 166.45 188.4 160.4 183.4 160.25 188.1 160.15 190.55
L 159.7 208.8 138.45 222.55 162.2 231.15 166.35 247.4 182.45 237.05 182.65 229.7 181.5 229.55 179.65 231.7
Q 179.5 231.9 178.8 232.7
L 174.05 238.3
Q 172.7 239.75 171.8 240.6 171.55 239.25 171.45 238.4
L 171.25 237 171.2 236.85 168.6 225.25 160.85 222.25
Q 159.15 221.7 157.55 221.15 157.55 221.05 157.5 221
L 157.4 220.9 157.4 220.85 157.3 220.75 156.8 220.65
Q 156.45 220.55 156.4 220.5 156.45 220.45 156.5 220.45 156.65 220.45 156.85 220.4
L 156.9 220.4 157.05 220.35
Q 157.3 220.25 157.45 220.2
L 157.55 220.2 167.7 213.35 167.7 208.75
Q 167.75 208.75 167.75 208.7
L 167.8 208.7 168 208.5
Q 168.15 207.15 168.05 205.4
L 168 204.1
Q 167.95 202.5 167.95 201.95
L 167.95 201.05
Q 167.95 200.95 168 200.9 168 200.85 168.15 200.95 168.25 201 168.4 201.05
L 168.4 200.85 168.45 200.9 168.6 200.9 168.6 200.95 178.25 208.6 189.25 205.2
Q 190.05 204.95 191.65 204.25 192.55 203.85 194.7 202.9
L 190.5 206.65 198 208.1
Q 196.1 212.25 194.6 214.6 194.4 214.85 194.25 215.1
L 194.15 215.2
Q 194.15 215.25 194.1 215.25
L 193.6 215.65
Q 193.1 216.05 192.8 216.25 192.65 216.45 192.5 216.6 192.4 216.7 192.7 217.2 192.85 217.5 193 217.75
L 193.6 218.6
Q 194.4 219.9 196.35 222.65 195.65 222.25 196 223.4 196.15 223.85 196.5 224.7
L 197.2 226.2
Q 198 228 198.15 228.65 198.35 229.45 197.7 229.15
L 198.2 229.85 204.3 228.05 196 215.9 198.9 208.3 215.95 211.55 226 234.75 238.4 212.65 248.9 211.75
Q 256.85 211.05 263.7 210.4 258.5 204.8 253.95 200
L 250.15 196.05
Q 248.9 194.8 247.75 193.7
L 246.3 192.35 246.25 192.35
Q 246 192.2 245.65 192 245.6 191.7 245.55 191.3
L 245.55 191.25
Q 245.55 191.2 245.6 191.15
L 245.8 189.25 245.15 191.1
Q 245 191.4 244.7 191.95
L 245 190.65
Q 245.35 189.2 245.45 188.65 245.9 186.65 245.95 185.8 246.6 181.7 246 182.25 245.8 182.45 245.3 183.4 244.75 184.6 244.45 185.15 244.2 185.7 244.05 185.75 243.95 185.8 243.75 185.7 243.6 185.65 243.45 185.8 243.2 186.1 242.9 187
L 244.05 182.15
Q 243.95 182 243.35 184.85 242.75 187.5 242.65 186.7 243 185.65 243.35 183.75 243.8 181.45 243.95 180.8 243.7 181.05 242.9 184.3 242.15 187.3 242 187.1 242 186.85 242.85 183.95 243.6 181.55 243.35 181.25 243.3 181.2 242.6 184.1 243.45 179.9 243.55 178.2
L 251.6 179.75 251.7 179.75 251.95 179.8 262 203 270.95 187.05
Q 271.2 186.55 273.25 182.9
L 274.35 180.9 274.6 180.9
Q 274.65 180.9 274.7 180.9
L 284.9 180
Q 292.95 179.3 299.7 178.65 294.25 172.75 289.55 167.8
L 286.15 164.3
Q 284.9 163.05 283.75 161.95
L 282.3 160.65 282.2 160.6
Q 282 160.45 281.6 160.25 281.6 159.95 281.55 159.55
L 281.55 159.45 281.8 157.5 281.1 159.4
Q 280.95 159.65 280.7 160.2
L 281 158.9
Q 281.3 157.45 281.45 156.9 281.9 154.85 281.95 154.05 282.55 149.95 282 150.55 281.8 150.75 281.3 151.65 280.7 152.85 280.4 153.4 280.2 153.95 280 154 279.95 154.05 279.75 153.95 279.55 153.9 279.4 154.1 279.2 154.35 278.9 155.25
L 280 150.4
Q 279.95 150.25 279.3 153.1 278.75 155.75 278.65 154.95 278.95 153.9 279.35 152.05 279.8 149.7 279.95 149.05 279.7 149.35 278.85 152.55 278.1 155.55 277.95 155.35 278 155.1 278.85 152.2 279.55 149.8 279.35 149.55 279.25 149.45 278.55 152.35 279.55 147.5 279.55 146.05 279.6 144.5 278.35 148.3 278.5 147.6 278.8 146.45 279.15 145.15 279.35 144.5
L 279.25 144.5 278.95 144.55 278.5 144.55 278.45 144.65
Q 278.3 145.05 277.1 148.35 276.35 150.35 276.15 151.2
L 273.45 162.4 281.7 171.55 281.7 171.6 281.75 171.65 281.75 171.7
Q 281.8 171.75 281.75 171.75
L 281.6 171.75
Q 281.65 171.8 281.75 172 281.8 172.1 281.75 172.15 281.7 172.2 281.65 172.2
L 280.7 172.25
Q 280.15 172.3 278.55 172.35 277.15 172.35 276.4 172.4 275.2 172.45 274.15 172.6
L 274 172.85 273.95 172.9 269.4 173.2 263.15 183.75 263.15 183.9
Q 263.05 184.15 263 184.4
L 262.95 184.8 262.95 184.9
Q 262.85 184.9 262.75 184.55 262.65 184.2 262.6 184.05
L 262.5 183.95 262.45 183.95 262.4 183.9 262.35 183.9
Q 262.3 183.85 262.2 183.8 261.6 182.35 260.9 180.6
L 257.4 173.05 254.05 172.5 256.4 175.05 242.5 176.3 242.2 177.1
Q 242.3240234375 176.7986328125 242.45 176.4
L 242.5 176.3 237.1 176.8 237.05 176.95 241.95 177.9
Q 241.55 178.95 240.9 180.75 240.35 182.2 240.2 182.95
L 237.5 194.15 245.7 203.3 245.75 203.3 245.75 203.35 245.8 203.45 245.8 203.5 245.6 203.5 245.75 203.75
Q 245.8 203.85 245.8 203.9 245.75 203.95 245.65 203.95
L 244.75 204
Q 244 204.05 242.6 204.05 241.2 204.1 240.45 204.15 239.2 204.2 238.2 204.35
L 238.05 204.55
Q 238 204.65 237.95 204.65 235.9 204.8 233.4 204.95
L 227.2 215.5
Q 227.15 215.5 227.15 215.55
L 227.15 215.6
Q 227.1 215.8 227 216.15
L 226.95 216.55 226.95 216.65
Q 226.9 216.65 226.8 216.3 226.7 215.95 226.65 215.8
L 226.55 215.7 226.45 215.7 226.4 215.6
Q 226.3 215.55 226.25 215.55 225.65 214.2 224.95 212.35
L 221.4 204.8 209.7 202.9
Q 209.6 202.9 209.55 202.9
L 208.15 202.8
Q 207.2 202.7 205.9 202.55 206.65 201.65 208.1 200.15
L 208.25 200 208.25 199.95 213.4 195.05
Q 214.1 194.35 214.35 194.15
L 216.35 192.15 215.5 187.5
Q 215.15 185.5 214.9 183.8
L 214.55 181.1
Q 214.45 180.4 214.3 178.95 214.15 177.65 213.9 174.85
L 215.8 176
Q 215.4 175.35 216.25 175.5 216.9 175.6 218.75 176.3
L 220.45 176.95 220 175.9 207.75 173.4 209.65 189.55 209.7 189.55 209.7 189.6 209.65 189.65 196.35 201.4
Q 195.8 201.6 194.1 202.15 192.75 202.65 192.05 202.85 195.75 201.35 194.2 201.5 192.75 201.6 187.95 202.85 190.8 202 190.75 201.95 190.45 201.7 188.05 202.6 185.25 203.6 185 203.65 184.8 203.5 187.75 202.6 190.9 201.55 191.2 201.3 190.55 201.5 188.25 202.1 186.4 202.55 185.35 202.95 184.55 202.9 187.15 202.15 189.49375 201.522265625 189.75 201.3
L 185.05 202.75
Q 185.9 202.35 186.2 202.15 186.35 201.95 186.3 201.8 186.2 201.6 186.2 201.55 186.3 201.35 186.8 201.1 187.15 200.9 187.75 200.55 188.45 200.1 188.65 200 189.9 199.25 189.55 199.1 189.15 198.95 186.05 199.6 185.55 199.7 184.35 200
L 183.25 200.3
Q 182.85 200.4 181.3 200.85
L 180 201.25 180.8 200.75 182.55 200 182.45 200 180.7 200.3 180.65 200.35 180.6 200.35
Q 180.2 200.35 179.9 200.3
L 179.65 200 179.5 199.75 179.5 199.7 178.05 198.3
Q 176.95 197.3 175.55 196.05
M 242.9 176.55
L 242.9 176.45
Q 242.9169921875 176.4162109375 242.9 176.35
L 242.9 176.55
M 242.35 180
Q 242.55 179.2 242.85 178.1
L 243.05 178.1
Q 242.75 178.8 242.35 180
M 200 205.35
L 200 205.4 199.55 206.5
Q 199.75 206.0125 200 205.35
M 196.25 201.55
L 196.2 201.6 195.35 201.85
Q 195.7 201.7 196.25 201.55
M 388.65 399.95
Q 389.85 399.2 389.55 399.1 389.1 398.9 386 399.6 385.5 399.65 384.3 399.95
L 388.65 399.95
M 399.95 398.1
L 397.95 399.95 399.95 399.95 399.95 398.1
M 184.35 399.95
L 188.65 399.95
Q 189.9 399.2 189.55 399.1 189.15 398.9 186.05 399.6 185.55 399.65 184.35 399.95
M 249.9 343.1
L 251.75 344.25
Q 251.35 343.6 252.25 343.75 252.9 343.85 254.7 344.55
L 256.45 345.2 256 344.1 247.45 342.4 245.05 352.95 245.65 357.75 245.65 357.85 243.5 359.75 243.3 360.8 247.35 365.2 249.35 363.3
Q 249.85 362.8 250.3 362.4
L 252.35 360.4 251.5 355.7
Q 251.15 353.85 250.85 352.05
L 250.5 349.3
Q 250.45 348.6 250.3 347.2 250.15 345.9 249.9 343.1
M 243.7 341.65
L 243.95 343.55 246.75 342.25 243.7 341.65
M 282.25 302.6
L 282.25 303.2 266.7 315.7 265.45 310.55 275.2 299.5 269.35 296.95 268.75 297.6
Q 269.5 297.35 269.2 298.2 268.95 298.75 267.95 300.5
L 267.05 301.9
Q 266.6 302.65 266.4 303.1 265.9 304.2 266.6 303.85 264.4 306.3 263.4 307.5
L 262.3 308.85
Q 262 309.3 262.05 309.4 262.2 309.55 262.3 309.75 262.6 310.05 263.05 310.5
L 263.55 311 263.6 311.1
Q 263.7 311.3 263.85 311.65 264.75 313.45 265.75 316.45
L 264.55 317.4 265.95 318.25 266.3 318.1 266.45 318.5
Q 266.9 320 267.65 323.6 268.3 326.7 268.55 327.2 268.75 327.75 268.75 327.3 268.8 327 268.7 326 268.6 325 268.6 324.7 268.6 324.25 268.85 324.8 268.1 321.5 267.15 317.7
L 280.85 311.4 285.2 303.9 282.25 302.6
M 314.35 313.7
L 314.2 314.3 315.95 316.25 316.3 315.9
Q 315.25 314.75 314.35 313.7
M 306.65 318.25
L 305.35 318.3
Q 304.4 319.85 303.5 321.4
L 303.15 321.95
Q 302.8 322.45 302.15 323.5
L 300.8 325.6 300.7 325.7
Q 300.2 326.35 299.95 326.8
L 299.85 327.05
Q 299.75 327.35 299.55 327.75
L 299.45 327.55
Q 299.4 327.4 299.35 327.55 299.331640625 327.568359375 299.3 327.6
L 299.35 327.3
Q 299.25 327.5 299.1 327 299.05 326.8 299 326.7 298.95 326.55 298.85 326.5
L 299.05 326.15
Q 298.85 326.1 298.7 325.6
L 298.65 325.4 297.15 321.7 297.4 321.55
Q 295.95 317.9 295.7 317.05 295.2 316.9 295.25 316.85
L 295.45 316.6
Q 294.65 316.35 293.1 316 292.95 316 290.45 315.45
L 288.8 315.05
Q 288.35 314.95 288.4 314.85
L 288.3 315.1 287.05 314.8 286.9 314.75
Q 286.75 314.7 286.65 314.65 286.5 314.5 286.55 314.4
L 286.6 314.4
Q 287.1 314.2 287.25 314.2
L 287.3 314.2 290.9 311.2 283.1 312.25 280.1 325.35 286.6 327.2 286.6 327.25
Q 286.7 327.4 286.65 327.55
L 286.65 327.6
Q 286.65 327.65 286.6 327.7
L 286.6 327.75 290 336.65
Q 293.3 345.2 297.25 355.2 301.55 348 306.4 339.75
L 312.2 329.85 312.2 329.75
Q 312.2 329.7 312.2 329.55 312.2 329.35 312.35 329.1
L 312.35 329.05 312.4 329.05 313.2 328.8 303.4 326.55 309.55 321.5 306.65 318.25
M 242.95 376.25
L 242.5 376.3 242.15 377.3
Q 242.28125 376.884375 242.45 376.35
L 242.5 376.3 237.1 376.8 237.05 376.95 241.95 377.9
Q 241.55 378.9 240.9 380.75 240.35 382.15 240.2 382.9
L 237.5 394.15 242.75 399.95 253.95 399.95 250.15 396.05
Q 248.9 394.8 247.75 393.7
L 246.25 392.3
Q 246 392.2 245.65 391.95 245.6 391.7 245.55 391.3
L 245.55 391.25
Q 245.55 391.2 245.6 391.15
L 245.8 389.25 245.15 391.1
Q 245 391.35 244.7 391.9
L 245 390.6
Q 245.35 389.15 245.45 388.6 245.9 386.6 245.95 385.8 246.6 381.7 246 382.25 245.8 382.45 245.3 383.4 245.05 383.95 244.45 385.1 244.2 385.65 244.05 385.75 243.95 385.75 243.75 385.7 243.6 385.6 243.45 385.8 243.2 386.1 242.9 386.95
L 244 382.15
Q 243.85625 382.4455078125 243.35 384.85 242.75 387.45 242.65 386.7 243 385.6 243.35 383.75 243.8 381.4 243.95 380.75 243.7 381.05 242.9 384.3 242.15 387.25 242 387.05 242 386.85 242.85 383.95 243.6 381.55 243.35 381.25 243.3 381.15 242.6 384.05 243.45 379.9 243.55 378.2
L 251.6 379.75 251.7 379.75 251.95 379.8 260.7 399.95 263.65 399.95 270.95 387
Q 271.2 386.5 273.25 382.9
L 274.35 380.9 274.6 380.9
Q 274.65 380.9 274.7 380.9
L 284.9 380
Q 292.95 379.3 299.7 378.65 294.25 372.75 289.55 367.8
L 286.15 364.3
Q 284.9 363.05 283.75 361.95
L 282.3 360.6 282.2 360.55
Q 282 360.45 281.6 360.2 281.6 359.95 281.55 359.55
L 281.55 359.5
Q 281.55 359.45 281.55 359.4
L 281.8 357.5 281.1 359.35 280.7 360.15 281 358.85
Q 281.3 357.45 281.45 356.9 281.9 354.8 281.95 354.05 282.55 349.95 282 350.5 281.8 350.7 281.3 351.65 281 352.2 280.4 353.4 280.2 353.9 280 354 279.95 354 279.75 353.95 279.55 353.85 279.4 354.05 279.2 354.35 278.9 355.2
L 280 350.35
Q 279.95 350.25 279.3 353.1 278.75 355.75 278.65 354.95 278.95 353.9 279.35 352 279.8 349.7 279.95 349 279.7 349.3 278.85 352.55 278.1 355.5 277.95 355.35 278 355.1 278.85 352.2 279.55 349.8 279.35 349.5 279.25 349.4 278.55 352.3 279.55 347.45 279.55 346.05 279.6 344.45 278.35 348.25 278.5 347.6 278.8 346.45 279.15 345.15 279.35 344.45
L 279.25 344.5 278.95 344.5 278.5 344.55 278.45 344.65
Q 278.3 345 277.1 348.35 276.35 350.3 276.15 351.2
L 273.45 362.4 281.7 371.55 281.7 371.6 281.75 371.6 281.75 371.7
Q 281.8 371.75 281.75 371.75
L 281.6 371.75
Q 281.65 371.8 281.75 371.95 281.8 372.1 281.75 372.15 281.7 372.2 281.65 372.2
L 280.7 372.25
Q 280.15 372.3 278.55 372.3 277.15 372.35 276.4 372.35 275.2 372.45 274.15 372.6
L 274 372.8 273.95 372.9 269.4 373.2 263.15 383.75 263.15 383.85
Q 263.05 384.15 263 384.4
L 262.95 384.8 262.95 384.9
Q 262.85 384.85 262.75 384.55 262.65 384.2 262.6 384.05
L 262.5 383.9 262.45 383.9 262.45 383.95 262.35 383.85
Q 262.3 383.8 262.2 383.8 261.6 382.35 260.9 380.6
L 257.4 373.05 254.05 372.45 256.4 375.05 243.35 376.2 243.25 376.25 242.95 376.25
M 242.35 380
Q 242.55 379.2 242.85 378.05
L 243.05 378.1
Q 242.75 378.75 242.35 380
M 214.3 378.95
Q 214.15 377.6 213.9 374.85
L 215.8 376
Q 215.6 375.65 215.7 375.55 215.8 375.4 216.25 375.5 216.9 375.6 218.75 376.3
L 220.45 376.95 220 375.85 207.75 373.4 209.65 389.5 209.7 389.55 209.7 389.6 209.65 389.6 197.95 399.95 208.25 399.95 213.4 395.05
Q 214.1 394.35 214.35 394.15
L 216.35 392.15 215.5 387.45
Q 215.15 385.45 214.9 383.8
L 214.55 381.05
Q 214.45 380.35 214.3 378.95
M 209.1 364.95
L 206.55 363.45 206.95 366.85 209.1 364.95
M 176.5 372.25
L 175.5 371.7 175.8 372.55 176.5 372.25
M 184.1 352.95
Q 184.05 352.85 183.55 353.15
L 182.15 354.15
Q 180.75 355.15 178.25 357.1 178.45 356.7 178.25 356.65 178.05 356.6 177.5 356.8 177.05 357 176.25 357.35
L 174.8 358.15
Q 173.05 359.05 172.4 359.2 172 359.35 171.85 359.25 171.7 359.1 171.85 358.75
L 171.2 359.3 173.3 365.3 185 356.4 190.8 358.25
Q 194.85 359.6 198.95 360.85 198.45 360.6 198.85 360.6 199.1 360.65 200 360.75 201.1 360.95 201.4 361 201.95 361.05 201.4 360.75 201.05 360.55 200 360.25 197.8 359.6 196.55 359.2 194.15 358.5 192.9 358 188.6 356.3 186.25 354.9
L 185.6 354.55 185.15 354
Q 184.7 353.45 184.5 353.2 184.25 353.1 184.1 352.95
M 242.5 331.7
L 242.95 335.1 245.1 333.2 242.5 331.7
M 227.45 323.5
Q 226.65 331.6 226 338.3 232.7 334.1 238.55 330.35
L 242.65 327.65
Q 244.35 326.5 245.4 325.75
L 247 324.55 247.05 324.5
Q 247.3 324.2 247.5 324 247.75 324 248.2 324.05
L 248.3 324.05 250.15 324.65 248.45 323.65 247.75 323.05 251.2 324.6
Q 252.85 325.25 253.5 325.45 257.4 326.85 256.95 326.15 256.8 325.9 256 325.25 254.95 324.45 254.45 324.05 253.95 323.75 253.9 323.55 253.9 323.5 254.05 323.3 254.15 323.15 253.95 322.95 253.75 322.7 252.9 322.2
L 257.45 324.25
Q 257.6 324.2 254.95 323.05 252.45 322 253.25 322.05 254.2 322.55 256 323.25 258.2 324.15 258.8 324.4 258.6 324.1 255.55 322.7 252.75 321.4 253 321.3 253.2 321.4 255.9 322.75 258.15 323.9 258.45 323.75 258.55 323.7 255.85 322.45 260.4 324.35 261.8 324.6 263.35 324.9 259.85 323 260.4 323.25 262.85 324.4 264.9 325.4 266 325.85
L 265.95 325.8
Q 265.55 325.6 264.25 325 263.846484375 324.7982421875 263.5 324.65
L 265.8 325.65
Q 265.6 325.45 265.3 325.2 264.35 324.7 263.55 324.3
L 265.05 325
Q 264.3 324.4 263.4 323.8 263.1 323.6 260 321.75 258.2 320.65 257.4 320.3
L 246.9 315.55 237.3 321.35 237 327.2 227.85 319.35 227.45 323.5
M 213.65 248.35
L 213.65 247.85 213.45 248.1 213.65 248.35
M 168.65 256.25
Q 171.8 252.25 173.45 250.15
L 166.4 247.65 168.65 256.25
M 189.1 271.75
L 184.4 254.05 177.35 251.55 176.25 251.45 189.1 271.75
M 201.6 260.5
L 201.6 260.05 199.35 259.85 189.6 272.5 190.35 273.75 179.35 299.05
Q 189.9 296.45 200 294.05
L 205.35 293 205.4 293.05
Q 205.55 293.15 205.55 293.3
L 205.6 293.45 205.6 293.5 206.2 294 200.6 285.35 215.9 286.6 215.9 286.3
Q 215.7 286.35 215.3 285.95
L 215.15 285.8 212.1 283.25 212.3 282.95
Q 209.35 280.45 208.7 279.8 208.2 279.9 208.2 279.85
L 208.25 279.5
Q 207.4 279.65 205.9 280.1 204.1 280.55 203.3 280.8
L 202.15 281.1
Q 201.9 281.15 201.65 281.2 201.2 281.3 201.15 281.2
L 201.25 281.5 200 281.8 199.85 281.85
Q 199.7 281.85 199.55 281.85 199.35 281.8 199.35 281.7
L 199.4 281.65
Q 199.75 281.25 199.9 281.2
L 199.95 281.2 203.5 272.6 198.45 264.85 198.4 264.85 198.35 264.8
Q 198.15 264.75 197.85 264.45 197.8 264.4 197.75 264.35
L 197.4 264.1
Q 197.1 263.85 196.75 263.7
L 197.35 263.75
Q 197.45 263.75 197.5 263.7 197.5 263.65 197.45 263.55 197.4 263.4 197.45 263.4 197.5 263.3 197.7 263.35
L 198.6 263.3 207.05 263.85 211.7 258 208.4 257.85 205.75 260.9 201.6 260.5
M 199.8 259.25
L 201.85 259.3
Q 203.4 259.35 205.15 259.45
L 206.5 257.75 201.2 257.45 200 259.05 199.8 259.25
M 213.75 241.95
Q 212.6 243.2 211.15 244.7
L 213.25 247.8 217.2 243.05 219.6 253.4
Q 219.75 253.3 219.75 253.1 219.75 252.75 219.6 252.05
L 221.95 262.05 223.7 262.75
Q 224.2 262.9 225.5 263.4 227.8 264.2 229.2 264.7 229.7 264.8 229.75 264.7 229.75 264.6 229.3 264.3 228.2 263.6 225.45 262.4
L 222.75 261.35 221.05 254.2 221.3 254.05 222.6 259.75
Q 222.75 260.45 222.95 261.2 223.9 261.55 224.55 261.75 224.9 261.8 224.75 261.65 224.7 261.6 224.25 261.3 223.9 261.05 223.8 260.95 223.7 260.8 224 260.9 224.85 261.2 225.3 261.4
L 226.15 261.65
Q 226.75 261.85 227.2 261.95 225.85 261.45 223.6 260.6
L 222.2 254.65
Q 221.95 253.55 221.55 251.75 221.25 249.7 221.15 248.9 220.95 247.5 221.1 247.25 219.8 241.95 218.65 236.55 216.25 239.4 213.75 241.95
M 289.85 295.85
L 284.1 283.8 282.3 285.85 286.3 302 289.85 295.85
M 314.35 269.3
L 305.7 267.35
Q 307.7 271.7 308.95 274.4
L 314.35 269.3
M 273 293.5
L 274 284.7 267.4 288.15
Q 268.85 289.5 273 293.5
M 243.75 267.7
L 243.35 267.1 242.65 268.9 243.75 267.7
M 243.65 258.65
Q 243.8 258.3 243.9 258.1 244.1 257.55 244 257.5 243.8 257.35 243.65 257.15 243.25 256.95 242.75 256.65
L 242.15 256.3 242.05 256.2
Q 241.85 255.95 241.65 255.75 239.9 253.65 237.4 249.8 236.6 248.45 234.9 245.2 233.45 242.35 233.15 241.9 232.75 241.45 232.9 241.9 232.95 242.2 233.3 243.15 233.65 244.1 233.7 244.35 233.8 244.8 233.45 244.35 235.15 247.5 237.5 251.9
L 240.45 257.25 240.4 257.2 234.25 269.65 232.7 270.2
Q 231.35 270.75 230.75 271 228.35 270 226.65 269.3 225.05 268.7 223.3 268.05 223.3 267.95 223.3 267.9 223.3 267.8 223.2 267.7 222.8 267.35 221.4 266.8
L 218 265.45 216.35 258.25 215.35 258.2 217.2 266.15 230.3 271.2
Q 227.2 272.5 225.3 273.45 224.4 273.9 224.15 273.9 224 273.85 224.05 273.7 224.1 273.6 224.45 273.05 224.75 272.55 224.7 272.45 224.15 272.8 223.7 273.05
L 221.6 274.3
Q 221.35 274.4 219.75 275.3 218.6 275.95 217.8 276.4 217.7 278.25 217.65 280 217.6 280 217.55 280.65 217.45 281.3 217.4 282.5
L 217.15 284.95 217.15 285.15
Q 217 285.9 216.95 286.4
L 217 286.7 219.9 286.95 232.15 271.95 232.65 273.95 234.25 272.7
Q 237.45 273.9 237.75 274 236.2 273.35 234.4 272.55
L 236.65 270.8 240.15 271.35 240.55 270.55
Q 239.9 271 240 270.15 240.05 269.5 240.6 267.6
L 241.1 266
Q 241.35 265.15 241.4 264.7 241.55 264.1 241.45 263.9 241.35 263.7 241 264 242.45 261.2 243.2 259.6
L 243.65 258.65
M 261.25 231.15
L 258.05 234.8
Q 256.85 236.15 255.85 237.35
L 254.6 238.95 254.6 239
Q 254.45 239.25 254.3 239.6 253.95 239.7 253.6 239.7
L 253.55 239.75 253.5 239.75 251.55 239.65 253.45 240.15 254.3 240.55 253 240.35
Q 251.9 240.15 250.95 240.05 248.85 239.75 248.1 239.75 243.95 239.4 244.55 239.95 244.8 240.15 245.75 240.55 246.3 240.8 247.55 241.3 248.1 241.5 248.2 241.7 248.2 241.75 248.15 241.95 248.1 242.15 248.3 242.25 248.6 242.45 249.5 242.7
L 244.6 241.95
Q 244.45 242.05 247.35 242.45 250 242.8 249.25 242.95 248.15 242.75 246.25 242.5 243.9 242.2 243.25 242.1 243.55 242.35 246.8 242.9 249.85 243.45 249.65 243.6 249.45 243.6 246.5 242.95 244.05 242.45 243.75 242.65 243.65 242.75 246.65 243.25 241.7 242.6 240.3 242.7 238.7 242.8 242.6 243.75 241.95 243.65 239.3 243.15 237.1 242.75 235.95 242.6 236.4 242.7 237.85 242.95 238.8 243.15 239.35 243.25
L 236.2 242.75
Q 236.5 242.9 236.75 243.05 237.85 243.25 238.75 243.45
L 237.05 243.15
Q 237.85 243.5 238.95 243.9 239.2 244 242.75 245 244.8 245.55 245.65 245.7
L 257.05 247.6 265.6 238.7 265.7 238.65 265.75 238.6 265.75 238.8 266 238.65
Q 266.1 238.55 266.15 238.6 266.2 238.65 266.2 238.7
L 266.35 239.65
Q 266.4 240.2 266.55 241.75 266.7 243.15 266.8 243.9 266.95 245.1 267.15 246.15
L 267.4 246.25
Q 267.45 246.3 267.5 246.35
L 268.1 250.85 279.1 256.3 279.2 256.3
Q 279.45 256.35 279.75 256.4
L 279.75 256.45 279.8 256.4
Q 280.05 256.4 280.15 256.4 280.25 256.4 280.25 256.45 280.25 256.5 279.9 256.65 279.55 256.75 279.4 256.8
L 279.35 256.9 279.35 257 279.25 257.05
Q 279.25 257.15 279.2 257.25 277.8 257.95 276.1 258.75
L 268.85 262.8 267.85 274.65
Q 267.8 274.75 267.8 274.8
L 267.8 276.2
Q 267.8 277.45 267.75 278.45 266.8 277.75 265.2 276.45
L 259.7 271.55
Q 259 270.9 258.9 270.8
L 256.6 268.8 255.5 269.1 256.7 276.35 274.05 284.45 275.95 267.8 298.35 256.05 275.45 245.3 273.75 234.9
Q 272.45 226.65 271.35 220.2 265.65 226.3 261.25 231.15
M 160.4 383.4
Q 160.25 388.1 160.15 390.55
L 159.9 399.95 179.65 399.95 179.5 399.7 178.05 398.25
Q 176.9 397.25 175.55 396
L 171.85 392.85
Q 166.35 388.25 160.4 383.4
M 143.7 381.85
L 143.75 376.05 143.7 376.05 141.9 385.2 142.9 385.45
Q 143.25 383.85 143.5 382.75
L 143.7 381.85
M 159.7 375.25
L 158.85 375.6 159.05 378.1 159.15 378.1
Q 160.9 377.5 163.05 376.65 164.1 376.3 164.5 376.3 164.8 376.3 164.7 376.55 164.7 376.6 164.4 377.05 164.15 377.35 164.3 377.45
L 170.1 374.95 164.45 373.1 163.05 373.75
Q 161.8 374.35 159.7 375.25
M 159.55 374.45
Q 160.25 374.15 161.65 373.55 162.8 373.1 163.55 372.8
L 159.1 371.35 154.1 375.2 153.65 375.95
Q 153.55 376.35 154.3 376.3 154.5 376.25 154.75 376.2
L 158.6 372.7 158.75 374.75
Q 159.15 374.6 159.55 374.45
M 114.35 313.7
L 114.25 314.3 115.95 316.25 116.3 315.9
Q 115.25 314.75 114.35 313.7
M 106.7 318.25
L 105.35 318.3
Q 104.4 319.85 103.55 321.4 103.5 321.4 103.15 321.95 102.75 322.5 102.15 323.5
L 100.8 325.6 100.7 325.7
Q 100.2 326.35 99.95 326.8
L 99.9 327.05
Q 99.75 327.35 99.55 327.75
L 99.45 327.55
Q 99.4 327.4 99.35 327.55 99.35 327.6 99.3 327.75
L 99.35 327.3
Q 99.25 327.5 99.1 327 99.05 326.8 99 326.7 98.95 326.55 98.9 326.5
L 99.1 326.15
Q 98.85 326.1 98.7 325.6
L 98.65 325.4 97.15 321.7 97.4 321.55
Q 96 317.9 95.7 317.05 95.25 316.9 95.25 316.85
L 95.5 316.6
Q 94.65 316.35 93.1 316 92.95 316 90.45 315.45
L 88.85 315.05
Q 88.4 314.95 88.4 314.85
L 88.35 315.1 86.9 314.75
Q 86.75 314.7 86.7 314.65 86.5 314.5 86.6 314.4 87.1 314.2 87.3 314.2
L 90.95 311.2 83.1 312.25 80.1 325.35 86.6 327.2 86.65 327.25
Q 86.7 327.4 86.65 327.55
L 86.65 327.6
Q 86.65 327.65 86.65 327.7
L 86.6 327.75 90 336.65
Q 93.3 345.2 97.3 355.2 101.55 348 106.45 339.75
L 112.25 329.85 112.25 329.75
Q 112.25 329.7 112.2 329.55 112.2 329.35 112.35 329.1
L 112.4 329.05 113.25 328.8 103.45 326.55 109.55 321.5 106.7 318.25
M 161.55 335.6
Q 160 334.3 159.1 333.45 160.2 333.2 161.3 333
L 162.65 332.75
Q 162.7 332.7 162.8 332.7
L 174.25 329.5 176.9 321.6
Q 177.4 319.7 177.85 318.3 177.95 318.25 178 318.2
L 178.05 318.15 178.05 318.1 178.1 318.1 178.2 318 178.3 317.45
Q 178.35 317.15 178.4 317.1 178.45 317.1 178.45 317.2 178.45 317.25 178.5 317.55
L 178.5 317.6 178.55 317.6
Q 178.7 317.95 178.75 318.1
L 178.75 318.2 178.8 318.2 186.15 328 190.7 327.8
Q 190.75 327.8 190.8 327.85
L 190.95 328.1
Q 192 328.1 193.25 328.05 193.95 328 195.35 327.85 196.8 327.7 197.5 327.65
L 198.45 327.65
Q 198.5 327.65 198.55 327.65 198.6 327.7 198.55 327.85 198.5 328 198.45 328.1
L 198.65 328.05 198.6 328.15 198.6 328.25 198.55 328.25 191.4 338.3 195.35 349.1
Q 195.65 349.95 196.6 351.85 198.15 354.95 198.35 355.4 198.95 356.4 199.45 357.1
L 198.85 355.5
Q 199.2 356.35 199.65 357.4 199.8 357.6 200 357.85
L 200.05 357.9 199.3 355.85
Q 199.5990234375 356.544140625 200 357.5
L 200.15 357.9
Q 200.0892578125 357.7267578125 200 357.4 199.65 356.4 198.9 354.5 198.1 352.45 197.85 351.8 199.5 355.4 199.3 353.85 199.15 352.45 197.6 347.7 198.65 350.55 198.7 350.45 198.9 350.1 197.9 347.8 196.75 345 196.7 344.8 196.8 344.6 197.9 347.45 199.05 350.6 199.35 350.85 199.15 350.25 198.4 347.95 197.85 346.15 197.4 345.1 197.4 344.3 198.25 346.85 199.2 349.6 199.3 349.5
L 197.6 344.8
Q 198 345.65 198.25 345.9 198.45 346.05 198.6 346 198.8 345.9 198.85 345.9 199.05 345.95 199.35 346.45
L 200 347.45
Q 201.15 349.25 201.35 349.2 201.75 349.15 200.75 345.65 200.6 344.85 200 342.95
L 199.95 342.85
Q 199.65 341.9 199.3 340.95
L 198.85 339.7
Q 199.1 340.1 199.35 340.45
L 200 341.65 200 341.7 200.25 342.2 200 341.15 200 341.1 199.8 340.25 199.8 340.2
Q 199.75 339.8 199.75 339.55
L 200.3 339.1 200.35 339.1 200.35 339.05 201.7 337.55
Q 202.65 336.4 203.8 334.95
L 206.75 331.1
Q 210.75 325.85 215.65 319.2 209.2 319.3 203.75 319.45
L 200 319.55 200 319.5 198.5 319.55
Q 197.65 319.6 194 319.7
L 190.25 319.8 175.45 299.25 168.15 323.15 168.05 323.4 167.8 323.5 152.05 328.4 163.2 343.9 170.55 343.75 170.65 342.65 161.55 335.6
M 151.8 328.45
L 143.35 331.1 148.6 334.85
Q 142.05 340.95 136.85 345.85
L 131.55 350.95 131.3 351.3 130.85 351.3 123 349.65
Q 115.15 347.9 106.8 345.95
L 117.15 368.9 112.95 376.05
Q 108 384.4 104.7 390.25
L 104.65 390.35
Q 107.7 389.95 112.5 389.45
L 118.8 388.8 113 399.95 119.65 399.95
Q 120.75 397.9 121.3 397
L 122.15 399
Q 122.2 398.2 122.85 398.85 123.2 399.15 123.8 399.95
L 127.55 399.95 129.25 399.75 123.9 388.25 124.05 388.25
Q 125.4 388.1 126.3 387.95 127.45 387.75 128.2 387.55
L 128.1 387.25 124.4 387.7
Q 126 387.35 127.85 387.05
L 128 387.05 125.45 381.45 138.25 384.4 133 378.35 121.35 379.6 127.4 369.5 122.5 358.7 133.95 361.3 136.65 358.8 127.85 352.65 146.3 346.75 151.8 328.45
M 128.95 306.55
L 127.95 306.65
Q 126.4 306.85 123.1 307.3 123.8 306.85 122.55 306.65 122.05 306.6 121.2 306.55 120.35 306.5 119.55 306.45 118.35 306.4 117.65 306.35
L 117.55 305.05 117.25 306.25 117 306.2 117.35 304.85 116.25 305.35 116.2 305.6 116.3 305.6 115.85 305.7 114.7 311.95 129.25 310.05 133.35 314.55
Q 135.35 316.75 139.15 320.85 138.85 320.35 139.25 320.6 139.45 320.75 140.25 321.4 141.05 322.05 141.25 322.2 141.65 322.45 141.35 322 141.05 321.5 138.85 319.2 136.3 316.55 135.3 315.35 132.45 311.75 131.1 309.4
L 130.7 308.75 130.6 308.05
Q 130.5 307.5 130.4 307 130.3 306.85 130.2 306.6 130.2 306.5 129.6 306.5 129.3 306.5 128.95 306.55
M 15.8 376
Q 15.6 375.65 15.7 375.55 15.85 375.4 16.25 375.5 16.9 375.6 18.75 376.3
L 20.45 376.95 20 375.85 7.75 373.4 9.7 389.5 9.7 389.6 0 398.1 0 399.95 8.25 399.95 13.4 395.05
Q 13.9 394.55 14.35 394.15
L 16.35 392.15 15.55 387.45
Q 15.15 385.45 14.9 383.8
L 14.55 381.05
Q 14.45 380.35 14.3 378.95 14.2 377.6 13.95 374.85
L 15.8 376
M 9.1 364.95
L 6.55 363.45 6.95 366.85 9.1 364.95
M 0 360.75
Q 1.15 360.95 1.4 361 2 361.05 1.45 360.75 1.05 360.55 0 360.25
L 0 360.75
M 0 357.75
L 0 357.85 0.05 357.9 0 357.75
M 0 357.4
L 0 357.5 0.2 358.1 0.25 358.1
Q 0.2 357.95 0 357.4
M 0.8 345.65
Q 0.65 344.9 0 342.95
L 0 347.45
Q 1.15 349.25 1.4 349.2 1.75 349.15 0.8 345.65
M 0.25 342.2
L 0 341.15 0 341.7 0.25 342.2
M 3.75 319.45
L 0 319.55 0 339.35 0.35 339.1 0.4 339.05 1.7 337.55
Q 2.65 336.4 3.8 334.95
L 6.8 331.1
Q 10.75 325.85 15.7 319.2 9.25 319.3 3.75 319.45
M 37.15 376.8
L 37.05 376.95 41.95 377.9
Q 42.15 377.3 42.5 376.35
L 42.55 376.3 37.15 376.8
M 78.8 346.45
Q 79.2 345.15 79.35 344.45
L 79.25 344.5 78.95 344.5 78.5 344.55 78.45 344.65
Q 78.35 345 77.1 348.35 76.4 350.3 76.2 351.2
L 73.5 362.4 81.7 371.55 81.75 371.55 81.75 371.6 81.8 371.7 81.8 371.75 81.6 371.75
Q 81.65 371.8 81.75 371.95 81.85 372.1 81.8 372.15 81.75 372.2 81.65 372.2
L 80.75 372.25
Q 80.2 372.3 78.6 372.3 77.15 372.35 76.45 372.35 75.2 372.45 74.2 372.6
L 74.05 372.8
Q 74 372.9 73.95 372.9
L 69.4 373.2 63.2 383.75 63.15 383.75 63.15 383.85
Q 63.1 384.15 63 384.4
L 62.95 384.8 62.95 384.9
Q 62.9 384.85 62.8 384.55 62.7 384.2 62.65 384.05
L 62.55 383.9 62.5 383.9 62.45 383.95 62.45 383.9 62.4 383.85
Q 62.3 383.8 62.25 383.8 61.65 382.35 60.95 380.6
L 57.45 373.05 54.05 372.45 56.4 375.05 43.4 376.2 42.9 378.05 43.05 378.1
Q 42.8 378.75 42.4 380 42.6 379.2 42.9 378.05
L 43.35 376.2 43.3 376.25 42.95 376.25 42.55 376.3 41.95 377.9
Q 41.6 378.9 40.9 380.75 40.4 382.2 40.2 382.9
L 37.5 394.15 42.75 399.95 53.95 399.95 50.2 396.05
Q 48.95 394.8 47.8 393.7
L 46.25 392.3
Q 46 392.2 45.65 391.95 45.6 391.7 45.6 391.3
L 45.6 391.25
Q 45.6 391.2 45.6 391.15
L 45.85 389.25 45.15 391.1
Q 45 391.35 44.7 391.9
L 45.05 390.6
Q 45.35 389.15 45.5 388.6 45.9 386.6 45.95 385.8 46.6 381.7 46.05 382.25 45.8 382.45 45.35 383.4 45.05 383.95 44.45 385.1 44.2 385.65 44.05 385.75 44 385.75 43.75 385.7 43.6 385.6 43.45 385.8 43.25 386.1 42.9 386.95
L 44 382.15
Q 43.85625 382.4455078125 43.35 384.85 42.8 387.45 42.7 386.7 43 385.6 43.35 383.75 43.85 381.4 44 380.75 43.7 381.05 42.9 384.3 42.15 387.25 42 387.05 42.05 386.85 42.9 383.95 43.6 381.55 43.35 381.25 43.3 381.15 42.6 384.05 43.45 379.9 43.6 378.2
L 51.65 379.75 51.7 379.75 51.95 379.8 60.7 399.95 63.7 399.95 74.4 380.9 74.6 380.9
Q 74.65 380.9 74.7 380.9
L 84.9 380
Q 92.85 379.3 99.7 378.65 94.25 372.75 89.55 367.8
L 86.15 364.3
Q 84.9 363.05 83.75 361.95
L 82.25 360.55
Q 82 360.45 81.65 360.2 81.6 359.95 81.55 359.55
L 81.55 359.5
Q 81.55 359.45 81.6 359.4
L 81.8 357.5 81.15 359.35 80.7 360.15 81 358.85
Q 81.35 357.45 81.45 356.9 81.9 354.8 81.95 354.05 82.6 349.95 82 350.5 81.8 350.7 81.3 351.65 81.05 352.2 80.45 353.4 80.2 353.9 80.05 354 79.95 354 79.75 353.95 79.6 353.85 79.45 354.05 79.2 354.35 78.9 355.2
L 80 350.4
Q 79.85625 350.6955078125 79.35 353.1 78.75 355.75 78.65 354.95 79 353.9 79.35 352 79.8 349.7 79.95 349 79.7 349.3 78.9 352.55 78.15 355.5 78 355.35 78 355.1 78.85 352.2 79.6 349.8 79.35 349.5 79.3 349.4 78.6 352.3 79.6 347.45 79.6 346.05 79.6 344.45 78.35 348.25 78.5 347.6 78.8 346.45
M 51.8 344.25
Q 51.4 343.6 52.25 343.75 52.9 343.85 54.75 344.55
L 56.45 345.2 56 344.1 47.5 342.4 45.1 352.95 45.65 357.75 45.7 357.8 45.7 357.85 45.65 357.85 43.55 359.75 43.3 360.8 47.35 365.2 49.4 363.3
Q 49.9 362.8 50.35 362.4
L 52.35 360.4 51.5 355.7
Q 51.2 353.85 50.9 352.05
L 50.3 347.2
Q 50.05 344.35 49.9 343.1
L 51.8 344.25
M 43.95 343.55
L 46.8 342.25 43.75 341.65 43.95 343.55
M 45.1 333.2
L 42.55 331.7 42.95 335.1 45.1 333.2
M 57.4 320.3
L 46.9 315.55 37.35 321.35 37 327.2 27.9 319.35 27.5 323.5
Q 26.75 330.65 26.05 338.3 33.05 333.9 38.6 330.35
L 42.65 327.65
Q 44.4 326.5 45.4 325.75
L 47 324.55 47.05 324.5
Q 47.3 324.2 47.5 324 47.75 324 48.2 324.05
L 48.3 324.05 50.15 324.65 48.45 323.65 47.75 323.05 51.25 324.6
Q 52.85 325.25 53.55 325.45 57.45 326.85 57 326.15 56.8 325.9 56 325.25 54.95 324.45 54.45 324.05 54 323.75 53.95 323.55 53.95 323.5 54.05 323.3 54.15 323.15 54 322.95 53.75 322.7 52.95 322.2
L 57.45 324.2
Q 57.169921875 324.01328125 54.95 323.05 52.45 322 53.25 322.05 54.25 322.55 56 323.25 58.2 324.15 58.85 324.4 58.6 324.1 55.55 322.7 52.8 321.4 53 321.3 53.25 321.4 55.9 322.75 58.15 323.9 58.45 323.75 58.55 323.7 55.85 322.45 60.45 324.35 61.85 324.6 63.4 324.9 59.9 323 60.45 323.25 62.9 324.4 64.9 325.4 66 325.85
L 66 325.8
Q 65.55 325.6 64.3 325
L 65.8 325.65
Q 65.6 325.45 65.35 325.2 64.35 324.7 63.6 324.3
L 65.05 325
Q 64.35 324.4 63.45 323.8 63.1 323.6 60.05 321.75 58.2 320.65 57.4 320.3
M 66.65 303.85
Q 64.45 306.3 63.4 307.5
L 62.35 308.85
Q 62 309.3 62.05 309.4 62.2 309.55 62.3 309.75 62.55 310 63.05 310.5
L 63.55 311 63.9 311.65
Q 64.75 313.5 65.8 316.45 66.01875 317.10625 66.2 317.85 66.0107421875 317.1453125 65.75 316.45
L 64.6 317.4 65.95 318.25 66.3 318.1 66.45 318.5
Q 66.9 320 67.65 323.6 68.35 326.7 68.55 327.2 68.75 327.75 68.8 327.3 68.8 327 68.7 326 68.6 325 68.6 324.7 68.6 324.25 68.85 324.8 68.1 321.5 67.15 317.7
L 80.85 311.4 85.2 303.9 82.25 302.6 82.25 303.2 66.7 315.7 65.45 310.55 75.2 299.5 69.35 296.95 68.8 297.6
Q 69.5 297.35 69.2 298.2 69 298.75 67.95 300.5
L 67.05 301.9
Q 66.65 302.65 66.4 303.1 65.9 304.2 66.65 303.85
M 67.4 288.15
Q 69.85 290.5 73 293.5
L 74.05 284.7 67.4 288.15
M 42.65 268.9
L 43.75 267.7 43.35 267.1 42.65 268.9
M 0 281.05
L 3.5 272.6 0 267.2 0 281.05
M 12.15 283.25
L 12.3 282.95
Q 9.35 280.45 8.7 279.8 8.2 279.9 8.2 279.85
L 8.25 279.5
Q 7.45 279.65 5.9 280.1 4.1 280.55 3.3 280.8
L 2.15 281.1
Q 1.9 281.15 1.65 281.2 1.2302734375 281.293359375 1.2 281.2
L 1.25 281.5 0 281.8 0 294.05 5.35 293 5.4 293.05
Q 5.55 293.15 5.55 293.3
L 5.6 293.3 5.6 293.5 6.2 294 0.6 285.35 15.9 286.6 15.9 286.3
Q 15.7 286.35 15.3 285.95
L 14.4 285.1
Q 13.7 284.5 13.55 284.4
L 12.15 283.25
M 0 259.9
L 0 263.35 7.05 263.85 11.75 258 8.4 257.85 5.8 260.9 1.65 260.5 1.65 260.05 0 259.9
M 1.85 259.3
Q 3.4 259.35 5.2 259.45
L 6.55 257.75 1.25 257.45 0 259.05 0 259.25 1.85 259.3
M 13.65 247.85
L 13.45 248.1 13.65 248.35 13.65 247.85
M 34.95 245.2
Q 33.5 242.35 33.15 241.9 32.8 241.45 32.9 241.9 32.95 242.2 33.3 243.15 33.65 244.1 33.75 244.35 33.85 244.8 33.5 244.35 35.2 247.5 37.55 251.9
L 40.4 257.2 34.25 269.65 32.7 270.2
Q 31.4 270.75 30.8 271 28.4 270 26.65 269.3 25 268.65 23.3 268.05 23.35 267.95 23.35 267.9 23.35 267.8 23.25 267.7 22.8 267.35 21.4 266.8
L 18 265.45 16.35 258.25 15.35 258.2 17.2 266.15 30.3 271.2
Q 27.25 272.5 25.35 273.45 24.4 273.9 24.15 273.9 24 273.85 24.05 273.7 24.1 273.6 24.45 273.05 24.8 272.55 24.7 272.45 24.2 272.8 23.7 273.05
L 21.65 274.3
Q 21 274.65 19.75 275.3 18.65 275.95 17.85 276.4 17.7 278.25 17.65 280 17.6 280 17.55 280.65
L 17.15 284.95 17.15 285.15
Q 17 285.9 16.95 286.4
L 17 286.7 19.9 286.95 32.2 271.95 32.65 273.95 34.25 272.7
Q 37.45 273.9 37.8 274 36.2 273.35 34.45 272.55
L 36.65 270.8 40.15 271.35 40.55 270.55
Q 39.95 271 40 270.15 40.1 269.5 40.65 267.6
L 41.1 266
Q 41.35 265.15 41.45 264.7 41.55 264.1 41.45 263.9 41.35 263.7 41 264 42.45 261.2 43.2 259.6
L 43.65 258.65
Q 43.8 258.3 43.9 258.1 44.1 257.55 44 257.5 43.85 257.35 43.7 257.15 43.25 256.95 42.8 256.65
L 42.15 256.3 42.05 256.2
Q 41.7 255.8 41.65 255.75 39.9 253.65 37.4 249.8 36.6 248.45 34.95 245.2
M 0 229.3
L 4.3 228.05 0 221.7 0 229.3
M 13.8 241.95
Q 12.6 243.2 11.15 244.7
L 13.3 247.8 17.2 243.05 19.65 253.4
Q 19.75 253.3 19.75 253.1 19.8 252.8 19.65 252.05
L 21.95 262.05 25.55 263.4
Q 27.7 264.2 29.2 264.7 29.7 264.8 29.75 264.7 29.8 264.6 29.35 264.3 28.25 263.6 25.5 262.4
L 22.75 261.35 21.05 254.2 21.35 254.05 22.6 259.75
Q 22.8 260.45 22.95 261.2 23.95 261.55 24.6 261.75 24.95 261.8 24.75 261.65 24.7 261.6 24.3 261.3 23.9 261.05 23.85 260.95 23.7 260.8 24.05 260.9 24.95 261.25 25.35 261.4
L 26.15 261.65
Q 26.75 261.85 27.2 261.95 25.85 261.45 23.6 260.6
L 22.2 254.65
Q 21.85 253.15 21.6 251.75 21.25 249.6 21.15 248.9 21 247.5 21.15 247.25 19.8 241.95 18.7 236.55 16.25 239.4 13.8 241.95
M 45.8 240.55
Q 46.35 240.8 47.55 241.3 48.1 241.5 48.2 241.7 48.25 241.75 48.15 241.95 48.1 242.15 48.3 242.25 48.6 242.45 49.5 242.7
L 44.6 241.95
Q 44.5 242.05 47.35 242.45 50.05 242.8 49.25 242.95 48.2 242.75 46.3 242.5 43.95 242.2 43.25 242.1 43.55 242.35 46.85 242.9 49.85 243.45 49.7 243.6 49.45 243.6 46.5 242.95 44.05 242.45 43.8 242.65 43.7 242.75 46.65 243.25 41.75 242.6 40.3 242.7 38.75 242.8 42.6 243.75 42 243.65 39.35 243.15 37.1947265625 242.758203125 36 242.6 36.45 242.7 37.85 242.95 38.85 243.15 39.35 243.25
L 36.2 242.75
Q 36.55 242.9 36.8 243.05 37.9 243.25 38.75 243.45
L 37.1 243.15
Q 37.85 243.5 39 243.9 39.25 244 42.8 245 44.8 245.55 45.7 245.7
L 57.05 247.6 65.6 238.7 65.7 238.65
Q 65.75 238.6 65.8 238.6
L 65.8 238.8 66 238.65
Q 66.15 238.55 66.2 238.6 66.25 238.65 66.25 238.7
L 66.35 239.65
Q 66.45 240.2 66.6 241.75 66.7 243.15 66.8 243.9 66.95 245.1 67.2 246.15
L 67.4 246.25
Q 67.5 246.3 67.5 246.35
L 68.1 250.85 79.1 256.3 79.25 256.3
Q 79.45 256.35 79.8 256.4
L 79.8 256.45 79.85 256.4
Q 80.1 256.4 80.2 256.4 80.3 256.4 80.3 256.45 80.25 256.5 79.95 256.65 79.6 256.75 79.45 256.8
L 79.35 256.9 79.35 257 79.3 257.05
Q 79.25 257.15 79.25 257.25 77.95 257.85 76.15 258.75
L 68.9 262.8 67.85 274.65
Q 67.85 274.7 67.85 274.8
L 67.85 276.2
Q 67.85 277.1 67.8 278.45 66.75 277.7 65.2 276.45
L 59.75 271.55
Q 59 270.9 58.9 270.8
L 56.65 268.8 55.55 269.1 56.75 276.35 74.05 284.45 76 268.05 76 267.8 98.4 256.05 75.45 245.3 73.8 234.9
Q 72.45 226.65 71.35 220.2 65.7 226.3 61.3 231.15
L 58.05 234.8
Q 56.85 236.15 55.85 237.35
L 54.65 238.95 54.6 238.95 54.6 239
Q 54.5 239.25 54.3 239.6 53.95 239.7 53.65 239.7
L 53.6 239.75
Q 53.55 239.75 53.5 239.75
L 51.55 239.65 53.5 240.15 54.3 240.55 53 240.35
Q 51.95 240.15 51 240.05 48.9 239.75 48.1 239.75 44 239.4 44.6 239.95 44.8 240.15 45.8 240.55
M 121.1 284.8
L 119.25 280.35
Q 118.55 278.35 118.2 277.25 119.35 277.6 120.35 277.95
L 121.65 278.4
Q 121.7 278.4 121.8 278.45
L 133.35 281.35 139.55 275.85
Q 140.9 274.5 142.05 273.4 142.1 273.4 142.2 273.4
L 142.35 273.4 142.5 273.35 142.85 272.95
Q 143.05 272.7 143.15 272.7
L 143.1 272.8
Q 143.05 273 143 273.1
L 142.95 273.15
Q 142.95 273.55 142.9 273.7
L 142.9 273.85 144.4 286 148.45 288.1
Q 148.5 288.1 148.5 288.2
L 148.55 288.45
Q 149.45 289 150.5 289.55 151.15 289.85 152.45 290.45 153.7 291 154.4 291.35
L 155.25 291.8
Q 155.3 291.8 155.35 291.85 155.35 291.9 155.25 292
L 155 292.2 155.2 292.25 155.05 292.4 143.85 297.5 141.85 308.9
Q 141.7 309.75 141.6 311.85 141.4 315.55 141.35 315.8 141.35 316.85 141.45 317.85
L 141.65 316.55
Q 141.565625 317.313671875 141.45 318.2 141.5 318.5 141.55 318.8
L 142.05 316.05
Q 141.975 316.525 141.9 317.2 141.7 318.6 141.6 319.05
L 141.6 319.1
Q 141.85 317.95 142.2 315.75 142.6 313.05 142.7 312.45 142.35 316.4 142.95 314.95 143.5 313.65 144.55 308.8 144 311.75 144.1 311.7 144.45 311.5 144.75 309 145.1 306 145.15 305.8 145.4 305.7 144.9 308.7 144.35 312 144.45 312.35 144.6 311.75 145.1 309.4 145.5 307.5 145.65 306.45 146.05 305.75 145.5 308.4 144.95 311.25 145.1 311.15
L 145.95 306.25
Q 145.9 307.2 146 307.55 146.05 307.75 146.25 307.8 146.45 307.8 146.5 307.85 146.65 307.95 146.65 308.55 146.7 309.4 146.8 311.05 146.9 312.2 147.2 311.85 147.55 311.45 148.3 308.55 148.55 307.8 148.95 305.75 149.1 305.15 149.35 303.75
L 149.6 302.45 149.65 303.35 149.55 305.35 150.1 303.4 150.15 303.35
Q 150.3 303 150.45 302.75 150.85 302.7 151.15 302.65
L 151.2 302.65 153.1 302
Q 154.55 301.45 156.25 300.8
L 160.75 298.95
Q 167.15 296.2 174.4 293 167.1 289.05 161.35 285.9
L 152.05 280.9 149.45 255.7 131 273 114.6 269.35 116.6 288.35 123.05 291.9 123.65 290.95 122.85 288.9 123.05 289.4
Q 123.85 286.25 124.65 283.45 122.8 284.15 121.1 284.8
M 89.85 295.85
L 84.15 283.8 82.3 285.85 86.3 302 89.85 295.85
M 114.4 269.3
L 105.7 267.35
Q 107.75 271.7 108.95 274.4
L 114.4 269.3
M 128.45 206.5
L 128.7 207.05 128.8 206.85 128.45 206.5
M 143.75 176.1
L 143.7 176.1 141.9 185.25 142.9 185.45
Q 143.25 183.85 143.5 182.75
L 143.7 181.85 143.75 176.1
M 154.3 176.3
Q 154.5 176.25 154.75 176.2
L 158.6 172.7 158.75 174.75 159.55 174.45
Q 160.25 174.15 161.65 173.6 162.8 173.1 163.55 172.85
L 159.1 171.35 154.1 175.2 153.65 175.95
Q 153.55 176.35 154.3 176.3
M 115.95 116.25
L 116.3 115.95
Q 115.25 114.75 114.35 113.7
L 114.25 114.3 115.95 116.25
M 103.15 121.95
Q 102.75 122.55 102.15 123.5
L 100.7 125.75
Q 100.2 126.35 99.95 126.8
L 99.9 127.05
Q 99.75 127.4 99.55 127.75
L 99.45 127.6
Q 99.4 127.4 99.35 127.55 99.35 127.6 99.3 127.8
L 99.35 127.35
Q 99.25 127.5 99.1 127.05 99.05 126.8 99 126.7 98.95 126.55 98.9 126.5
L 99.1 126.2
Q 98.85 126.1 98.7 125.6
L 98.65 125.4 97.15 121.7 97.4 121.55
Q 96 117.9 95.7 117.1 95.25 116.95 95.25 116.9
L 95.5 116.6
Q 94.65 116.4 93.1 116.05 92.95 116 90.45 115.45
L 88.85 115.05
Q 88.4 114.95 88.4 114.85
L 88.35 115.15 86.9 114.8
Q 86.75 114.7 86.7 114.65 86.5 114.55 86.6 114.4 87.1 114.2 87.3 114.2
L 87.3 114.25 90.95 111.25 83.1 112.25 80.1 125.35 86.6 127.2 86.65 127.25
Q 86.7 127.45 86.65 127.6
L 86.65 127.7 86.6 127.75 90 136.65
Q 93.3 145.2 97.3 155.2 101.55 148.05 106.45 139.8
L 112.25 129.85 112.25 129.75 112.2 129.6
Q 112.2 129.4 112.35 129.15
L 112.4 129.1 112.4 129.05 113.25 128.85 103.45 126.6 109.55 121.5 106.7 118.3 105.35 118.35
Q 104.4 119.9 103.55 121.4 103.5 121.4 103.15 121.95
M 146.3 146.8
L 151.8 128.5 143.35 131.15 148.6 134.85
Q 143.05 140.05 136.85 145.9
L 131.55 151 131.3 151.35 130.85 151.35 123 149.65
Q 115.15 147.9 106.8 145.95
L 117.15 168.95 112.95 176.1
Q 108.1 184.3 104.7 190.3
L 104.65 190.35
Q 107.7 189.95 112.5 189.45
L 118.8 188.85 109.5 206.75 109.5 206.8 109.45 206.85 96.65 208.4
Q 93.15 208.95 84.05 210.1
L 102.3 228.5 97.55 253.3 120.2 242.05 129.45 247.2
Q 136.7 251.3 142.4 254.45 141.2 246.45 140.1 239.75
L 139.3 234.95
Q 138.95 233.25 138.65 231.65
L 138.35 230.5 132.45 233.45 134.75 221.8 129.9 226.2 131.55 238.4 131.55 238.5 131.5 238.55
Q 131.5 238.6 131.5 238.65
L 131.35 238.5 131.3 238.8
Q 131.3 238.95 131.25 238.95 131.2 238.95 131.15 238.95 131.05 238.9 130.8 238.75
L 130.35 238.45
Q 129.65 238.05 128.5 237.3 127.3 236.5 126.7 236.15 125.65 235.5 124.75 235.05
L 124.4 235.2 120.45 232.85 109.35 238.1 109.3 238.1 109.25 238.15
Q 109.15 238.3 108.85 238.5
L 108.8 238.55
Q 108.7 238.7 108.6 238.8 108.55 238.9 108.5 238.9 108.45 238.8 108.55 238.5 108.7 238.15 108.75 238
L 108.7 237.85 108.65 237.8 108.65 237.7
Q 108.6 237.65 108.55 237.55 108.9 235.95 109.25 234.2
L 110.6 226 102 217.8
Q 101.95 217.75 101.85 217.7
L 100.8 216.85
Q 100.25 216.4 99.05 215.4 100.15 215.1 102.2 214.6
L 109.45 213.4
Q 110.3 213.25 110.75 213.2
L 113.55 212.7 115.5 208.35
Q 116.3 206.5 117.05 204.95
L 118.3 202.5
Q 118.7 201.75 119.3 200.6
L 119.65 200
Q 120.75 197.95 121.3 197
L 122.15 199
Q 122.2 198.25 122.85 198.85 123.2 199.2 123.8 200
L 124.1 200.4 129.25 199.8 123.9 188.3 124.05 188.25
Q 125.4 188.1 126.3 187.95 127.45 187.75 128.2 187.55
L 128.1 187.3 124.4 187.7
Q 126 187.35 127.85 187.05
L 128 187.05 125.45 181.45 138.25 184.4 133 178.35 121.35 179.65 121.25 179.65
Q 121.25 179.6 121.35 179.6
L 121.35 179.65 127.4 169.5 122.5 158.7 133.95 161.3 136.65 158.8 127.85 152.7 146.3 146.8
M 123.3 106.9
Q 123.15 106.75 122.55 106.7 122.05 106.6 121.2 106.55
L 119.55 106.5
Q 118.35 106.45 117.65 106.35
L 117.55 105.1 117.25 106.3 117 106.25 117.35 104.85 116.25 105.35 116.2 105.65 116.3 105.65 115.85 105.7 114.7 111.95 129.3 110.1 133.35 114.55
Q 135.95 117.4 139.15 120.9 138.85 120.4 139.25 120.65 139.45 120.8 140.25 121.45 141.05 122.1 141.25 122.25 141.65 122.5 141.35 122 141.05 121.55 138.85 119.25 136.3 116.6 135.3 115.35 132.45 111.75 131.1 109.4
L 130.7 108.75 130.6 108.05
Q 130.5 107.55 130.4 107.05 130.3 106.85 130.2 106.6 130.2 106.5 129.6 106.55 129.3 106.55 128.95 106.55
L 127.95 106.7
Q 126.65 106.8 123.1 107.3 123.45 107.05 123.3 106.9
M 6.55 163.45
L 6.95 166.85 9.1 165 6.55 163.45
M 0 157.8
L 0 157.85 0.05 157.9 0 157.8
M 0 160.25
L 0 160.8
Q 1.15 161 1.4 161 2 161.05 1.45 160.75 1.05 160.6 0 160.25
M 0 157.4
L 0 157.55 0.2 158.1 0.25 158.15
Q 0.2 157.95 0 157.4
M 0.8 145.65
Q 0.65 144.95 0 142.95
L 0 147.45
Q 1.15 149.25 1.4 149.25 1.75 149.15 0.8 145.65
M 0 141.7
L 0.25 142.25 0 141.15 0 141.7
M 3.75 119.45
L 0 119.55 0 139.4 0.35 139.15 0.35 139.1 0.4 139.1 1.7 137.6
Q 2.65 136.4 3.8 135
L 6.8 131.15
Q 10.75 125.85 15.7 119.2 9.25 119.3 3.75 119.45
M 78.8 146.45
Q 79.2 145.15 79.35 144.5
L 79.25 144.5 78.95 144.55 78.5 144.55 78.45 144.65
Q 78.35 145.05 77.1 148.35 76.4 150.35 76.2 151.2
L 73.5 162.4 81.7 171.55 81.75 171.55 81.75 171.65 81.8 171.7 81.8 171.75 81.6 171.75
Q 81.65 171.8 81.75 172 81.85 172.1 81.8 172.15 81.75 172.2 81.65 172.2
L 80.75 172.25
Q 80.2 172.3 78.6 172.35 77.15 172.35 76.45 172.4 75.2 172.45 74.2 172.6
L 74.05 172.85
Q 74 172.9 73.95 172.9
L 69.4 173.2 63.2 183.75 63.15 183.8 63.15 183.9
Q 63.1 184.15 63 184.4
L 62.95 184.8 62.95 184.9
Q 62.9 184.9 62.8 184.55 62.7 184.2 62.65 184.05
L 62.55 183.95 62.45 183.95 62.45 183.9 62.4 183.9
Q 62.3 183.85 62.25 183.8 61.65 182.35 60.95 180.6
L 57.45 173.05 54.05 172.5 56.4 175.05 43.4 176.25 42.9 178.1 43.05 178.1
Q 42.8 178.8 42.4 180 42.6 179.2 42.9 178.1
L 43.35 176.25 42.95 176.25 42.55 176.3 42.2 177.25
Q 42.325 176.875 42.5 176.4
L 42.55 176.3 37.15 176.8 37.05 176.95 41.95 177.9
Q 41.6 178.95 40.9 180.75 40.4 182.2 40.2 182.95
L 37.5 194.15 45.8 203.35 45.8 203.5 45.65 203.5 45.75 203.75
Q 45.85 203.85 45.8 203.9 45.75 203.95 45.7 203.95
L 44.75 204
Q 44 204.05 42.6 204.05 41.2 204.1 40.45 204.15 39.25 204.2 38.2 204.35
L 38.05 204.55 38 204.65
Q 35.95 204.8 33.4 204.95
L 27.2 215.5 27.2 215.55 27.15 215.6
Q 27.15 215.8 27 216.15
L 27 216.55
Q 27 216.65 26.95 216.65 26.9 216.65 26.8 216.3 26.7 215.95 26.65 215.8
L 26.55 215.7 26.5 215.7 26.4 215.6
Q 26.35 215.6 26.25 215.55 25.7 214.25 24.95 212.35
L 21.45 204.8 9.7 202.9
Q 9.6 202.9 9.55 202.9
L 8.15 202.8
Q 7.2 202.7 5.95 202.55 6.7 201.65 8.1 200.15
L 8.25 200 8.25 199.95 13.4 195.05
Q 13.9 194.55 14.35 194.15
L 16.35 192.15 15.55 187.5
Q 15.15 185.5 14.9 183.8
L 14.55 181.1
Q 14.45 180.4 14.3 178.95 14.2 177.65 13.95 174.85
L 15.8 176
Q 15.6 175.65 15.7 175.55 15.85 175.4 16.25 175.5 16.9 175.6 18.75 176.3
L 20.45 176.95 20 175.9 7.75 173.4 9.7 189.55 9.7 189.65 0 198.15 0 208.5 15.7 211.5 15.75 211.5 15.95 211.55 26 234.75 38.4 212.65 48.95 211.75
Q 56.85 211.05 63.75 210.4 58.55 204.8 53.95 200
L 50.2 196.05
Q 48.95 194.8 47.8 193.7
L 46.3 192.35 46.25 192.35
Q 46 192.2 45.65 192 45.6 191.7 45.6 191.3
L 45.6 191.25
Q 45.6 191.2 45.6 191.15
L 45.85 189.25 45.15 191.1
Q 45 191.4 44.7 191.95
L 45.05 190.65
Q 45.35 189.2 45.5 188.65 45.9 186.65 45.95 185.8 46.6 181.7 46.05 182.25 45.8 182.45 45.35 183.4 45.05 183.95 44.45 185.15 44.2 185.7 44.05 185.75 44 185.8 43.75 185.7 43.6 185.65 43.45 185.8 43.25 186.1 42.9 187
L 44.05 182.15
Q 43.95 182 43.35 184.85 42.8 187.5 42.7 186.7 43 185.65 43.35 183.75 43.85 181.45 44 180.8 43.7 181.05 42.9 184.3 42.15 187.3 42 187.1 42.05 186.85 42.9 183.95 43.6 181.55 43.35 181.25 43.3 181.2 42.6 184.1 43.45 179.9 43.6 178.2
L 51.65 179.75 51.7 179.75 51.95 179.8 52.1 180.05 62 203 74.4 180.9 74.6 180.9
Q 74.65 180.9 74.7 180.9
L 84.9 180
Q 92.85 179.3 99.7 178.65 94.25 172.75 89.55 167.8
L 86.15 164.3
Q 84.9 163.05 83.75 161.95
L 82.25 160.6
Q 82 160.45 81.65 160.25 81.6 159.95 81.55 159.55
L 81.55 159.5
Q 81.55 159.45 81.6 159.45
L 81.8 157.5 81.15 159.4
Q 81 159.65 80.7 160.2
L 81 158.9
Q 81.35 157.45 81.45 156.9 81.9 154.85 81.95 154.05 82.6 149.95 82 150.55 81.8 150.75 81.3 151.65 81.05 152.2 80.45 153.4 80.2 153.95 80.05 154 79.95 154.05 79.75 153.95 79.6 153.9 79.45 154.1 79.2 154.35 78.9 155.25
L 80.05 150.4
Q 79.95 150.25 79.35 153.1 78.75 155.75 78.65 154.95 79 153.9 79.35 152.05 79.8 149.7 79.95 149.05 79.7 149.35 78.9 152.55 78.15 155.55 78 155.35 78 155.1 78.85 152.2 79.6 149.8 79.35 149.55 79.3 149.45 78.6 152.35 79.6 147.5 79.6 146.05 79.6 144.5 78.35 148.3 78.5 147.6 78.8 146.45
M 50.3 147.2
Q 50.05 144.4 49.9 143.1
L 51.8 144.25
Q 51.4 143.6 52.25 143.75 52.9 143.85 54.75 144.55
L 56.45 145.2 56 144.15 47.5 142.45 45.1 152.95 45.65 157.8 45.7 157.8 45.7 157.85 45.65 157.9 43.55 159.75 43.3 160.8 47.35 165.25 49.4 163.3
Q 49.9 162.85 50.35 162.4
L 52.35 160.4 51.5 155.75
Q 51.2 153.95 50.9 152.05
L 50.3 147.2
M 43.75 141.7
L 43.95 143.6 46.8 142.3 43.75 141.7
M 45.1 133.25
L 42.55 131.7 42.95 135.15 45.1 133.25
M 47.75 123.1
L 48.95 123.65
Q 50.15 124.15 50.85 124.45
L 51.25 124.6
Q 52.85 125.25 53.55 125.45 57.45 126.85 57 126.2 56.8 125.95 56 125.3 54.95 124.5 54.45 124.1 54 123.75 53.95 123.55 53.95 123.5 54.05 123.3 54.15 123.15 54 122.95 53.75 122.7 52.95 122.25
L 57.5 124.25
Q 57.6 124.2 54.95 123.05 52.45 122 53.25 122.05 54.25 122.55 56 123.25 58.2 124.15 58.85 124.45 58.6 124.1 55.55 122.75 52.8 121.45 53 121.3 53.25 121.4 55.9 122.75 58.15 123.9 58.45 123.75 58.55 123.7 55.85 122.5 60.45 124.35 61.85 124.65 63.4 124.95 59.9 123 60.45 123.25 62.9 124.45 64.9 125.4 66 125.85 65.55 125.65 64.3 125 63.4 124.6 62.9 124.35
L 65.8 125.65
Q 65.6 125.45 65.35 125.2 64.4673828125 124.7587890625 63.75 124.4
L 65.05 125
Q 64.35 124.4 63.45 123.8 63.05 123.6 60.05 121.75 58.2 120.7 57.4 120.3
L 46.9 115.55 37.35 121.4 37 127.2 27.9 119.35 27.5 123.55
Q 26.75 130.65 26.05 138.3 33.05 133.9 38.6 130.35
L 42.65 127.7
Q 44.4 126.5 45.4 125.75
L 47 124.55 47.05 124.5
Q 47.3 124.25 47.5 124 47.8 124 48.2 124.05
L 48.25 124.05 48.3 124.1 50.15 124.7 48.45 123.65 47.75 123.1
M 67.4 88.15
Q 69.65 90.3 73 93.55
L 74.05 84.7 67.4 88.15
M 65.75 116.45
L 64.6 117.45 65.95 118.25 66.3 118.1
Q 66 117.2 65.75 116.45
M 68.8 97.65
Q 69.5 97.4 69.2 98.2 69 98.8 67.95 100.5
L 67.05 101.9
Q 66.65 102.65 66.4 103.1 65.9 104.2 66.65 103.9 64.45 106.35 63.4 107.55
L 62.35 108.85
Q 62 109.3 62.05 109.4 62.2 109.55 62.3 109.8 62.55 110 63.05 110.5
L 63.55 111 63.9 111.65
Q 64.75 113.55 65.8 116.45 66.05 117.2 66.3 118.1
L 66.45 118.5
Q 66.9 120.05 67.65 123.6 68.35 126.75 68.55 127.25 68.75 127.75 68.8 127.3 68.8 127.05 68.7 126 68.6 125 68.6 124.7 68.6 124.25 68.85 124.8 68.1 121.55 67.15 117.7
L 80.85 111.4 85.2 103.9 82.25 102.6 82.25 103.2 66.7 115.75 66.7 115.7 65.45 110.55 75.2 99.55 69.35 97 68.8 97.65
M 43.75 67.75
L 43.35 67.1 42.65 68.9 43.75 67.75
M 14.35 85.1
Q 14 84.75 13.55 84.45
L 12.15 83.25 12.3 83
Q 9.4 80.5 8.7 79.8 8.2 79.9 8.2 79.85
L 8.25 79.5
Q 7.4 79.7 5.9 80.1 5.3 80.25 3.3 80.8
L 1.65 81.25
Q 1.2306640625 81.2966796875 1.2 81.2
L 1.25 81.5 0 81.85 0 94.1
Q 1 93.85 2.7 93.45
L 5.35 93 5.4 93.05
Q 5.55 93.15 5.55 93.3
L 5.6 93.3 5.6 93.5 6.2 94.05 0.6 85.35 15.9 86.6 15.9 86.3
Q 15.7 86.35 15.3 85.95
L 14.35 85.1
M 3.5 72.65
L 0 67.2 0 81.05 3.5 72.65
M 1.65 60.05
L 0 59.9 0 63.35 7.05 63.85 11.75 58.05 8.4 57.85 5.8 60.9 1.65 60.5 1.65 60.05
M 1.25 57.45
L 0 59.05 0 59.3 1.85 59.3
Q 3.4 59.35 5.2 59.5
L 6.55 57.75 1.25 57.45
M 32.9 41.9
Q 32.95 42.2 33.3 43.15 33.65 44.1 33.75 44.4 33.85 44.85 33.5 44.35 35.35 47.85 37.55 51.9
L 40.45 57.25 34.25 69.65 32.7 70.25
Q 31.4 70.75 30.8 71 28.4 70 26.65 69.3 24.9 68.65 23.3 68.05 23.35 67.95 23.35 67.9 23.35 67.85 23.25 67.75 22.8 67.4 21.4 66.85
L 18 65.5 16.35 58.3 15.35 58.25 17.2 66.2 30.3 71.25
Q 27.25 72.55 25.35 73.5 24.4 73.9 24.15 73.9 24 73.9 24.05 73.7 24.1 73.6 24.45 73.05 24.8 72.6 24.7 72.45 24.2 72.8 23.7 73.1
L 21.65 74.3
Q 21 74.65 19.75 75.35 18.65 75.95 17.85 76.45 17.7 78.25 17.65 80 17.6 80 17.55 80.65
L 17.15 85 17.15 85.15
Q 17 85.9 16.95 86.45
L 17 86.7 19.9 86.95 32.2 71.95 32.65 74 34.25 72.7
Q 37.45 73.9 37.8 74 37.2 73.8 34.45 72.6
L 36.65 70.85 40.15 71.35 40.55 70.6
Q 39.95 71.05 40 70.15 40.1 69.5 40.65 67.6
L 41.1 66
Q 41.35 65.15 41.45 64.7 41.55 64.1 41.45 63.95 41.35 63.75 41 64 42.45 61.2 43.2 59.65
L 43.65 58.7
Q 43.8 58.35 43.9 58.1 44.1 57.55 44 57.5 43.85 57.35 43.7 57.15 43.25 56.95 42.8 56.7
L 42.15 56.3 42.05 56.2
Q 41.7 55.8 41.65 55.75 39.9 53.7 37.4 49.8 36.6 48.45 34.95 45.2 33.5 42.35 33.15 41.95 32.8 41.45 32.9 41.9
M 0 29.35
L 4.3 28.05 0 21.75 0 29.35
M 13.45 48.1
L 13.65 48.4 13.65 47.85 13.45 48.1
M 18.7 36.6
Q 16.25 39.4 13.8 42 12.6 43.25 11.15 44.7
L 13.3 47.85 17.2 43.05 19.65 53.4
Q 19.75 53.3 19.75 53.1 19.8 52.8 19.65 52.05
L 21.95 62.05 25.55 63.4
Q 27.7 64.2 29.2 64.7 29.7 64.85 29.75 64.75 29.8 64.65 29.35 64.35 28.25 63.6 25.5 62.45
L 22.75 61.35 21.05 54.25 21.35 54.05 22.6 59.75
Q 22.8 60.5 22.95 61.2 23.9 61.55 24.6 61.75 24.95 61.85 24.75 61.7 24.7 61.6 24.3 61.3 23.9 61.05 23.85 60.95 23.7 60.85 24.05 60.9 24.95 61.25 25.35 61.4
L 26.15 61.65
Q 26.75 61.85 27.2 61.95 25.85 61.45 23.6 60.6
L 22.2 54.65
Q 21.85 53.15 21.6 51.8 21.25 49.65 21.15 48.9 21 47.55 21.15 47.3 19.8 41.95 18.7 36.6
M 49.25 43
Q 48.15 42.75 46.3 42.5 43.9 42.2 43.25 42.1 43.55 42.35 46.85 42.95 49.85 43.45 49.7 43.65 49.45 43.6 46.5 43 44.05 42.45 43.8 42.7 43.75 42.75 44.8 42.95 45.175 43.025 46 43.15 41.6556640625 42.6064453125 40.3 42.7 38.75 42.8 42.6 43.8 42 43.7 39.35 43.15 37.15 42.75 35.95 42.6
L 36 42.65
Q 36.45 42.7 37.85 43 38.85 43.15 39.35 43.25
L 36.2 42.75
Q 36.5 42.9 36.8 43.05 37.73359375 43.272265625 38.6 43.4
L 37.1 43.2
Q 37.95 43.55 39 43.95 39.25 44 42.8 45 44.8 45.6 45.7 45.75
L 57.05 47.6 65.6 38.7 65.65 38.7 65.8 38.65 65.8 38.8
Q 65.85 38.75 66 38.65 66.15 38.6 66.2 38.6 66.25 38.65 66.25 38.75
L 66.35 39.65
Q 66.45 40.5 66.6 41.8 66.7 43.15 66.8 43.95 66.95 45.15 67.2 46.15
L 67.4 46.3 67.5 46.35 68.1 50.9 79.1 56.3 79.25 56.3
Q 79.45 56.35 79.8 56.45
L 79.85 56.45
Q 80.1 56.45 80.2 56.45
L 80.3 56.45
Q 80.25 56.5 79.95 56.65 79.6 56.75 79.45 56.85
L 79.35 56.95 79.35 57.05 79.3 57.1
Q 79.25 57.15 79.25 57.25 77.95 57.9 76.15 58.8
L 68.9 62.85 67.85 74.65
Q 67.85 74.75 67.85 74.85
L 67.85 76.25
Q 67.8 77.2 67.8 78.45 66.75 77.75 65.2 76.5
L 59.75 71.55
Q 59.1 71 58.9 70.8
L 56.65 68.8 55.55 69.1 56.75 76.35 74.05 84.5 76 68.05 76 67.8 98.4 56.1 75.45 45.35 73.8 34.9
Q 72.45 26.65 71.35 20.25 65.7 26.35 61.3 31.2
L 58.05 34.8
Q 56.85 36.2 55.85 37.4
L 54.65 38.95 54.6 38.95 54.6 39
Q 54.5 39.3 54.3 39.65 53.95 39.7 53.65 39.75
L 53.6 39.75
Q 53.55 39.75 53.5 39.75
L 51.55 39.65 53.5 40.2 54.3 40.55 51 40.05
Q 48.9 39.75 48.1 39.75 44 39.45 44.6 39.95 44.8 40.15 45.8 40.6 46.35 40.8 47.55 41.35 48.1 41.55 48.2 41.7 48.25 41.75 48.15 42 48.1 42.15 48.3 42.3 48.6 42.5 49.5 42.75
L 44.6 41.95
Q 44.5 42.05 47.35 42.45 50.05 42.85 49.25 43
M 45.7 3.95
L 44.75 4.05
Q 44 4.05 42.6 4.1 41.15 4.1 40.45 4.15 39.25 4.2 38.2 4.35
L 38.05 4.6 38 4.65
Q 35 4.85 33.4 4.95
L 27.2 15.55 27.15 15.65
Q 27.15 15.8 27 16.15
L 27 16.55
Q 27 16.65 26.95 16.7 26.9 16.65 26.8 16.3 26.7 15.95 26.65 15.8
L 26.55 15.7 26.45 15.7
Q 26.45 15.65 26.4 15.65 26.35 15.6 26.25 15.55 25.65 14.15 24.95 12.35
L 21.45 4.85 9.45 2.9
Q 9.3 2.9 9.05 2.85
L 8.15 2.8
Q 7.2 2.7 5.95 2.6 6.65 1.7 8.1 0.15
L 8.25 0 0 0 0 8.5 15.7 11.55 15.95 11.55 18.95 18.4
Q 24.95 32.3 26 34.75
L 38.4 12.65 48.95 11.75
Q 56.85 11.1 63.75 10.45 58.25 4.55 53.95 0
L 42.75 0 45.8 3.4 45.8 3.5 45.65 3.5 45.75 3.75
Q 45.85 3.9 45.8 3.95 45.75 3.95 45.7 3.95
M 62 3
L 63.7 0 60.7 0 62 3
M 119.25 80.35
Q 118.55 78.4 118.2 77.3 119.35 77.6 120.35 77.95
L 121.65 78.4
Q 121.7 78.45 121.8 78.45
L 133.35 81.35 139.55 75.85
Q 140.9 74.5 142.05 73.45 142.1 73.45 142.2 73.45
L 142.25 73.4 142.3 73.4 142.35 73.45 142.5 73.35 142.85 72.95
Q 143.05 72.7 143.15 72.7
L 143.1 72.8
Q 143.05 73 143 73.15
L 142.95 73.2
Q 142.95 73.6 142.9 73.75
L 142.9 73.85 144.4 86 148.45 88.1
Q 148.5 88.15 148.5 88.2
L 148.55 88.45
Q 149.45 89 150.5 89.55 151.15 89.9 152.45 90.45 153.6 90.95 154.4 91.35
L 155.25 91.8
Q 155.3 91.85 155.35 91.9 155.35 91.95 155.25 92.05
L 155 92.2 155.2 92.25
Q 155.2 92.3 155.15 92.3
L 155.05 92.4 143.85 97.55 141.85 108.9
Q 141.7 109.8 141.6 111.9 141.4 115.55 141.35 115.85 141.35 116.85 141.45 117.85
L 141.75 116.15
Q 141.6 117.1 141.45 118.2 141.5 118.45 141.55 118.85
L 142 116.2
Q 141.9638671875 116.6248046875 141.9 117.2 141.75 118.25 141.65 118.8 141.89375 117.675 142.2 115.75 142.6 113.05 142.7 112.45 142.35 116.45 142.95 115 143.5 113.65 144.55 108.8 144 111.75 144.1 111.7 144.45 111.5 144.75 109.05 145.1 106.05 145.15 105.8 145.4 105.7 144.9 108.75 144.35 112 144.45 112.4 144.6 111.75 145.1 109.4 145.5 107.55 145.65 106.45 146.05 105.75 145.5 108.4 144.95 111.25 145.1 111.2
L 145.95 106.3
Q 145.9 107.2 146 107.55 146.05 107.8 146.25 107.8 146.45 107.8 146.5 107.85 146.65 108 146.65 108.6 146.7 109.4 146.8 111.05 146.9 112.25 147.2 111.9 147.55 111.45 148.3 108.55 148.55 107.8 148.95 105.8 149.1 105.2 149.35 103.75
L 149.5 103.05 149.5 103 149.6 102.45 149.65 103.35 149.55 105.35 150.1 103.4 150.15 103.35
Q 150.3 103.05 150.45 102.8 150.85 102.7 151.15 102.7
L 151.2 102.7 153.1 102.05
Q 154.55 101.5 156.25 100.8
L 160.75 98.95
Q 167.15 96.25 174.4 93.05 167.1 89.05 161.35 85.95
L 152.05 80.9 149.45 55.75 131 73 114.6 69.35 116.6 88.4 123.05 91.9 123.65 90.95 122.6 88.35 123.05 89.4
Q 123.85 86.25 124.65 83.45 122.7 84.2 121.1 84.8
L 119.25 80.35
M 89.85 95.9
L 84.15 83.8 82.3 85.85 86.3 102.05 89.85 95.9
M 114.4 69.3
L 105.7 67.4
Q 107.75 71.7 108.95 74.45
L 114.4 69.3
M 138.65 31.7
L 138.35 30.5 132.45 33.45 134.75 21.8 129.9 26.25 131.55 38.45 131.55 38.55 131.5 38.6 131.5 38.65 131.35 38.55 131.3 38.8
Q 131.3 38.95 131.25 39 131.2 39 131.15 38.95 131.05 38.9 130.8 38.75
L 130.35 38.5
Q 129.65 38.1 128.5 37.3 127.3 36.55 126.7 36.15 125.65 35.5 124.75 35.05
L 124.4 35.2 120.45 32.85 109.35 38.1 109.3 38.1 109.25 38.15
Q 109.15 38.3 108.85 38.55
L 108.85 38.5 108.8 38.55
Q 108.7 38.75 108.6 38.85 108.55 38.9 108.5 38.9 108.45 38.85 108.55 38.5 108.7 38.15 108.75 38
L 108.7 37.9 108.65 37.85 108.65 37.75
Q 108.6 37.65 108.55 37.6 108.9 35.95 109.25 34.2
L 110.6 26 102 17.85
Q 101.95 17.75 101.85 17.7
L 100.8 16.85
Q 100.25 16.4 99.05 15.4 100.3 15.05 102.2 14.65
L 109.45 13.4
Q 110.6 13.25 110.75 13.2
L 113.55 12.7 115.5 8.35
Q 116.3 6.55 117.05 4.95
L 119.65 0 113 0 109.5 6.75 109.5 6.85 109.45 6.85 96.65 8.4
Q 93.15 8.95 84.05 10.15
L 102.3 28.5 97.55 53.3 120.2 42.05 129.45 47.25
Q 135.95 50.9 142.4 54.45 141.2 46.5 140.1 39.75
L 139.3 34.95
Q 138.95 33.25 138.65 31.7
M 124.1 0.4
L 127.55 0 123.8 0 124.1 0.4
M 128.7 7.05
L 128.8 6.9 128.45 6.5 128.7 7.05
M 243.7 141.7
L 243.95 143.6 246.75 142.3 243.7 141.7
M 249.9 143.1
L 251.75 144.25
Q 251.35 143.6 252.25 143.75 252.9 143.85 254.7 144.55
L 256.45 145.2 256 144.15 247.45 142.45 245.05 152.95 245.65 157.8 245.65 157.9 245.1 158.4
Q 244.05 159.3 243.5 159.75
L 243.3 160.8 247.35 165.25 249.35 163.3
Q 249.65 163.05 250.3 162.4
L 252.35 160.4 251.5 155.75
Q 251.15 153.95 250.85 152.05
L 250.5 149.35
Q 250.45 148.65 250.3 147.2 250.15 145.9 249.9 143.1
M 314.35 113.7
L 314.2 114.3 315.95 116.25 316.3 115.95
Q 315.25 114.75 314.35 113.7
M 309.55 121.5
L 306.65 118.3 305.35 118.35
Q 304.4 119.9 303.5 121.4
L 303.15 121.95
Q 302.8 122.45 302.15 123.5
L 300.7 125.75
Q 300.2 126.35 299.95 126.8
L 299.85 127.05
Q 299.75 127.4 299.55 127.75
L 299.45 127.6
Q 299.4 127.4 299.35 127.55
L 299.3 127.6 299.35 127.35
Q 299.25 127.5 299.1 127.05 299.05 126.8 299 126.7 298.95 126.55 298.85 126.5
L 299.05 126.2
Q 298.85 126.1 298.7 125.6
L 298.65 125.4 297.15 121.7 297.4 121.55
Q 295.95 117.9 295.7 117.1 295.2 116.95 295.25 116.9
L 295.45 116.6
Q 294.65 116.4 293.1 116.05 292.95 116 290.45 115.45
L 288.8 115.05
Q 288.3794921875 114.956640625 288.4 114.85
L 288.3 115.15 287.05 114.85 286.9 114.8
Q 286.75 114.7 286.65 114.65 286.5 114.55 286.55 114.4
L 286.6 114.4
Q 287.1 114.2 287.25 114.2
L 287.3 114.25 290.9 111.25 283.1 112.25 280.1 125.35 286.6 127.2 286.6 127.25
Q 286.7 127.45 286.65 127.6 286.65 127.7 286.6 127.7
L 286.6 127.75 290 136.65
Q 293.3 145.2 297.25 155.2 301.55 148.05 306.4 139.8
L 312.2 129.85 312.2 129.6
Q 312.2 129.4 312.35 129.15
L 312.35 129.1 312.4 129.05 313.2 128.85 303.4 126.6 309.55 121.5
M 209.1 165
L 206.55 163.45 206.95 166.85 209.1 165
M 164.3 177.45
L 170.1 175 164.45 173.15 163.05 173.8
Q 161.8 174.35 159.7 175.25
L 158.85 175.65 159.05 178.15 159.15 178.1
Q 161.05 177.45 163.05 176.7 164.1 176.3 164.5 176.3 164.8 176.3 164.7 176.55 164.7 176.6 164.4 177.05 164.15 177.4 164.3 177.45
M 175.5 171.7
L 175.8 172.55 176.5 172.25 175.5 171.7
M 196.55 159.2
Q 194.15 158.5 192.9 158.05 188.6 156.3 186.25 154.95
L 185.6 154.55 185.15 154
Q 184.7 153.5 184.5 153.25 184.25 153.1 184.1 152.95 184.05 152.9 183.55 153.2
L 182.15 154.15
Q 180.75 155.2 178.25 157.1 178.45 156.7 178.25 156.65 178.05 156.6 177.5 156.8 177.05 157 176.25 157.4
L 174.8 158.15
Q 173.05 159.05 172.4 159.25 172 159.35 171.85 159.25 171.7 159.15 171.85 158.8
L 171.2 159.3 173.3 165.3 185 156.45 185 156.4 190.8 158.3
Q 194.85 159.6 198.95 160.9 198.45 160.65 198.85 160.65 199.1 160.65 200 160.8 201.1 161 201.4 161 201.95 161.05 201.4 160.75 201.05 160.6 200 160.25 197.8 159.6 196.55 159.2
M 242.5 131.7
L 242.95 135.15 245.1 133.25 242.5 131.7
M 215.65 119.2
Q 209.2 119.3 203.75 119.45
L 198.5 119.55
Q 197.65 119.6 194 119.7
L 190.25 119.8 186.15 114.15
Q 179.15 104.4 175.45 99.25
L 168.05 123.45 167.8 123.5 152.05 128.4 163.2 143.95 170.55 143.8 170.65 142.65 168.4 140.9
Q 168.3 140.8 167.35 140.1
L 161.55 135.65
Q 160.05 134.4 159.1 133.5 160.3 133.2 161.3 133
L 162.65 132.75
Q 162.7 132.75 162.8 132.7
L 174.25 129.5 176.9 121.65
Q 177.45 119.6 177.85 118.3 177.95 118.25 178 118.2
L 178.05 118.15 178.1 118.15 178.2 118 178.3 117.5
Q 178.35 117.15 178.4 117.1 178.45 117.15 178.45 117.2 178.45 117.3 178.5 117.55
L 178.5 117.6 178.55 117.6
Q 178.7 118 178.75 118.15
L 178.75 118.2 178.8 118.2 178.8 118.25 186.15 128.05
Q 188.05 127.95 190.7 127.8
L 190.75 127.85 190.95 128.1
Q 192 128.15 193.25 128.05 193.95 128 195.35 127.85 196.8 127.75 197.5 127.7
L 198.45 127.65
Q 198.5 127.65 198.55 127.65 198.6 127.7 198.55 127.85 198.5 128 198.45 128.1
L 198.65 128.05 198.6 128.15 198.6 128.3 198.55 128.3 191.4 138.3 195.35 149.15
Q 195.65 149.95 196.6 151.85 198.15 155 198.35 155.4 198.95 156.4 199.45 157.1
L 199 155.9
Q 199.298046875 156.61796875 199.65 157.4
L 200 157.85 200.05 157.9 200 157.8 200 157.75 199.2 155.6
Q 199.5125 156.35 200 157.55
L 200.15 157.95
Q 200.0998046875 157.7662109375 200 157.4 199.65 156.4 198.9 154.55 198.1 152.5 197.85 151.8 199.5 155.45 199.3 153.9 199.15 152.45 197.6 147.75 198.65 150.55 198.7 150.45 198.9 150.15 197.9 147.85 196.75 145.05 196.7 144.8 196.8 144.6 197.9 147.5 199.05 150.6 199.35 150.85 199.15 150.25 198.4 147.95 197.85 146.15 197.4 145.15 197.4 144.35 198.25 146.9 199.2 149.65 199.3 149.5
L 197.6 144.8
Q 198 145.65 198.25 145.9 198.45 146.1 198.6 146 198.8 145.9 198.85 145.9 199.05 146 199.35 146.5 199.65 146.95 200 147.45 201.15 149.25 201.35 149.25 201.75 149.15 200.75 145.65 200.6 144.9 200 142.95
L 199.95 142.9
Q 199.7 142.05 199.3 140.95
L 198.85 139.7 199.35 140.45 200.25 142.25 199.8 140.3 199.8 140.25
Q 199.75 139.85 199.75 139.55
L 200 139.4 200.3 139.15 201.7 137.6
Q 202.65 136.4 203.8 135
L 206.75 131.15
Q 210.75 125.85 215.65 119.2
M 227.85 119.35
L 227.45 123.55
Q 226.65 131.65 226 138.3 232.7 134.1 238.55 130.35
L 242.65 127.7
Q 244.35 126.5 245.4 125.75
L 247 124.55 247.05 124.5
Q 247.3 124.25 247.5 124 247.75 124 248.2 124.05
L 248.25 124.05 248.3 124.1 250.15 124.7 248.45 123.65 247.75 123.1 248.95 123.65
Q 250.15 124.15 250.8 124.45
L 251.2 124.6
Q 252.8 125.25 253.5 125.45 257.4 126.85 256.95 126.2 256.8 125.95 256 125.3 254.95 124.5 254.45 124.1 253.95 123.75 253.9 123.55 253.9 123.5 254.05 123.3 254.15 123.15 253.95 122.95 253.75 122.7 252.9 122.25
L 257.45 124.25
Q 257.6 124.2 254.95 123.05 252.45 122 253.25 122.05 254.2 122.55 256 123.25 258.2 124.15 258.8 124.45 258.6 124.1 255.55 122.75 252.75 121.45 253 121.3 253.2 121.4 255.9 122.75 258.15 123.9 258.45 123.75 258.55 123.7 255.85 122.5 260.4 124.35 261.8 124.65 263.35 124.95 259.85 123 260.4 123.25 262.85 124.45 264.63984375 125.2794921875 265.7 125.7 265.2376953125 125.49375 264.25 125 263.846484375 124.7982421875 263.5 124.65
L 265.8 125.65
Q 265.6 125.45 265.3 125.2 264.5666015625 124.8140625 263.9 124.5
L 265.05 125
Q 264.3 124.4 263.4 123.8 263.05 123.6 260 121.75 258.2 120.7 257.4 120.3
L 246.9 115.55 237.3 121.4 237 127.2 227.85 119.35
M 168.65 56.25
Q 172.05 51.95 173.45 50.15
L 166.4 47.65 168.65 56.25
M 189.1 71.8
L 184.4 54.1 177.35 51.55 176.25 51.45 189.1 71.8
M 199.8 59.3
L 201.85 59.3
Q 203.4 59.35 205.15 59.5
L 206.5 57.75 201.2 57.45 199.8 59.3
M 201.6 60.05
L 199.35 59.85 189.6 72.55 190.35 73.8 189.95 74.55 179.35 99.1
Q 189.9 96.5 200 94.1
L 205.35 93 205.4 93.05
Q 205.55 93.15 205.55 93.3
L 205.6 93.45 205.6 93.5 206.2 94.05 200.6 85.35 215.9 86.6 215.9 86.3
Q 215.75 86.35 215.6 86.2 215.5 86.15 215.3 85.95
L 215.15 85.8 212.1 83.25 212.3 83
Q 209.35 80.45 208.7 79.8 208.2 79.9 208.2 79.85
L 208.25 79.5
Q 207.4 79.7 205.9 80.1 204.1 80.6 203.3 80.8
L 202.15 81.1
Q 201.9 81.2 201.65 81.25 201.2 81.35 201.15 81.25
L 201.25 81.5 200 81.85 199.85 81.85
Q 199.7 81.9 199.55 81.85 199.35 81.85 199.35 81.7
L 199.4 81.65
Q 199.75 81.3 199.9 81.2
L 199.95 81.2 203.5 72.65 198.45 64.85 198.35 64.85
Q 198.15 64.75 197.85 64.45 197.8 64.4 197.75 64.35
L 197.4 64.1
Q 197.1 63.9 196.75 63.7
L 197.35 63.75
Q 197.45 63.8 197.5 63.7
L 197.45 63.55
Q 197.4 63.45 197.45 63.4 197.5 63.35 197.7 63.35
L 198.2 63.3 207.05 63.85 211.7 58.05 208.4 57.85 205.75 60.9 201.6 60.5 201.6 60.05
M 213.45 48.1
L 213.65 48.4 213.65 47.85 213.45 48.1
M 213.25 47.85
L 217.2 43.05 219.6 53.4
Q 219.75 53.3 219.75 53.1 219.75 52.8 219.6 52.05
L 221.95 62.05 223.7 62.75
Q 224.2 62.95 225.5 63.4 227.8 64.25 229.2 64.7 229.7 64.85 229.75 64.75 229.75 64.65 229.3 64.35 228.2 63.6 225.45 62.45
L 222.75 61.35 221.05 54.25 221.3 54.05 222.6 59.75
Q 222.75 60.5 222.95 61.2 223.9 61.55 224.55 61.75 224.9 61.85 224.75 61.7 224.7 61.6 224.25 61.3 223.9 61.05 223.8 60.95 223.7 60.85 224 60.9 224.85 61.25 225.3 61.4
L 226.15 61.65
Q 226.75 61.85 227.2 61.95 225.85 61.45 223.6 60.6
L 222.2 54.65
Q 221.95 53.6 221.55 51.8 221.25 49.7 221.15 48.9 220.95 47.55 221.1 47.3 219.8 41.95 218.65 36.6 216.25 39.4 213.75 42 212.6 43.25 211.15 44.7
L 213.25 47.85
M 289.85 95.9
L 284.1 83.8 282.3 85.85 286.3 102.05 289.85 95.9
M 314.35 69.3
L 305.7 67.4
Q 307.7 71.7 308.95 74.45
L 314.35 69.3
M 269.35 97
L 268.75 97.65
Q 269.5 97.4 269.2 98.2 268.95 98.8 267.95 100.5
L 267.05 101.9
Q 266.6 102.65 266.4 103.1 265.9 104.2 266.6 103.9 264.4 106.35 263.4 107.55
L 262.3 108.85
Q 262 109.3 262.05 109.4 262.2 109.55 262.3 109.8 262.6 110.05 263.05 110.5
L 263.55 111 263.6 111.15
Q 263.7 111.35 263.85 111.65 264.75 113.45 265.75 116.45
L 264.55 117.45 265.95 118.25 266.3 118.1 266.45 118.5
Q 266.9 120.05 267.65 123.6 268.3 126.75 268.55 127.25 268.75 127.75 268.75 127.3 268.8 127.05 268.7 126 268.6 125 268.6 124.7 268.6 124.25 268.85 124.8 268.1 121.55 267.15 117.7
L 280.85 111.4 285.2 103.9 282.25 102.6 282.25 103.2 266.7 115.75 266.7 115.7 265.45 110.55 275.2 99.55 269.35 97
M 267.4 88.15
L 273 93.55 274 84.7 267.4 88.15
M 243.75 67.75
L 243.35 67.1 242.65 68.9 243.75 67.75
M 243.9 58.1
Q 244.1 57.55 244 57.5 243.8 57.35 243.65 57.15 243.25 56.95 242.75 56.7
L 242.15 56.3 242.05 56.2
Q 241.85 56 241.65 55.75 239.9 53.7 237.4 49.8 236.6 48.45 234.9 45.2 233.45 42.35 233.15 41.95 232.75 41.45 232.9 41.9 232.95 42.2 233.3 43.15 233.65 44.1 233.7 44.4 233.8 44.85 233.45 44.35 235.35 47.85 237.5 51.9
L 240.45 57.25 240.4 57.25 234.25 69.65 232.7 70.25
Q 231.35 70.75 230.75 71 228.4 70 226.65 69.3 225 68.65 223.3 68.05 223.3 67.95 223.3 67.9 223.3 67.85 223.2 67.75 222.8 67.4 221.4 66.85
L 218 65.5 216.35 58.3 215.35 58.25 217.2 66.2 230.3 71.25
Q 227.2 72.55 225.3 73.5 224.4 73.9 224.15 73.9 224 73.9 224.05 73.7 224.1 73.6 224.45 73.05 224.75 72.6 224.7 72.45 224.15 72.8 223.7 73.1
L 221.6 74.3
Q 219.15 75.65 217.8 76.45 217.7 78.3 217.65 80 217.6 80 217.55 80.65 217.45 81.35 217.4 82.5
L 217.15 85 217.15 85.15
Q 217 85.9 216.95 86.45
L 217 86.7 219.9 86.95 232.15 71.95 232.65 74 234.25 72.7
Q 236.9302734375 73.705078125 237.55 73.9 236.85 73.65 234.4 72.6
L 236.65 70.85 240.15 71.35 240.55 70.6
Q 239.9 71.05 240 70.15 240.05 69.5 240.6 67.6
L 241.1 66
Q 241.35 65.15 241.4 64.7 241.55 64.1 241.45 63.95 241.35 63.75 241 64 242.45 61.2 243.2 59.65
L 243.65 58.7
Q 243.8 58.35 243.9 58.1
M 261.25 31.2
L 258.05 34.8
Q 256.85 36.2 255.85 37.4
L 254.6 38.95 254.6 39
Q 254.45 39.3 254.3 39.65 253.95 39.7 253.6 39.75
L 251.55 39.65 253.45 40.2 254.3 40.55 250.95 40.05
Q 248.9 39.75 248.1 39.75 243.95 39.45 244.55 39.95 244.8 40.15 245.75 40.6 246.3 40.8 247.55 41.35 248.1 41.55 248.2 41.7 248.2 41.75 248.15 42 248.1 42.15 248.3 42.3 248.6 42.5 249.5 42.75
L 244.6 41.95
Q 244.45 42.05 247.35 42.45 250 42.85 249.25 43 248.15 42.75 246.25 42.5 243.85 42.2 243.25 42.1 243.55 42.35 246.8 42.95 249.85 43.45 249.65 43.65 249.45 43.6 246.5 43 244.05 42.45 243.75 42.7 243.7 42.75 244.8 42.95 245.1375 43.025 246 43.15 241.60703125 42.606640625 240.3 42.7 238.7 42.8 242.6 43.8 242 43.7 239.3 43.15 237.1 42.75 235.95 42.6
L 235.95 42.65
Q 236.45 42.7 237.85 43 238.8 43.15 239.35 43.25
L 236.2 42.75
Q 236.45 42.9 236.75 43.05 237.725 43.271484375 238.55 43.4
L 237.05 43.2
Q 237.95 43.55 238.95 43.95 239.2 44 242.75 45 244.8 45.6 245.65 45.75
L 257.05 47.6 265.65 38.65 265.75 38.65 265.75 38.8
Q 265.9 38.75 266 38.65 266.15 38.55 266.15 38.6 266.2 38.65 266.2 38.75
L 266.35 39.65
Q 266.4 40.2 266.55 41.8 266.7 43.15 266.8 43.9 266.95 45.1 267.15 46.15
L 267.4 46.3
Q 267.45 46.35 267.5 46.35
L 268.1 50.9 279.1 56.3 279.2 56.3
Q 279.45 56.35 279.75 56.45
L 279.8 56.45
Q 280.05 56.45 280.15 56.45
L 280.25 56.45
Q 280.25 56.5 279.9 56.65
L 279.4 56.8 279.35 56.95 279.35 57 279.25 57.1
Q 279.25 57.15 279.2 57.25 277.8 57.95 276.1 58.75
L 268.85 62.85 267.85 74.65
Q 267.8 74.75 267.8 74.85
L 267.8 76.25
Q 267.8 77.5 267.75 78.45 266.8 77.75 265.2 76.5
L 259.7 71.55
Q 259 70.9 258.9 70.8
L 256.6 68.8 255.5 69.1 256.7 76.35 274.05 84.5 275.95 67.8 298.35 56.1 275.45 45.35 273.75 34.9
Q 272.45 26.65 271.35 20.25 265.65 26.35 261.25 31.2
M 245.8 3.95
Q 245.75 3.95 245.65 3.95
L 244.75 4.05
Q 244 4.05 242.6 4.1 241.1 4.1 240.45 4.15 239.2 4.2 238.2 4.35
L 238.05 4.6 237.95 4.65
Q 235 4.85 233.4 4.95
L 227.2 15.55 227.15 15.55 227.15 15.65
Q 227.1 15.8 227 16.15
L 227 16.25 226.95 16.55
Q 226.95 16.65 226.95 16.7 226.9 16.65 226.8 16.3 226.7 15.95 226.65 15.8
L 226.55 15.7 226.45 15.7 226.4 15.65
Q 226.3 15.6 226.25 15.55 225.65 14.15 224.95 12.35
L 221.4 4.85 209.45 2.9
Q 209.15 2.9 209.05 2.9
L 208.15 2.8
Q 207.3 2.75 205.9 2.6 206.7 1.6 208.1 0.15
L 208.25 0 197.95 0 196.35 1.45
Q 195.9 1.6 194.1 2.2 192.75 2.65 192.05 2.85 195.75 1.4 194.2 1.5 192.75 1.6 187.95 2.85 190.85 2 190.75 1.95 190.45 1.75 188.05 2.6 185.25 3.6 185 3.65 184.8 3.5 187.75 2.6 190.9 1.6 191.2 1.3 190.55 1.5 188.25 2.1 186.4 2.6 185.35 2.95 184.55 2.9 187.15 2.2 189.95 1.4 189.8 1.3
L 185.05 2.75
Q 185.9 2.4 186.2 2.15 186.35 2 186.3 1.8 186.2 1.6 186.2 1.55 186.3 1.35 186.8 1.1 187.4 0.75 188.65 0
L 184.35 0 183.25 0.3
Q 182.3 0.55 181.3 0.85
L 180 1.25
Q 180.25 1.1 180.8 0.75
L 182.55 0 182.45 0 180.7 0.35 180.6 0.35
Q 180.25 0.35 179.9 0.3
L 179.65 0 159.9 0 159.7 8.85 138.45 22.55 162.2 31.15 162.25 31.4 162.25 31.45 166.35 47.45 182.45 37.05 182.65 29.7 181.5 29.55 179.65 31.7
Q 179.4 32.05 178.8 32.7
L 174.05 38.3
Q 172.65 39.8 171.8 40.6 171.55 39.3 171.45 38.45
L 171.25 37.05
Q 171.25 37 171.2 36.9
L 168.6 25.3 160.85 22.25
Q 159.05 21.65 157.55 21.15 157.55 21.1 157.5 21
L 157.45 20.95 157.4 20.95 157.4 20.85
Q 157.35 20.85 157.3 20.75
L 156.8 20.65
Q 156.45 20.55 156.4 20.5 156.45 20.5 156.5 20.45
L 156.9 20.45 157.05 20.4
Q 157.25 20.3 157.45 20.25
L 157.5 20.2 157.55 20.2 167.7 13.35 167.7 8.75
Q 167.75 8.7 167.8 8.7
L 168 8.55
Q 168.15 7.15 168.05 5.4
L 168 4.1
Q 167.95 2.55 167.95 1.95
L 167.95 1.05
Q 167.95 0.95 168 0.9
L 168.15 0.95
Q 168.35 1.05 168.4 1.05
L 168.4 0.9 168.45 0.9 168.55 0.95 168.6 0.95 178.25 8.6 189.25 5.2
Q 190.05 4.95 191.65 4.3 192.55 3.85 194.7 2.9
L 190.5 6.7 198 8.15
Q 196.1 12.25 194.6 14.6 194.4 14.85 194.25 15.1
L 194.15 15.2
Q 194.15 15.25 194.1 15.25
L 193.6 15.65
Q 193.15 16 192.8 16.25 192.65 16.5 192.5 16.65 192.4 16.7 192.7 17.2 192.85 17.5 193 17.75
L 193.6 18.65
Q 194.35 19.75 196.35 22.7 195.65 22.25 196 23.4 196.15 23.85 196.5 24.7
L 197.2 26.2
Q 198 28 198.15 28.65 198.35 29.5 197.7 29.15
L 198.2 29.85 204.3 28.05 196 15.9 198.9 8.3 215.7 11.55 215.95 11.55 226 34.75 238.4 12.65 248.9 11.75
Q 256.85 11.1 263.7 10.45 258.25 4.55 253.95 0
L 242.75 0 245.75 3.35 245.75 3.4 245.8 3.45 245.8 3.5 245.6 3.5 245.75 3.75
Q 245.8 3.9 245.8 3.95
M 197.45 1.55
Q 196.7 2 195.65 2.5 196.7 1.95 197.4 1.55
L 197.45 1.55
M 196.25 1.55
L 196.2 1.6 195.45 1.8
Q 195.783984375 1.71640625 196.25 1.55
M 260.7 0
L 262 3 263.65 0 260.7 0
M 376.5 372.25
L 375.5 371.7 375.8 372.55 376.5 372.25
M 385.6 354.55
L 385.1 354
Q 384.65 353.45 384.45 353.2 384.25 353.1 384.1 352.95 384 352.85 383.5 353.15
L 382.15 354.15
Q 380.75 355.15 378.25 357.1 378.45 356.7 378.25 356.65 378.05 356.6 377.5 356.8 377.05 357 376.25 357.35
L 374.75 358.15
Q 373 359.05 372.4 359.2 371.95 359.35 371.85 359.25 371.7 359.1 371.85 358.75
L 371.15 359.3 373.25 365.3 385 356.4 390.75 358.25
Q 394.85 359.6 398.95 360.85 398.45 360.6 398.85 360.6 399.1 360.65 399.95 360.75
L 399.95 360.25
Q 397.8 359.6 396.5 359.2 394.15 358.5 392.85 358 388.65 356.3 386.2 354.9
L 385.6 354.55
M 360.35 383.4
Q 360.2 388.1 360.15 390.55
L 359.9 399.95 379.65 399.95 379.5 399.7 379.45 399.7 378 398.25
Q 376.9 397.25 375.5 396
L 371.8 392.85
Q 366.3 388.25 360.35 383.4
M 363.05 373.75
Q 361.65 374.4 359.65 375.25
L 358.8 375.6 359.05 378.1 359.1 378.1
Q 360.8 377.5 363.05 376.65 364.1 376.3 364.5 376.3 364.8 376.3 364.7 376.55 364.7 376.6 364.35 377.05 364.15 377.35 364.25 377.45
L 370.1 374.95 364.45 373.1 363.05 373.75
M 361.6 373.55
Q 362.8 373.1 363.55 372.8
L 359.1 371.35 354.05 375.2
Q 354 375.3 353.8 375.6 353.65 375.85 353.65 375.95 353.55 376.35 354.25 376.3 354.5 376.25 354.75 376.2
L 358.55 372.7 358.75 374.75 359.5 374.45
Q 360.25 374.15 361.6 373.55
M 343.45 382.75
L 343.7 381.85 343.7 376.05 341.9 385.2 342.9 385.45
Q 343.2 383.85 343.45 382.75
M 348.55 334.85
Q 342.05 340.95 336.8 345.85
L 331.55 350.95 331.3 351.3 330.85 351.3 323 349.65
Q 315.4 347.95 306.8 345.95
L 317.15 368.9 312.9 376.05
Q 308 384.4 304.65 390.25
L 304.6 390.35
Q 307.7 389.95 312.45 389.45
L 318.8 388.8 313 399.95 319.6 399.95
Q 320.75 397.9 321.25 397
L 322.15 399
Q 322.2 398.2 322.85 398.85 323.2 399.15 323.8 399.95
L 327.55 399.95 329.2 399.75 323.85 388.25 324.05 388.25
Q 325.4 388.1 326.25 387.95 327.4 387.75 328.2 387.55
L 328.05 387.25 324.4 387.7
Q 325.95 387.35 327.85 387.05
L 327.95 387.05 325.4 381.45 338.2 384.4 333 378.35 321.35 379.6 327.4 369.5 322.45 358.7 322.45 358.75 322.4 358.7 322.45 358.7 333.95 361.3 336.65 358.8 327.85 352.65 346.3 346.75 351.8 328.45 343.3 331.1 348.55 334.85
M 329.6 306.5
Q 329.25 306.5 328.95 306.55
L 327.9 306.65
Q 326.35 306.85 323.1 307.3 323.75 306.85 322.55 306.65 322.05 306.6 321.2 306.55 320.35 306.5 319.55 306.45 318.35 306.4 317.65 306.35
L 317.55 305.05 317.2 306.25 317 306.2 317.35 304.85 316.25 305.35 316.15 305.6 316.3 305.6 315.85 305.7 314.65 311.95 329.25 310.05 333.35 314.55
Q 336.05 317.55 339.15 320.85 338.8 320.35 339.2 320.6 339.45 320.75 340.25 321.4 341 322.05 341.25 322.2 341.65 322.45 341.3 322 341.05 321.5 338.8 319.2 336.3 316.55 335.3 315.35 332.45 311.75 331.05 309.4
L 330.7 308.75 330.55 308.05
Q 330.45 307.4 330.4 307 330.25 306.85 330.2 306.6 330.2 306.5 329.6 306.5
M 399.95 319.5
L 398.45 319.55
Q 397.65 319.6 394 319.7
L 390.2 319.8 375.45 299.25 368.15 323.15 368.05 323.4 367.8 323.5 352 328.4 363.2 343.9 370.55 343.75 370.6 342.65 361.5 335.6
Q 359.95 334.3 359.1 333.45 360.15 333.2 361.25 333
L 362.65 332.75
Q 362.7 332.7 362.8 332.7
L 374.25 329.5 376.9 321.6
Q 377.4 319.7 377.8 318.3 377.9 318.25 377.95 318.2
L 378.05 318.1 378.1 318.1 378.2 318 378.3 317.45
Q 378.35 317.15 378.4 317.1 378.45 317.1 378.45 317.2 378.45 317.25 378.5 317.55
L 378.5 317.6
Q 378.7 317.95 378.75 318.1
L 378.75 318.2 386.15 328 390.7 327.8
Q 390.75 327.8 390.8 327.85
L 390.95 328.1
Q 392 328.1 393.2 328.05 393.9 328 395.35 327.85 396.75 327.7 397.5 327.65
L 398.4 327.65
Q 398.5 327.65 398.55 327.65 398.6 327.7 398.55 327.85 398.45 328 398.45 328.1
L 398.6 328.05 398.6 328.15 398.55 328.25 391.4 338.3 395.35 349.1
Q 395.65 349.95 396.6 351.85 398.15 354.95 398.35 355.4 398.9 356.3 399.4 357.1
L 398.85 355.5
Q 399.2 356.35 399.6 357.4 399.9 357.75 399.95 357.85
L 399.95 357.75 399 355.1
Q 399.35 355.9 399.95 357.5
L 399.95 357.4
Q 399.6 356.4 398.9 354.5 398.05 352.45 397.85 351.8 399.5 355.4 399.3 353.85 399.15 352.45 397.6 347.7 398.1 349.1 398.25 349.45
L 398.65 350.45
Q 398.85 350.1 397.9 347.8 396.7 345 396.65 344.8 396.8 344.6 397.85 347.45 399.05 350.6 399.35 350.85 399.1 350.25 398.4 347.95 397.8 346.15 397.4 345.1 397.4 344.3 398.25 346.85 399.2 349.6 399.25 349.5
L 397.6 344.8
Q 398 345.65 398.25 345.9 398.4 346.05 398.55 346 398.75 345.9 398.85 345.9 399 345.95 399.3 346.45
L 399.95 347.45 399.95 342.85
Q 399.6 341.9 399.25 340.95
L 398.8 339.7
Q 399.1 340.1 399.35 340.45
L 399.95 341.65 399.95 341.1 399.75 340.35
Q 399.75 340.3 399.75 340.25
L 399.75 340.2
Q 399.75 339.8 399.75 339.55
L 399.95 339.35 399.95 319.5
M 384.4 254.05
L 377.35 251.55 376.25 251.45 389.1 271.75 384.4 254.05
M 368.6 256.25
Q 371.75 252.25 373.45 250.15
L 366.4 247.65 368.6 256.25
M 399.95 263.35
L 399.95 259.9 399.35 259.85 389.55 272.5 390.3 273.75 379.3 299.05
Q 389.9 296.45 399.95 294.05
L 399.95 281.8 399.8 281.85
Q 399.65 281.85 399.55 281.85 399.3 281.8 399.35 281.7
L 399.35 281.65
Q 399.7 281.25 399.85 281.2
L 399.9 281.2 399.95 281.05 399.95 267.2 398.4 264.85 398.3 264.8
Q 398.15 264.75 397.85 264.45 397.8 264.4 397.75 264.35 397.6 264.25 397.4 264.1 397.1 263.9 396.75 263.7
L 397.3 263.75
Q 397.45 263.75 397.45 263.7 397.45 263.65 397.4 263.55
L 397.4 263.4
Q 397.45 263.3 397.65 263.35
L 399.95 263.35
M 399.95 259.25
L 399.95 259.05 399.8 259.25 399.95 259.25
M 343.1 272.7
L 343.1 272.8
Q 343 273 342.95 273.1
L 342.95 273.15
Q 342.9 273.55 342.9 273.7
L 342.85 273.8 342.85 273.85 344.35 286 348.45 288.1 348.45 288.2 348.5 288.45
Q 349.4 289 350.5 289.55 351.15 289.85 352.45 290.45 353.7 291 354.4 291.35
L 355.2 291.8
Q 355.3 291.8 355.3 291.85 355.35 291.9 355.2 292
L 355 292.2 355.15 292.25 355.15 292.3 355.05 292.4 355 292.4 343.8 297.5 341.85 308.9
Q 341.7 309.75 341.55 311.85 341.35 315.55 341.35 315.8 341.35 316.85 341.4 317.85
L 341.7 316.15
Q 341.6 317.05 341.45 318.2 341.5 318.5 341.55 318.8
L 341.85 317.2
Q 341.65 318.6 341.6 319.05
L 341.6 319.1
Q 341.85 317.95 342.15 315.75 342.55 313.05 342.7 312.45 342.3 316.4 342.9 314.95 343.5 313.65 344.5 308.8 344 311.75 344.1 311.7 344.4 311.5 344.7 309 345.1 306 345.15 305.8 345.35 305.7 344.85 308.7 344.35 312 344.45 312.35 344.55 311.75 345.1 309.4 345.5 307.5 345.6 306.45 346 305.75 345.5 308.4 344.9 311.25 345.05 311.15
L 345.95 306.25
Q 345.9 307.2 345.95 307.55 346.05 307.75 346.2 307.8 346.45 307.8 346.5 307.85 346.6 307.95 346.6 308.55 346.7 309.4 346.8 311.05 346.9 312.2 347.2 311.85 347.55 311.45 348.25 308.55 348.55 307.8 348.95 305.75 349.05 305.15 349.35 303.75
L 349.55 302.45 349.65 303.35 349.55 305.35 350.1 303.4 350.1 303.35
Q 350.3 303 350.45 302.75 350.85 302.7 351.15 302.65
L 351.2 302.65 353.1 302
Q 354.55 301.45 356.2 300.8
L 360.7 298.95
Q 367.15 296.2 374.35 293 367.1 289.05 361.3 285.9
L 352 280.9 349.4 255.7 331 273 330.75 272.95 330.7 272.95 314.6 269.35 316.55 288.35 323.05 291.9 323.65 290.95 323 289.35
Q 323.759375 286.468359375 324.65 283.45 322.8 284.15 321.1 284.8
L 319.25 280.35
Q 318.55 278.4 318.2 277.25 319.3 277.6 320.3 277.95
L 321.65 278.4
Q 321.7 278.4 321.8 278.45
L 333.35 281.35 339.55 275.85
Q 340.9 274.5 342 273.4 342.1 273.4 342.15 273.4
L 342.35 273.4 342.45 273.35 342.8 272.95
Q 343.05 272.7 343.1 272.7
M 328.45 206.5
L 328.7 207.05 328.8 206.85 328.45 206.5
M 375.8 172.55
L 376.5 172.25 375.5 171.7 375.8 172.55
M 399.95 160.8
L 399.95 160.25
Q 397.8 159.6 396.5 159.2 394.15 158.5 392.85 158.05 388.65 156.3 386.2 154.95
L 385.6 154.55 385.1 154
Q 384.65 153.5 384.45 153.25 384.25 153.1 384.1 152.95 384 152.9 383.5 153.2
L 382.15 154.15
Q 380.75 155.2 378.25 157.1 378.45 156.7 378.25 156.65 378.05 156.6 377.5 156.8 377.05 157 376.25 157.4
L 374.75 158.15
Q 373 159.05 372.4 159.25 371.95 159.35 371.85 159.25 371.7 159.15 371.85 158.8
L 371.15 159.3 373.25 165.3 385 156.45 385 156.4 390.75 158.3
Q 394.85 159.6 398.95 160.9 398.45 160.65 398.85 160.65 399.1 160.65 399.95 160.8
M 360.35 183.4
Q 360.2 188.1 360.15 190.55
L 359.7 208.8 338.4 222.55 362.2 231.15 366.35 247.4 382.4 237.05 382.65 229.7 381.5 229.55 379.65 231.7
Q 379.05 232.4 378.8 232.7
L 374.05 238.3
Q 372.7 239.75 371.75 240.6 371.55 239.35 371.4 238.4
L 371.2 237
Q 371.2 236.95 371.2 236.85
L 368.55 225.25 360.85 222.25
Q 359.1 221.7 357.55 221.15 357.5 221.05 357.45 221
L 357.45 220.95 357.4 220.9 357.4 220.85 357.3 220.75 356.75 220.65
Q 356.45 220.55 356.4 220.5 356.4 220.45 356.5 220.45 356.6 220.45 356.85 220.4
L 356.9 220.4 357.05 220.35
Q 357.3 220.25 357.45 220.2
L 357.5 220.2 367.7 213.35 367.7 208.75 367.75 208.7 367.8 208.7 368 208.5
Q 368.1 207.15 368.05 205.4
L 368 204.1
Q 367.95 202.5 367.9 201.95
L 367.95 201.05
Q 367.95 200.95 367.95 200.9 368 200.85 368.15 200.95 368.3 201 368.4 201.05
L 368.35 200.85 368.55 200.95 368.6 200.95 378.2 208.6 389.25 205.2
Q 390 204.95 391.6 204.25 392.55 203.85 394.7 202.9
L 390.5 206.65 398 208.1
Q 396.05 212.25 394.55 214.6
L 394.15 215.2 393.6 215.65
Q 393.1 216.05 392.75 216.25 392.65 216.45 392.5 216.6 392.4 216.7 392.7 217.2 392.8 217.45 393 217.75
L 393.55 218.6
Q 394.5 220.05 396.3 222.65 395.95 222.45 395.9 222.65 395.8 222.85 396 223.4 396.15 223.9 396.5 224.7
L 397.2 226.2
Q 398 227.95 398.15 228.65 398.35 229.5 397.65 229.15
L 398.15 229.85 399.95 229.3 399.95 221.7 396 215.9 395.95 215.9 398.85 208.3 399.95 208.5 399.95 198.15 396.35 201.4
Q 395.8 201.6 394.1 202.15 392.7 202.65 392 202.85 395.75 201.35 394.15 201.5 392.75 201.6 387.95 202.85 390.8 202 390.7 201.95 390.4 201.7 388.05 202.6 385.2 203.6 385 203.65 384.8 203.5 387.7 202.6 390.9 201.55 391.15 201.3 390.5 201.5 388.2 202.1 386.35 202.55 385.35 202.95 384.55 202.9 387.15 202.15 389.49375 201.522265625 389.75 201.3
L 385.05 202.75
Q 385.9 202.35 386.15 202.15 386.35 201.95 386.25 201.8 386.15 201.6 386.2 201.55 386.25 201.35 386.8 201.1 387.4 200.7 388.65 200 389.85 199.25 389.55 199.1 389.1 198.95 386 199.6 385.5 199.7 384.3 200
L 383.25 200.3
Q 382.95 200.35 381.25 200.85
L 380 201.25
Q 380.25 201.05 380.75 200.75
L 382.6 199.95 380.7 200.3
Q 380.65 200.35 380.6 200.35
L 380.55 200.35
Q 380.15 200.35 379.9 200.3
L 379.65 200 379.5 199.75 378 198.3
Q 376.95 197.3 375.5 196.05
L 371.8 192.9
Q 366.45 188.4 360.35 183.4
M 396.2 201.55
L 396.15 201.6 395.4 201.8
Q 395.75 201.7 396.2 201.55
M 359.65 175.25
L 358.8 175.65 359.05 178.15 359.1 178.1
Q 360.95 177.45 363.05 176.7 364.1 176.3 364.5 176.3 364.8 176.3 364.7 176.55 364.7 176.6 364.35 177.05 364.15 177.4 364.25 177.45
L 370.1 175 364.45 173.15 363.05 173.8
Q 361.65 174.4 359.65 175.25
M 343.7 176.1
L 341.9 185.25 342.9 185.45
Q 343.2 183.85 343.45 182.75
L 343.7 181.85 343.7 176.1
M 363.55 172.85
L 359.1 171.35 354.05 175.2
Q 353.9 175.45 353.8 175.6 353.65 175.85 353.65 175.95 353.55 176.35 354.25 176.3 354.5 176.25 354.75 176.2
L 358.55 172.7 358.75 174.75 359.5 174.45
Q 360.25 174.15 361.6 173.6 362.8 173.1 363.55 172.85
M 346.3 146.8
L 351.8 128.5 343.3 131.15 348.55 134.85
Q 343 140.05 336.8 145.9
L 331.55 151 331.3 151.35 330.85 151.35 323 149.65
Q 315.4 147.95 306.8 145.95
L 317.15 168.95 312.9 176.1
Q 308.05 184.3 304.65 190.3
L 304.6 190.35
Q 307.7 189.95 312.45 189.45
L 318.8 188.85 310.6 204.6
Q 310.15 205.5 309.5 206.75
L 309.5 206.8 309.45 206.85 296.65 208.4
Q 293.1 208.95 284 210.1
L 302.3 228.5 297.55 253.3 320.2 242.05 329.4 247.2
Q 336.65 251.3 342.4 254.45 341.2 246.45 340.1 239.75
L 339.25 234.95
Q 338.95 233.25 338.6 231.65
L 338.35 230.5 332.45 233.45 334.75 221.8 329.85 226.2 331.5 238.4 331.5 238.55
Q 331.5 238.6 331.45 238.65
L 331.35 238.5 331.3 238.8
Q 331.3 238.95 331.25 238.95 331.15 238.95 331.1 238.95 331.05 238.9 330.8 238.75
L 330.3 238.45
Q 329.65 238.05 328.5 237.3 327.3 236.5 326.7 236.15 325.65 235.5 324.7 235.05
L 324.45 235.15
Q 324.4 235.2 324.35 235.2
L 320.4 232.85 309.35 238.1 309.3 238.1 309.25 238.15
Q 309.1 238.3 308.8 238.5
L 308.8 238.55
Q 308.65 238.7 308.55 238.8
L 308.5 238.9
Q 308.45 238.8 308.55 238.5 308.7 238.15 308.7 238
L 308.7 237.85 308.65 237.8 308.6 237.7
Q 308.6 237.65 308.5 237.55 308.85 235.95 309.25 234.2
L 310.6 226 302 217.8
Q 301.9 217.75 301.85 217.7
L 300.75 216.85
Q 300.2 216.4 299.05 215.4 300.15 215.1 302.2 214.6
L 309.45 213.4
Q 310.3 213.25 310.75 213.2
L 313.55 212.7 315.5 208.35
Q 316.3 206.5 317.05 204.95
L 318.3 202.5
Q 318.65 201.75 319.3 200.6
L 319.6 200
Q 320.2 198.95 321.25 197
L 322.15 199
Q 322.2 198.25 322.85 198.85 323.2 199.15 323.8 200
L 324.1 200.4 329.2 199.8 323.85 188.3 324.05 188.25
Q 325.4 188.1 326.25 187.95 327.4 187.75 328.2 187.55
L 328.05 187.3 324.4 187.7
Q 325.95 187.35 327.85 187.05
L 327.95 187.05 325.4 181.45 338.2 184.4 333 178.35 321.35 179.65 321.25 179.65
Q 321.25 179.6 321.35 179.6
L 321.35 179.65 327.4 169.5 322.45 158.7 322.45 158.75
Q 322.4 158.75 322.4 158.7
L 322.45 158.7 333.95 161.3 336.65 158.8 327.85 152.7 346.3 146.8
M 329.6 106.55
Q 329.25 106.55 328.95 106.55
L 327.9 106.7
Q 326.65 106.8 323.1 107.3 323.45 107.05 323.3 106.9 323.15 106.75 322.55 106.7 322.05 106.6 321.2 106.55
L 319.55 106.5
Q 318.35 106.45 317.65 106.35
L 317.55 105.1 317.2 106.3 317 106.25 317.35 104.85 316.25 105.35 316.15 105.65 316.3 105.65 315.85 105.7 314.65 111.95 329.25 110.1 329.25 110.05 333.35 114.55
Q 336.7 118.2 339.15 120.9 338.8 120.4 339.2 120.65 339.45 120.8 340.25 121.45 341 122.1 341.25 122.25 341.65 122.5 341.3 122 341.05 121.55 338.8 119.25 336.3 116.55 335.3 115.35 332.45 111.75 331.05 109.4
L 330.7 108.75 330.55 108.05
Q 330.45 107.45 330.4 107.05 330.25 106.85 330.2 106.6 330.15 106.5 329.6 106.55
M 399.95 119.55
L 398.45 119.55
Q 397.65 119.6 394 119.7
L 390.2 119.8 386.1 114.15
Q 379.1 104.4 375.45 99.25
L 368.05 123.45 367.8 123.5 352 128.4 363.2 143.95 370.55 143.8 370.6 142.65 368.4 140.9
Q 367.65 140.35 367.35 140.1
L 361.5 135.65
Q 360 134.4 359.1 133.5 360.3 133.2 361.25 133
L 362.65 132.75
Q 362.7 132.75 362.8 132.7
L 374.25 129.5 376.9 121.65
Q 377.45 119.6 377.8 118.3 377.9 118.25 377.95 118.2
L 378 118.15 378.1 118.15 378.2 118 378.3 117.5
Q 378.35 117.15 378.4 117.1 378.45 117.15 378.45 117.2 378.45 117.3 378.5 117.55
L 378.5 117.6
Q 378.7 118 378.75 118.15
L 378.75 118.25 386.15 128.05
Q 388.05 127.95 390.7 127.8 390.75 127.85 390.8 127.9
L 390.95 128.1
Q 392 128.15 393.2 128.05 393.9 128 395.35 127.85 396.75 127.75 397.5 127.7
L 398.4 127.65
Q 398.5 127.65 398.55 127.65 398.6 127.7 398.55 127.85 398.45 128 398.45 128.1
L 398.6 128.05 398.6 128.15 398.55 128.25 398.55 128.3 391.4 138.3 395.35 149.15
Q 395.65 149.95 396.6 151.85 398.15 155 398.35 155.4 398.9 156.35 399.4 157.1
L 398.85 155.5
Q 399.2 156.4 399.6 157.4
L 399.95 157.85 399.95 157.75 399 155.1
Q 399.35 155.95 399.95 157.55
L 399.95 157.4
Q 399.6 156.4 398.9 154.55 398.05 152.5 397.85 151.8 399.5 155.45 399.3 153.9 399.155078125 152.4990234375 397.7 148.05 398.075 149.10625 398.25 149.5
L 398.65 150.45
Q 398.85 150.15 397.9 147.85 396.7 145.05 396.65 144.8 396.8 144.6 397.85 147.5 399.05 150.6 399.35 150.85 399.1 150.25 398.4 147.95 397.8 146.15 397.4 145.15 397.4 144.35 398.25 146.9 399.2 149.65 399.25 149.5
L 397.6 144.8
Q 398 145.65 398.25 145.9 398.4 146.1 398.55 146 398.75 145.9 398.85 145.9 399 146 399.3 146.5 399.65 146.95 399.95 147.45
L 399.95 142.9
Q 399.65 142.05 399.25 140.95
L 398.8 139.7 399.35 140.45 399.95 141.7 399.95 141.15 399.75 140.35 399.75 140.25
Q 399.75 139.85 399.75 139.55
L 399.95 139.4 399.95 119.55
M 368.6 56.25
Q 372 51.95 373.45 50.15
L 366.4 47.65 368.6 56.25
M 377.35 51.55
L 376.25 51.45 389.1 71.8 384.4 54.1 377.35 51.55
M 399.95 59.3
L 399.95 59.05 399.8 59.3 399.95 59.3
M 399.95 59.9
L 399.35 59.85 389.55 72.55 390.3 73.8 379.3 99.1
Q 389.9 96.5 399.95 94.1
L 399.95 81.85 399.8 81.85
Q 399.65 81.9 399.55 81.85 399.3 81.85 399.35 81.7
L 399.35 81.65
Q 399.7 81.3 399.85 81.2
L 399.9 81.2 399.95 81.05 399.95 67.2 398.4 64.85 398.3 64.85
Q 398.15 64.75 397.85 64.45 397.8 64.4 397.75 64.35 397.6 64.25 397.4 64.1 397.1 63.9 396.75 63.7
L 397.3 63.75
Q 397.45 63.8 397.45 63.7
L 397.4 63.55
Q 397.4 63.45 397.4 63.4 397.45 63.35 397.65 63.35
L 399.95 63.35 399.95 59.9
M 331 73
L 330.75 72.95 330.7 72.95 314.6 69.35 316.55 88.4 323.05 91.9 323.65 90.95 323 89.35
Q 323.759375 86.468359375 324.65 83.45 322.7 84.2 321.1 84.8
L 319.25 80.35
Q 318.55 78.4 318.2 77.3 319.3 77.6 320.3 77.95
L 321.65 78.4
Q 321.7 78.45 321.8 78.45
L 333.35 81.35 339.55 75.85
Q 340.9 74.5 342 73.45 342.1 73.45 342.15 73.45
L 342.25 73.4 342.3 73.4 342.35 73.45 342.8 72.95
Q 343.05 72.7 343.1 72.7
L 343.1 72.8
Q 343 73 342.95 73.15
L 342.95 73.2
Q 342.9 73.6 342.9 73.75
L 342.85 73.8 342.85 73.85 344.35 86 348.45 88.1
Q 348.45 88.15 348.45 88.2
L 348.5 88.45
Q 349.4 89 350.5 89.55 351.15 89.9 352.45 90.45 353.55 90.95 354.4 91.35
L 355.2 91.8
Q 355.3 91.85 355.3 91.9 355.35 91.95 355.2 92.05
L 355 92.2 355.15 92.25 355.15 92.3 355.05 92.4 355 92.4 343.8 97.55 341.85 108.9
Q 341.7 109.8 341.55 111.9 341.35 115.55 341.35 115.85 341.35 116.85 341.4 117.85
L 341.7 116.15
Q 341.6 117.1 341.45 118.2 341.5 118.45 341.55 118.85
L 341.85 117.2
Q 341.65 118.6 341.6 119.1 341.85 117.95 342.15 115.75 342.55 113.05 342.7 112.45 342.3 116.45 342.9 115 343.5 113.65 344.5 108.8 344 111.75 344.1 111.7 344.4 111.5 344.7 109.05 345.1 106.05 345.15 105.8 345.35 105.7 344.85 108.75 344.35 112 344.45 112.4 344.55 111.75 345.1 109.4 345.5 107.55 345.6 106.45 346 105.75 345.5 108.4 344.9 111.25 345.05 111.2
L 345.95 106.3
Q 345.9 107.2 345.95 107.55 346.05 107.8 346.2 107.8 346.45 107.8 346.5 107.85 346.6 108 346.6 108.6 346.7 109.4 346.8 111.05 346.9 112.25 347.2 111.9 347.55 111.45 348.25 108.55 348.55 107.8 348.95 105.8 349.05 105.2 349.35 103.75
L 349.45 103.05 349.45 103 349.55 102.45 349.65 103.35 349.55 105.35 350.1 103.4 350.1 103.35
Q 350.3 103.05 350.45 102.8 350.85 102.7 351.15 102.7
L 351.2 102.7 353.1 102.05
Q 354.55 101.5 356.2 100.8
L 360.7 98.95
Q 367.15 96.25 374.35 93.05 367.1 89.05 361.3 85.95
L 352 80.9 349.4 55.75 331 73
M 338.6 31.7
L 338.35 30.5 332.45 33.45 334.75 21.8 329.85 26.25 331.5 38.45 331.5 38.6
Q 331.5 38.65 331.45 38.65
L 331.35 38.55 331.3 38.8
Q 331.3 38.95 331.25 39 331.15 39 331.1 38.95 331.05 38.9 330.8 38.75
L 330.3 38.5
Q 329.65 38.1 328.5 37.3 327.3 36.55 326.7 36.15 325.65 35.5 324.7 35.05
L 324.45 35.15
Q 324.4 35.2 324.35 35.2
L 320.4 32.85 309.35 38.1 309.3 38.1 309.25 38.15
Q 309.1 38.3 308.8 38.55 308.65 38.75 308.55 38.85
L 308.5 38.9
Q 308.45 38.85 308.55 38.5 308.7 38.15 308.7 38
L 308.7 37.9 308.65 37.85 308.6 37.75
Q 308.6 37.65 308.5 37.6 308.85 35.95 309.25 34.2
L 310.6 26 302 17.85
Q 301.9 17.75 301.85 17.7
L 300.75 16.85
Q 300.2 16.4 299.05 15.4 300.25 15.05 302.2 14.65
L 309.45 13.4
Q 310.6 13.25 310.75 13.2
L 313.55 12.7 315.5 8.35
Q 316.3 6.55 317.05 4.95
L 319.6 0 313 0 309.5 6.75 309.5 6.85 309.45 6.85 296.65 8.4
Q 293.1 8.95 284 10.15
L 302.3 28.5 297.55 53.3 320.2 42.05 329.4 47.25
Q 335.95 50.9 342.4 54.45 341.2 46.5 340.1 39.75
L 339.25 34.95
Q 338.95 33.25 338.6 31.7
M 324.1 0.4
L 327.55 0 323.8 0 324.1 0.4
M 328.45 6.5
L 328.7 7.05 328.8 6.9 328.45 6.5
M 398.85 8.3
L 399.95 8.5 399.95 0 397.95 0 396.35 1.45
Q 395.85 1.6 394.1 2.2 392.75 2.65 392 2.85 395.75 1.4 394.15 1.5 392.75 1.6 387.95 2.85 390.8 2 390.7 1.95 390.4 1.75 388.05 2.6 385.2 3.6 385 3.65 384.8 3.5 387.7 2.6 390.9 1.6 391.15 1.3 390.5 1.5 388.2 2.1 386.35 2.6 385.35 2.95 384.55 2.9 387.15 2.2 389.95 1.4 389.8 1.3
L 385.05 2.75
Q 385.9 2.4 386.15 2.15 386.35 2 386.25 1.8 386.15 1.6 386.2 1.55 386.25 1.35 386.8 1.1 387.4 0.75 388.65 0
L 384.3 0 383.25 0.3
Q 382.2 0.6 381.25 0.85
L 380 1.25 380.75 0.75 382.5 0 382.45 0 380.7 0.35
Q 380.65 0.35 380.6 0.35
L 380.55 0.35
Q 380.2 0.35 379.9 0.3
L 379.65 0 359.9 0 359.7 8.85 338.4 22.55 362.2 31.15 362.25 31.4 362.25 31.45 366.35 47.45 382.4 37.05 382.65 29.7 381.5 29.55 379.65 31.7
Q 379.5 31.85 378.8 32.7
L 374.05 38.3
Q 372.65 39.8 371.75 40.6 371.55 39.4 371.4 38.45
L 371.2 37.05
Q 371.2 36.95 371.2 36.9
L 368.55 25.3 360.85 22.25
Q 359 21.65 357.55 21.15 357.5 21.05 357.45 21
L 357.45 20.95 357.4 20.95 357.4 20.85 357.3 20.75 356.75 20.65
Q 356.45 20.55 356.4 20.5
L 356.5 20.45 356.9 20.45 357.05 20.4
Q 357.25 20.3 357.45 20.25
L 357.5 20.2 357.55 20.2 367.7 13.35 367.7 8.75
Q 367.75 8.7 367.8 8.7
L 368 8.55
Q 368.1 7.15 368.05 5.4
L 368 4.1
Q 367.95 2.55 367.9 1.95
L 367.95 1.05
Q 367.95 0.95 367.95 0.9 368 0.9 368.15 0.95 368.2 1 368.4 1.05
L 368.35 0.9 368.45 0.9 368.55 0.95 368.6 0.95 378.2 8.6 389.25 5.2
Q 390 4.95 391.6 4.3 392.55 3.85 394.7 2.9
L 390.5 6.7 398 8.15
Q 396.05 12.25 394.55 14.6
L 394.15 15.2 393.6 15.65
Q 393.15 16 392.75 16.25 392.65 16.5 392.5 16.65 392.4 16.7 392.7 17.2 392.8 17.45 393 17.75
L 393.55 18.65
Q 394.45 19.95 396.3 22.7 395.95 22.45 395.9 22.65 395.8 22.85 396 23.4 396.15 23.9 396.5 24.7
L 397.2 26.2
Q 398 28 398.15 28.65 398.35 29.5 397.65 29.15
L 398.15 29.85 399.95 29.35 399.95 21.75 396 15.9 395.95 15.9 398.85 8.3
M 396.2 1.55
L 396.15 1.6 395.3 1.85
Q 395.6 1.75 396.2 1.55 Z"/>

</svg>
