<svg xmlns="http://www.w3.org/2000/svg" version="1.1" xmlns:xlink="http://www.w3.org/1999/xlink" x="0px" y="0px" width="209px" height="284px" viewBox="0 0 209 284">

<path fill="#CCCCCC" stroke="none" d="
M 209 284
L 209 0 0 0 0 284 209 284 Z"/>

<path fill="#5A5A5A" stroke="none" d="
M 200.8 284
L 200.8 273.35 209 265.1 209 258.4 196.05 271.35 196.05 282.1 194.1 284 200.8 284
M 0 29.3
L 29.25 0 22.55 0 0 22.6 0 29.3
M 104.5 6.15
L 81.05 29.6 80.85 0 76.15 0 76.25 16.75 51.6 39.15 51.6 200.3 41.3 209.4 41.3 206.8 31 196.45 31 169.15 43.25 156.85 43.25 88.1 32.15 75.8 32.15 22.1 41.3 13.1 41.3 0 36.4 0 36.4 11.1 27.4 20.15 27.4 43.5 12.9 57.95 12.9 94.35 0 81.4 0 88.05 12.9 101.05 12.9 130 3.4 139.5 0 136.1 0 142.8 1.05 143.9 1.05 155.8 0 156.85 0 163.55 1.05 162.5 1.05 203.75 0 202.7 0 209.4 1.05 210.45 1.05 257.3 0 258.4 0 265.1 31 234.05 31 203.15 36.6 208.75 36.6 258.6 24.05 271.15 24.05 282.55 22.55 284 29.25 284 29.25 273.15 37.2 265 37.15 284 41.3 284 41.3 215.75 76.3 184.65 76.3 259.8 87.35 270.85 76.15 282.1 76.15 284 80.85 284 104.35 260.6 104.5 284 109.25 284 109 227.85 113.3 223.55 113.3 284 118.05 284 118.05 168.8 74.9 125.6 74.9 42.5 109.25 8.1 109.25 0 104.5 0 104.5 6.15
M 56.4 41.2
L 76.25 23.05 76.35 34.3 70.15 40.55 70.15 127.55 99.9 157.35 56.4 196.1 56.4 41.2
M 17.7 59.95
L 27.4 50.2 27.4 77.8 28.1 78.45 38.5 90.05 38.5 154.85 26.25 167.1 26.25 232.1 5.75 252.6 5.75 143.9 17.7 131.95 17.7 59.95
M 81 180.45
L 103.25 160.7 113.3 170.8 113.3 216.8 104.3 225.9 104.3 253.95 90.7 267.5 81 257.85 81 180.45
M 209 163.55
L 209 156.85 198.45 167.4 198.45 243.5 161.3 280.7 161.3 284 166.05 284 166.05 282.65 203.2 245.45 203.2 203.55 209 209.4 209 202.7 203.2 196.85 203.2 169.4 209 163.55
M 209 29.3
L 209 22.6 195.95 35.65 195.95 47.35 185.2 58.05 185.2 130.2 173.95 141.45 154.25 119.85 154.35 66.65 165.95 56.25 165.95 34.85 200.8 0 194.1 0 161.2 32.9 161.2 54.15 149.65 64.5 149.5 121.8 170.55 144.85 170.55 242.65 153.8 261.1 153.8 247.3 168 233.1 168 156.5 134.5 122.95 134.5 118.3 140.75 112 140.75 32.9 166.1 7.6 166.05 0 161.3 0 161.3 5.7 153.65 13.35 153.65 0 148.9 0 148.9 18.05 140.75 26.2 140.75 0 136.05 0 136.05 110 134.45 111.6 134.45 63.85 118 47.45 118.05 0 113.3 0 113.3 49.55 101.15 61.7 101.15 120.7 133.85 153.45 133.85 169.2 123.4 179.65 123.4 248.9 135.95 261.45 136.05 284 140.75 284 140.7 281.35 148.9 273.15 148.9 284 153.65 284 153.65 268.3 175.3 244.6 175.3 146.85 189.95 132.15 189.95 123.75 209 142.8 209 136.1 189.95 117.05 189.95 60 195.95 54.05 195.95 75 209 88.05 209 81.4 200.7 73.05 200.7 37.6 209 29.3
M 105.85 63.65
L 116.7 52.8 129.75 65.85 129.75 124.9 163.25 158.45 163.25 231.15 149.1 245.3 149.1 266.2 140.7 274.65 140.7 259.5 128.15 246.95 128.15 181.6 138.6 171.15 138.6 151.45 105.85 118.75 105.85 63.65 Z"/>


<path fill="#000000" stroke="none" d="
M 0 104.85
L 4 108.9 4 175.4 16 187.4 16 284 21.4 284 21.4 185.2 9.35 173.2 9.35 106.7 0 97.3 0 104.85
M 41.1 0
L 35.75 0 35.75 141.35 45.15 150.75 45.5 262.55 35.75 272.3 35.75 284 41.1 284 41.1 274.5 50.85 264.75 50.45 148.55 41.1 139.15 41.1 0
M 21.4 34.3
L 21.4 0 16 0 16 32.1 0 48.1 0 55.65 21.4 34.3
M 67.4 0
L 62.1 0 63.1 124.15 78.7 139.75 78.7 202.15 62.1 218.75 62.1 284 67.4 284 67.4 232.35 82 246.05 82 284 87.4 284 87.4 243.65 67.4 225.1 67.4 221 84 204.35 84 137.55 68.35 121.9 67.4 0
M 87.4 0
L 82 0 82 61.95 124.25 104.15 124.25 168.95 96.95 196.25 96.95 275.3 105.65 284 111 284 111 281.8 102.25 273.1 102.25 198.45 129.55 171.15 129.55 128.3 153.5 152.25 153.5 284 158.85 284 158.85 150.05 129.55 120.75 129.55 101.95 87.4 59.75 87.4 0
M 188.95 25.35
L 163.95 49.2 163.95 87.9 130.6 54.55 158.85 28.7 158.85 0 153.5 0 153.5 26.35 126.8 50.8 111 34.95 111 0 105.65 0 105.65 37.2 176.75 108.35 176.75 175.3 188.95 187.45 188.95 284 194.3 284 194.3 185.25 182.1 173.1 182.1 106.15 170.35 94.35 184.4 80.25 209 104.85 209 97.3 188.15 76.5 209 55.65 209 48.1 169.25 87.85 169.25 51.45 194.3 27.6 194.3 0 188.95 0 188.95 25.35 Z"/>

<path fill="#FFFFFF" stroke="none" d="
M 76.7 38.05
L 76.7 0 73.75 0 73.75 36.75 60.9 48.8 61 66 38.65 85.9 38.65 0 35.65 0 35.65 88.55 19.8 102.75 19.8 146.55 11.7 139.6 11.7 88.7 25.65 76.55 25.8 0 22.85 0 22.7 75.2 8.75 87.35 8.75 103.3 0 111.1 0 115 8.75 107.25 8.75 140.95 19.8 150.4 19.8 178.75 8.3 189.05 8.3 261.75 22.85 274.65 22.85 284 25.8 284 25.8 273.35 11.25 260.45 11.25 190.3 22.75 180.05 22.75 104.05 63.95 67.3 63.9 50.1 76.7 38.05
M 102.65 0
L 99.7 0 99.7 91.25 94.5 86.5 94.4 0 91.45 0 91.5 67.75 49.5 104 49.2 208.1 35.65 220.5 35.65 284 38.65 284 38.65 221.8 49.35 211.95 79.8 239.25 79.75 276.65 73.75 282.8 73.75 284 76.7 284 82.7 277.85 82.75 237.9 52.1 210.45 52.5 105.4 76.95 84.15 76.95 101.4 61.35 115.25 61.35 187.5 91.45 214.2 91.45 284 94.4 284 94.4 216.8 99.7 221.55 99.7 284 102.65 284 102.65 220.2 64.3 186.2 64.3 116.6 79.9 102.75 79.9 81.6 91.5 71.65 91.5 87.8 108.75 103.5 108.85 164 94.45 177.7 94.45 194.95 132.5 228.6 132.5 284 135.45 284 135.45 227.3 97.4 193.55 97.4 178.95 111.3 165.7 111.8 165.3 111.7 102.15 102.65 93.95 102.65 0
M 181.1 10
L 181.1 0 178.15 0 178.15 11.3 194.85 26.35 194.85 74.7 180.45 87.85 180.65 140.8 192.2 151 192.2 178.75 178.15 191.5 178.15 284 181.1 284 181.1 192.85 195.15 180.05 194.85 127.6 209 115 209 111.1 192.1 126.1 192.15 147.05 183.6 139.45 183.4 89.15 197.8 76 197.8 25.05 181.1 10
M 168.6 0
L 165.65 0 165.65 59.4 128.85 92.35 128.85 119.65 120.7 126.15 120.7 50.2 135.45 37.45 135.45 0 132.5 0 132.5 36.15 117.75 48.85 117.75 178.2 165.65 222.25 165.65 284 168.6 284 168.6 220.95 120.7 176.9 120.7 129.95 131.8 121.05 131.8 93.65 168.6 60.75 168.6 0 Z"/>

</svg>
