<?xml version="1.0" encoding="utf-8"?>
<!-- Generator: Adobe Illustrator 19.0.1, SVG Export Plug-In . SVG Version: 6.00 Build 0)  -->
<svg version="1.1" id="Layer_2" xmlns="http://www.w3.org/2000/svg" xmlns:xlink="http://www.w3.org/1999/xlink" x="0px" y="0px"
	 viewBox="0 0 2048 2048" style="enable-background:new 0 0 2048 2048;" xml:space="preserve">

<path id="color1" fill="#2B2928" d="M980,411.8H38v845.3c5.7-2.5,11.2-5.1,16.9-7.9c7.4-3.7,17.7-10.1,26.5-8.8c4.8,0.7,14.6,6.5,13.3,12.7
	c-1,0-2,0.1-3,0.2c0.5-0.6,5.4,19.8,5.5,21.5c0.4,4.5-0.9,15.2,4.4,15.9c4.1,0.5,10.5-9,15.3-10.3c2.5-0.7,5.5,2.1,7.4-0.4
	c2-2.7-1.1-5.7-2.6-7.4c9-0.7,9,22.4,18.2,16.7c-1.1,2.6-2.7,5-1.6,7.9c4.4-3.6,7.7-0.4,11.3,2.4c-2.2,5.9-15.8,6.6-14,16.7
	c2.3,13,12.8-0.7,15.6-5.9c1.6-3,5.1-6.9,6.3-9.8c4.1-1,4.3-3.1,0.8-6.3c-0.9-3-1.1-6-0.6-9.1c0.5-5.3,4.2-11,4.1-16.2
	c-0.2-7.3,0.2-3.4-6.4-5.7c7.5-2.8,13.7-8.8,21.8-10.1c-0.1-0.1-2.1,8.7-1.1,10.8c0.5,1.1,1.2,2.1,2.1,3c-1.5,6.8-2.1,15.5,1.6,18.4
	c2-0.8,3.7-4.9,5.4-7.8c0.6,1.1,1.2,2,1.6,2.3c8,5.4,20.2-6.3,18.1-15.1c1.6-0.9,3.1-2,4.4-3.3c2.1,0.7,4.2,1.7,6.1,2.5
	c3.3,1.5,8,3.4,10.9,5.5c7.5,5.6,2.4,1.5,2.9,9c0.7,0.1,1.5,0.1,2.2,0.2c0.1,0.7,0.4,1.4,0.9,2.2c-16.9,0.7-12.2,28.5-31.2,23.9
	c-1.8,17.1,15.4,7.3,22.2,14.8c1.7-1.3-0.4-2.5,0-3.9c9,3.1-2.9-18.3,1.2-21.2c1,2.2,1.9,4.4,2.7,6.6c2-1.2,4.2-2.1,6.6-2.5
	c2.3-0.1,3.5-1.3,3.6-3.6c3-1.3,3.1-1.4,7.7-2.4c4.2-0.8,8.2-1.8,12.3-2.8c2.4,1.1,4.9,1.9,7.1,2.5c0.2-0.5,0.7-2.4,1-4.5
	c3.2-0.8,6.3-1.7,9.5-2.6c8-2.3,19.2-6.8,27.7-3.9c4.6,1.6,13.2,9.1,10.8,14.9c-1-0.2-2-0.3-3-0.4c0.6-0.5,1.7,20.4,1.5,22.1
	c-0.4,4.5-3.6,14.8,1.4,16.4c3.9,1.2,12-6.9,16.9-7.4c2.6-0.2,5,3.1,7.4,0.9c2.4-2.2-0.1-5.8-1.2-7.7c8.9,1,4.8,23.7,14.8,19.7
	c-1.5,2.4-3.5,4.4-3,7.5c5-2.7,7.6,1,10.6,4.4c-3.2,5.4-16.8,3.7-16.8,13.9c-0.1,13.2,12.8,1.6,16.4-3c2.1-2.7,6.3-5.9,7.9-8.5
	c4.2-0.3,4.8-2.3,1.9-6c-0.4-3.1,0-6.1,1.1-9c1.4-5.1,6.2-10,6.9-15.2c1.1-7.2,0.9-3.3-5.3-6.7c7.9-1.4,15.1-6.2,23.3-6
	c-0.1-0.2-3.6,8.2-3.1,10.4c0.7,2.8,3,5.1,4.3,7.7c0.7,1.5,2.1,8.6,3.3,9.9c8.2,8.1,26.8-6.9,18.5-16.8c4.6,0.8,8.7,3.8,12.5,6.3
	c3,2.1,7.3,4.8,9.7,7.4c6.3,6.8,2.1,1.9,1.2,9.4c5.3,1.7,12,1.2,17.6,1.7c-2.6,7.3-1.9,5,2.8,10c3,3.2,8,6.4,12,8.3
	c0.6-1,3.8-8.6,3-9.9c-1.1-2-5.2,0.8-6.4-0.4c-3.9-3.7-2.5-9.8-7.6-13.3c4.7-1.8,10.4-2.3,13.7-6.5c3.3-4.2-0.1-11.4,2.1-14.2
	c2.5-3.3,20.2-0.6,24.3-1.7c23.7-6.5-5-28.4,10.2-39.9c1.5,5.1-4.5,15.9,1.9,19.2c5.8,3.1,12.7-7.5,16.9,0.9c4,8-8.3-2.2-9.8-0.8
	c-5.3,4.9,10.4,9.6,5.3,16.9c-3-2.9-5.9-5.7-8.9-8.6c-4.2,8.7-5.6,18.3-2.3,27.5c-4.3,0.8-6,3.4-7.4,7.4c6.7,2.9,10.9-3.4,15-8
	c2.3,1.9-0.1,5.2,2.7,6.9c1.5-0.7,3.2-3.9,4.7-5.1c2.4-1.8,5.8-3,8.4-4.8c2.8,10.7-6.8,20.3-4.7,30.5c2.7,13.2,9.9,1.5,12.2-5.1
	c5,9.5,9.3,24.7,18.2,31.3c9,6.6,13.7-8.1,8.5-8.9c5.7-6.7,6.3-14.2,16.2-8.7c-13,3.7-13.9,20.8-19.9,30.7c-3.1,5.1-3.2,4.6-8.1,5.9
	c-2.5,0.6-11-1.4-10.4,4.2c0.7,7,9.1,1.6,12.3,1.4c7.5-0.6,5.1,1.3,10.9-3.5c4.7-3.9,10.8-8,14.7-12.6c1.8-2.1,3.4-3.9,4.1-6.7
	c0.5-1.9-1-5.5-0.3-7c5.5-11.9,9.1,9.5,12.5,10.9c3.2,1.3,12.8-3.3,16.5-4.3c6.5-1.8,13.5-3.7,18.7-8.5c2.9-2.7,7.9-9.1,6.8-13.5
	c-1.8-6.8-6.7-1.8-11.5-2.6c-12.3-2.1,2.7-12.9,4.7-18.3c3,5.4-3.1,11.8,2.7,15.9c5.4,3.8,16-0.8,21.6-2.4c-3.8-5.5-7.4-2.2-6.8-9.4
	c0.3-4.6,4.5-7.6,3.6-12.7c7.5,5.2,17,2.7,24.3,8.4c2.2-9.6,11.9-10.8,18.5-16.3c1.3,2.2,2.4,4.5,3.5,6.8c2.7-2,2.1-7.2,6-8
	c2.6,6.8-3.1,15.5-11,14.8c-2.7-0.3-4-4.5-6.3-4.3c-2.8,0.2-7.2,7.6-8.5,9.8c-3.7,6.5-5.5,19.1,4,20.2c2.8,0.3,5.6-5,8.9-2.6
	c3.1,2.2,1.6,7.1,1.7,10.4c0.4,10.9,1.4,4.2,8.6,7.4c5.4,2.4,5.6,13.4,9.8,18.3c6.9,7.9,16.4,7.7,25.5,4.2c4.3-1.7,8.2-4.1,11.8-7
	c2.5-2,5.6-7,8.7-8.1c3.2,8.3-12.6,9.9-12.4,17.2c3.7,1.5,21-1.8,23.7-3.6c5.7-3.8,7.6-10.7-0.4-11.8c0.4-5.9,5.9-7.2,10.3-9.4
	c1.2,5.6,1.5,4.5,6,8.8c1.8,1.7,3.5,5.4,5.5,6.5c8.9,5,23.2-2.8,31.9-5c3.4-0.9,9.3-0.1,12.2-1.3c3.9-1.5,1.1-0.7,5.3-4.8
	c7.5-7.2,14.9-12.4,23.5-18.2c2.2-1.5,4-3.2,5.4-5c0.1,0.1,0.1,0.2,0.2,0.4c3,5.3,8.2,10.4,12.1,15.1c4.9,5.8,2.8,3.5,10.1,5.4
	c3.1,0.8,10.4,7.6,12.4,0.8c1.5-5.4-7.1-5-9.5-6.1c-4.6-2.1-4.8-1.6-6.9-7.2c-3.7-9.7-2.3-24.3-10.7-31.6c0.1-1,0.3-2,0.4-3
	c7-0.8,6.9,5.7,10.7,12.4c-5.3-0.1-3.3,15.2,6.7,10.3c9.9-4.8,16.9-19,23.5-27.5c1.1,6.9,6.1,19.7,11.1,7.2
	c3.9-9.7-3.8-20.8,0.8-30.9c2.2,2.2,5.4,4,7.4,6.3c1.3,1.4,2.4,4.9,3.7,5.8c3.1-1.1,1.2-4.9,3.9-6.3c3.1,5.3,6.1,12.3,13.3,10.6
	c-0.6-4.2-1.8-7-5.9-8.6c4.9-8.5,5.3-18.1,2.7-27.4c-3.4,2.3-6.9,4.6-10.3,6.8c-3.7-8.2,12.5-9.9,8.2-15.7c-1.2-1.6-15.2,6.2-9.8-1
	c5.6-7.5,10.5,4.2,16.8,2.2c6.9-2.2,3-13.8,5.3-18.6c12.8,14-19.4,30.3,2.8,41c0.7,0.3,1.9,0.6,3.4,0.9V411.8z M141.7,1287.2
	c1.4-2.6,2.2-5.8,6.6-6.1C146.6,1284.3,144,1285.6,141.7,1287.2z M353.3,1338.5c1.9-2.3,3.2-5.3,7.6-4.8
	C358.7,1336.5,355.9,1337.3,353.3,1338.5z M1064.1,411.8h942v845.3c-5.7-2.5-11.2-5.1-16.9-7.9c-7.4-3.7-17.7-10.1-26.5-8.8
	c-4.8,0.7-14.6,6.5-13.3,12.7c1,0,2,0.1,3,0.2c-0.5-0.6-5.4,19.8-5.5,21.5c-0.4,4.5,0.9,15.2-4.4,15.9c-4.1,0.5-10.5-9-15.3-10.3
	c-2.5-0.7-5.5,2.1-7.4-0.4c-2-2.7,1.1-5.7,2.6-7.4c-9-0.7-9,22.4-18.2,16.7c1.1,2.6,2.7,5,1.6,7.9c-4.4-3.6-7.7-0.4-11.3,2.4
	c2.2,5.9,15.8,6.6,14,16.7c-2.3,13-12.8-0.7-15.6-5.9c-1.6-3-5.1-6.9-6.3-9.8c-4.1-1-4.3-3.1-0.8-6.3c0.9-3,1.1-6,0.6-9.1
	c-0.5-5.3-4.2-11-4.1-16.2c0.2-7.3-0.2-3.4,6.4-5.7c-7.5-2.8-13.7-8.8-21.8-10.1c0.1-0.1,2.1,8.7,1.1,10.8c-0.5,1.1-1.2,2.1-2.1,3
	c1.5,6.8,2.1,15.5-1.6,18.4c-2-0.8-3.7-4.9-5.4-7.8c-0.6,1.1-1.2,2-1.6,2.3c-8,5.4-20.2-6.3-18.1-15.1c-1.6-0.9-3.1-2-4.4-3.3
	c-2.1,0.7-4.2,1.7-6.1,2.5c-3.3,1.5-8,3.4-10.9,5.5c-7.5,5.6-2.4,1.5-2.9,9c-0.7,0.1-1.5,0.1-2.2,0.2c-0.1,0.7-0.4,1.4-0.9,2.2
	c16.9,0.7,12.2,28.5,31.2,23.9c1.8,17.1-15.4,7.3-22.2,14.8c-1.7-1.3,0.4-2.5,0-3.9c-9,3.1,2.9-18.3-1.2-21.2
	c-1,2.2-1.9,4.4-2.7,6.6c-2-1.2-4.2-2.1-6.6-2.5c-2.3-0.1-3.5-1.3-3.6-3.6c-3-1.3-3.1-1.4-7.7-2.4c-4.2-0.8-8.2-1.8-12.3-2.8
	c-2.4,1.1-4.9,1.9-7.1,2.5c-0.2-0.5-0.7-2.4-1-4.5c-3.2-0.8-6.3-1.7-9.5-2.6c-8-2.3-19.2-6.8-27.7-3.9c-4.6,1.6-13.2,9.1-10.8,14.9
	c1-0.2,2-0.3,3-0.4c-0.6-0.5-1.7,20.4-1.5,22.1c0.4,4.5,3.6,14.8-1.4,16.4c-3.9,1.2-12-6.9-16.9-7.4c-2.6-0.2-5,3.1-7.4,0.9
	c-2.4-2.2,0.1-5.8,1.2-7.7c-8.9,1-4.8,23.7-14.8,19.7c1.5,2.4,3.5,4.4,3,7.5c-5-2.7-7.6,1-10.6,4.4c3.2,5.4,16.8,3.7,16.8,13.9
	c0.1,13.2-12.8,1.6-16.4-3c-2.1-2.7-6.3-5.9-7.9-8.5c-4.2-0.3-4.8-2.3-1.9-6c0.4-3.1,0-6.1-1.1-9c-1.4-5.1-6.2-10-6.9-15.2
	c-1.1-7.2-0.9-3.3,5.3-6.7c-7.9-1.4-15.1-6.2-23.3-6c0.1-0.2,3.6,8.2,3.1,10.4c-0.7,2.8-3,5.1-4.3,7.7c-0.7,1.5-2.1,8.6-3.3,9.9
	c-8.2,8.1-26.8-6.9-18.5-16.8c-4.6,0.8-8.7,3.8-12.5,6.3c-3,2.1-7.3,4.8-9.7,7.4c-6.3,6.8-2.1,1.9-1.2,9.4c-5.3,1.7-12,1.2-17.6,1.7
	c2.6,7.3,1.9,5-2.8,10c-3,3.2-8,6.4-12,8.3c-0.6-1-3.8-8.6-3-9.9c1.1-2,5.2,0.8,6.4-0.4c3.9-3.7,2.5-9.8,7.6-13.3
	c-4.7-1.8-10.4-2.3-13.7-6.5c-3.3-4.2,0.1-11.4-2.1-14.2c-2.5-3.3-20.2-0.6-24.3-1.7c-23.7-6.5,5-28.4-10.2-39.9
	c-1.5,5.1,4.5,15.9-1.9,19.2c-5.8,3.1-12.7-7.5-16.9,0.9c-4,8,8.3-2.2,9.8-0.8c5.3,4.9-10.4,9.6-5.3,16.9c3-2.9,5.9-5.7,8.9-8.6
	c4.2,8.7,5.6,18.3,2.3,27.5c4.3,0.8,6,3.4,7.4,7.4c-6.7,2.9-10.9-3.4-15-8c-2.3,1.9,0.1,5.2-2.7,6.9c-1.5-0.7-3.2-3.9-4.7-5.1
	c-2.4-1.8-5.8-3-8.4-4.8c-2.8,10.7,6.8,20.3,4.7,30.5c-2.7,13.2-9.9,1.5-12.2-5.1c-5,9.5-9.3,24.7-18.2,31.3
	c-9,6.6-13.7-8.1-8.5-8.9c-5.7-6.7-6.3-14.2-16.2-8.7c13,3.7,13.9,20.8,19.9,30.7c3.1,5.1,3.2,4.6,8.1,5.9c2.5,0.6,11-1.4,10.4,4.2
	c-0.7,7-9.1,1.6-12.3,1.4c-7.5-0.6-5.1,1.3-10.9-3.5c-4.7-3.9-10.8-8-14.7-12.6c-1.8-2.1-3.4-3.9-4.1-6.7c-0.5-1.9,1-5.5,0.3-7
	c-5.5-11.9-9.1,9.5-12.5,10.9c-3.2,1.3-12.8-3.3-16.5-4.3c-6.5-1.8-13.5-3.7-18.7-8.5c-2.9-2.7-7.9-9.1-6.8-13.5
	c1.8-6.8,6.7-1.8,11.5-2.6c12.3-2.1-2.7-12.9-4.7-18.3c-3,5.4,3.1,11.8-2.7,15.9c-5.4,3.8-16-0.8-21.6-2.4c3.8-5.5,7.4-2.2,6.8-9.4
	c-0.3-4.6-4.5-7.6-3.6-12.7c-7.5,5.2-17,2.7-24.3,8.4c-2.2-9.6-11.9-10.8-18.5-16.3c-1.3,2.2-2.4,4.5-3.5,6.8c-2.7-2-2.1-7.2-6-8
	c-2.6,6.8,3.1,15.5,11,14.8c2.7-0.3,4-4.5,6.3-4.3c2.8,0.2,7.2,7.6,8.5,9.8c3.7,6.5,5.5,19.1-4,20.2c-2.8,0.3-5.6-5-8.9-2.6
	c-3.1,2.2-1.6,7.1-1.7,10.4c-0.4,10.9-1.4,4.2-8.6,7.4c-5.4,2.4-5.6,13.4-9.8,18.3c-6.9,7.9-16.4,7.7-25.5,4.2
	c-4.3-1.7-8.2-4.1-11.8-7c-2.5-2-5.6-7-8.7-8.1c-3.2,8.3,12.6,9.9,12.4,17.2c-3.7,1.5-21-1.8-23.7-3.6c-5.7-3.8-7.6-10.7,0.4-11.8
	c-0.4-5.9-5.9-7.2-10.3-9.4c-1.2,5.6-1.5,4.5-6,8.8c-1.8,1.7-3.5,5.4-5.5,6.5c-8.9,5-23.2-2.8-31.9-5c-3.4-0.9-9.3-0.1-12.2-1.3
	c-3.9-1.5-1.1-0.7-5.3-4.8c-7.5-7.2-14.9-12.4-23.5-18.2c-2.2-1.5-4-3.2-5.4-5c-0.1,0.1-0.1,0.2-0.2,0.4c-3,5.3-8.2,10.4-12.1,15.1
	c-4.9,5.8-2.8,3.5-10.1,5.4c-3.1,0.8-10.4,7.6-12.4,0.8c-1.5-5.4,7.1-5,9.5-6.1c4.6-2.1,4.8-1.6,6.9-7.2c3.7-9.7,2.3-24.3,10.7-31.6
	c-0.1-1-0.3-2-0.4-3c-7-0.8-6.9,5.7-10.7,12.4c5.3-0.1,3.3,15.2-6.7,10.3c-9.9-4.8-16.9-19-23.5-27.5c-1.1,6.9-6.1,19.7-11.1,7.2
	c-3.9-9.7,3.8-20.8-0.8-30.9c-2.2,2.2-5.4,4-7.4,6.3c-1.3,1.4-2.4,4.9-3.7,5.8c-3.1-1.1-1.2-4.9-3.9-6.3
	c-3.1,5.3-6.1,12.3-13.3,10.6c0.6-4.2,1.8-7,5.9-8.6c-4.9-8.5-5.3-18.1-2.7-27.4c3.4,2.3,6.9,4.6,10.3,6.8
	c3.7-8.2-12.5-9.9-8.2-15.7c1.2-1.6,15.2,6.2,9.8-1c-5.6-7.5-10.5,4.2-16.8,2.2c-6.9-2.2-3-13.8-5.3-18.6c-12.8,14,19.4,30.3-2.8,41
	c-0.7,0.3-1.9,0.6-3.4,0.9V411.8z M1902.3,1287.2c-1.4-2.6-2.2-5.8-6.6-6.1C1897.4,1284.3,1900,1285.6,1902.3,1287.2z
	 M1690.7,1338.5c-1.9-2.3-3.2-5.3-7.6-4.8C1685.4,1336.5,1688.1,1337.3,1690.7,1338.5z"/>
<path id="color2" fill="#E31F26" d="M980,1544.5c-0.1,0.1-0.2,0.2-0.3,0.4c-3.1,4.2-6.1,8-8.4,12.8c-1.2,2.6-1.2,5.7-4.2,6.8
	c-11.8,4.2-21.2-30.3-8.2-35.6c-7.7-1.9-15.8,4.4-22.2,8c-2.4,1.3-8,2.9-9.8,4.9c-3.7,4.1-0.5,6.6-1.6,12
	c-6.3-0.9-12.2-3.8-18.6-4.6c0.2,4.4,1.4,8.1-1.1,11.4c-1.7,2.3-11.1,6.6-14,7.7c-4.9,2-4.2,3.1-6.1-0.4c-0.1-0.1-0.1-0.3-0.2-0.5
	c0-0.2,0.1-0.4,0.1-0.6c0.8-4.2,1.6-8.3,2.4-12.5c6.2,0.6,6.1,4.7,9.7-3c1.1-2.4,1.4-5.2,2.9-7.4c0.1-0.2,5-3.9,5.2-4.8
	c-15.1-11.5-12-20.9-8.7-37.4c-1-0.3-2-0.6-3-0.9c-0.1-2.1,0-4.3,0.7-6.2c0.4-1,4-0.4,5-2.3c3.7-7.1-4.3-37.3-13.7-28.8
	c-4.7,4.2,0.2,17.2-1.5,18.3c-4.6,3.2-4.4-6.1-9.1-5.6c-2.2,6.2,0.7,12.8-1,18.9c-5-2.7-8.2-7.3-7.9-16.4
	c0.5-14.1,16.8-37.6,8.3-50.8c-0.8,6-0.2,26.9-8.5,28c-6.5,0.9-10.9-14.4-16.7-4.4c-7.3,12.3,10.5-3.7,10.2,5.5
	c-0.4,9.2-16.1,8.9-10.5,20.2c2.8-2.2,5.5-4.5,8.3-6.7c-1.2,4.8,1.2,9.6,4.1,14.2c-1.1,9.2-4.5,18.6-8.2,25.6
	c6.1-0.4,6.1,9.7,5.4,13.6c-9.4,1.2-9.2-13.3-12.1-18.5c-3.2,2.8-1.7,8-5.7,10.3c0.5-9.3-6.4-12.1-9-20.4c-6.3,13-2.2,28.5-4.6,42.3
	c0,0,0,0.1,0,0.1c-8.4-7.9-16.1-16.6-23.8-25.1c-8.6-9.5-18-22.7-30.1-28.1c-14.8-6.6-22.6,6.4-27.6,18.4c2.1-0.1,4.1,0,6.1,0.3
	c-14.7,16.6-12.3,41.5-18,62.2c-2.3-1.9-4.6-3.9-6.7-5.5c-7.4-5.5-14-11.2-16.7-20.4c-1.3-4.4-3.3-18.5,0.8-21.6
	c8-6.2,9.9,8.7,15.8,1.2c7.1-9-3.5-18.5-3.7-27.5c-5.6,5,0.3,18.6-5.4,22.8c-6.1,4.5-19.1-5-24.5-7.9c6.4-3.4,10.5-4.2,10.8-11.9
	c0.2-5.9,0.9-14.8-0.1-20.2c0.4,2-13.2,2.6-15.4,2.8c-2.7,0.3-10.1,4.4-11.9,3.9c-0.9-13.2-8.5-17-14.8-27.8
	c-2.3,3.3-2.9,7.4-5.5,10.4c-0.6-4.8-0.3-10.4-4.2-13.8c-4.4,10.5-1.4,19.7,7.7,26.3c2.7-2.5,5.3-5.1,8-7.6
	c6.8,16,11.1,35.4-2.7,49.1c-4.4-4.7-7.9-9.8-12-4.6c-0.2-3.8,0-7.5,1.3-10.2c3.4,1.2,6.8,2.1,10.4,2.6c-4-2.6-24.3-30.3-29.8-26
	c5.5,11.6,3.1,17.8-4.1,27.7c-4,5.4-7.8,10.1-10.7,16.2c-1.5,3.2-1.5,7.3-5.4,8.7c-15,5.3-27-38.5-10.5-45.2
	c-9.8-2.4-20.1,5.6-28.3,10.1c-3.1,1.7-10.1,3.7-12.5,6.3c-4.7,5.2-0.6,8.4-2,15.2c-8.1-1.1-15.5-4.8-23.6-5.8
	c0.3,5.5,1.8,10.3-1.3,14.5c-2.1,2.9-14.1,8.3-17.8,9.8c-6.3,2.6-5.3,3.9-7.8-0.5c-1.1-2,0.3-15.2,2-17.5c8.8,0.3,8.5,6.4,13.3-3.7
	c1.4-3,1.7-6.6,3.7-9.4c0.2-0.3,6.4-4.9,6.6-6.1c-19.2-14.6-15.3-26.6-11.1-47.6c-18.3-5.7-39.7-3.4-38.9-28.9
	c0.6-17.9,21.3-47.8,10.5-64.6c-1.1,7.6-0.3,34.2-10.8,35.6c-8.3,1.1-13.8-18.3-21.3-5.6c-9.2,15.6,13.4-4.7,12.9,7
	c-0.5,11.7-20.5,11.3-13.4,25.6c4.8-3.9,9.5-7.7,14.3-11.6c5.4,16.3-1.3,39.1-8.9,53.7c7.8-0.5,7.7,12.3,6.8,17.3
	c-12,1.5-11.7-16.9-15.4-23.5c-4,3.5-2.2,10.2-7.3,13.1c0.6-11.8-8.2-15.3-11.4-26c-8.1,16.6-2.8,36.3-5.8,53.8
	c-0.9,5.2-3.9,22.1-11.3,17c-5.4-3.7-3.6-18.3-3.2-23.7c-5.3,1.1-12.2,18.8-14.9,23.3c-5.4,9-11.2,18.5-18.6,26
	c-0.4,0.4-0.8,0.8-1.1,1.1c0.1-1.4,0.7-3,2-5.3c3.9-6.8,7.2-10.8,7-19.4c-3.7,10.2-10.2,22.5-19.8,29.4c-2-0.9-3.5-3.7-4.2-8.9
	c-0.5-4.1-0.2-9.3,0.7-13.3c0.1-0.5,4.2,0.2,4.8-0.5c-2.2-4.6-5.2-37.5-17.6-22.1c14.6,12.1,9.3,31.5,8,49.1
	c-0.6,0.2-1.2,0.4-1.8,0.5c-7.4,1.8-13.4-0.5-18.2-4.7c-0.2-1-0.4-1.9-0.5-2.9c-0.8-7.2,4.4-14,4-19.9c-1.2-16.3-10.8-0.6-14.5,6.7
	c-0.9-2.1-1.8-4.1-2.5-6.1c-1.5-4-2.1-11.7-5.9-13.7c-8.2-4.2-10.6,6.2-13.4-6.5c-1.2-5.7-0.7-14.4-3.8-19.5
	c-5.3-8.6-9.7-2.1-15.2,3.9c-4.3-4.2-7.1-8.9-8.8-13.9c0.4-0.7,0.9-1.3,1.4-1.7c10.2-7.8,12.6,11,20.1,1.5c9-11.5-4.5-23.5-4.8-35
	c-7.1,6.4,0.4,23.6-6.9,29c-2.9,2.1-7,1.8-11.3,0.3c-2-12.4,1.9-25.9,7-37.8c3.1,3,6.3,6,9.4,9c10.7-7.7,14.3-18.6,9.1-30.9
	c-4.5,4-4.2,10.7-4.9,16.2c-3.1-3.5-3.9-8.3-6.5-12.2c-7.4,12.7-16.4,17.1-17.4,32.6c-0.6,0.1-1.6-0.1-2.9-0.5
	c0.1-0.6,0.1-1.2,0.1-1.9c0.2-7.5,1.1-18.9-0.2-25.7c0.5,2.6-16.8,3.2-19.6,3.5c-3.4,0.3-12.8,5.6-15.1,5
	c-1.1-16.8-10.8-21.6-18.8-35.3c-2.9,4.1-3.6,9.3-7,13.2c-0.8-6-0.4-13.3-5.3-17.6c-5.6,13.3-1.8,25.1,9.8,33.4
	c3.4-3.2,6.8-6.5,10.2-9.7c8.6,20.1,14,44.3-2.8,61.6c0.1-5.3,0.1-10.7-3.1-13.6c-0.1,3-1.1,6.1-2.4,9.2c-3.9-3.9-7.5-5.7-11.6,1
	c-3.4,5.5-2.8,14.9-4.1,21.1c-3,13.8-5.6,2.4-14.5,7c-4.1,2.1-4.7,10.5-6.4,14.8c-4.1,10.9-10.9,24.3-21.8,28.5
	c-0.2-9.2,1.5-17.8,9.2-24.1c-11.5-14.3-14.2,16.2-16.2,20.4c0.6,0.6,4.3,0,4.5,0.4c0.3,1.2,0.5,2.5,0.6,3.9c-3.2,0.9-6.7,1-10.6,0
	c-16.5-4-27.2-22.4-32.4-37.1c0,1.8,0.1,3.4,0.3,4.8c-1-1.2-2.1-2-3-2.2c0.4,4.9,2,18.4-3,21.9c-6.8,4.7-9.6-10.9-10.4-15.7
	c-2.8-16.2,2.1-34.4-5.4-49.7c-3,9.8-11.1,13.1-10.5,24c-4.7-2.7-3-8.9-6.7-12.1c-3.4,6-3.1,23-14.2,21.7
	c-0.8-4.6-0.9-16.4,6.3-15.9c-7-13.4-13.3-34.5-8.3-49.6c4.4,3.6,8.8,7.1,13.2,10.7c6.6-13.2-11.9-12.9-12.3-23.7
	c-0.4-10.8,20.4,8,11.9-6.5c-6.9-11.7-12,6.2-19.7,5.2c-9.7-1.3-9-25.8-9.9-32.9c-10,15.5,9.2,43.1,9.7,59.7
	c0.6,17.7-10.4,20.9-23,23.6v69.6c0.8,4.4,1.1,10.2,0.4,11.4c-0.2,0.3-0.3,0.6-0.4,0.8v134.6c110,0,219.9,0,329.9,0c0,0,0-0.1,0-0.1
	c59.8,0,119.5,0,179.3,0c19.3,0,38.5,0,57.8,0c0,0.1,0,0.2,0,0.2c79.1,0,158.3,0,237.4,0c6.6,0.5,18.6,1.6,21.2,0
	c16.7,0,33.5,0,50.2,0c22.1,0,44.1,0,66.2,0V1544.5z M859.6,1468.7c0.2-0.2,0.4-0.3,0.6-0.5c0.9,2.6,1.3,5.3,1.5,8.2
	C860.8,1474.1,860.1,1471.5,859.6,1468.7z M1064.1,1544.5c0.1,0.1,0.2,0.2,0.3,0.4c3.1,4.2,6.1,8,8.4,12.8c1.2,2.6,1.2,5.7,4.2,6.8
	c11.8,4.2,21.2-30.3,8.2-35.6c7.7-1.9,15.8,4.4,22.2,8c2.4,1.3,8,2.9,9.8,4.9c3.7,4.1,0.5,6.6,1.6,12c6.3-0.9,12.2-3.8,18.6-4.6
	c-0.2,4.4-1.4,8.1,1.1,11.4c1.7,2.3,11.1,6.6,14,7.7c4.9,2,4.2,3.1,6.1-0.4c0.1-0.1,0.1-0.3,0.2-0.5c0-0.2-0.1-0.4-0.1-0.6
	c-0.8-4.2-1.6-8.3-2.4-12.5c-6.2,0.6-6.1,4.7-9.7-3c-1.1-2.4-1.4-5.2-2.9-7.4c-0.1-0.2-5-3.9-5.2-4.8c15.1-11.5,12-20.9,8.7-37.4
	c1-0.3,2-0.6,3-0.9c0.1-2.1,0-4.3-0.7-6.2c-0.4-1-4-0.4-5-2.3c-3.7-7.1,4.3-37.3,13.7-28.8c4.7,4.2-0.2,17.2,1.5,18.3
	c4.6,3.2,4.4-6.1,9.1-5.6c2.2,6.2-0.7,12.8,1,18.9c5-2.7,8.2-7.3,7.9-16.4c-0.5-14.1-16.8-37.6-8.3-50.8c0.8,6,0.2,26.9,8.5,28
	c6.5,0.9,10.9-14.4,16.7-4.4c7.3,12.3-10.5-3.7-10.2,5.5c0.4,9.2,16.1,8.9,10.5,20.2c-2.8-2.2-5.5-4.5-8.3-6.7
	c1.2,4.8-1.2,9.6-4.1,14.2c1.1,9.2,4.5,18.6,8.2,25.6c-6.1-0.4-6.1,9.7-5.4,13.6c9.4,1.2,9.2-13.3,12.1-18.5c3.2,2.8,1.7,8,5.7,10.3
	c-0.5-9.3,6.4-12.1,9-20.4c6.3,13,2.2,28.5,4.6,42.3c0,0,0,0.1,0,0.1c8.4-7.9,16.1-16.6,23.8-25.1c8.6-9.5,18-22.7,30.1-28.1
	c14.8-6.6,22.6,6.4,27.6,18.4c-2.1-0.1-4.1,0-6.1,0.3c14.7,16.6,12.3,41.5,18,62.2c2.3-1.9,4.6-3.9,6.7-5.5
	c7.4-5.5,14-11.2,16.7-20.4c1.3-4.4,3.3-18.5-0.8-21.6c-8-6.2-9.9,8.7-15.8,1.2c-7.1-9,3.5-18.5,3.7-27.5c5.6,5-0.3,18.6,5.4,22.8
	c6.1,4.5,19.1-5,24.5-7.9c-6.4-3.4-10.5-4.2-10.8-11.9c-0.2-5.9-0.9-14.8,0.1-20.2c-0.4,2,13.2,2.6,15.4,2.8
	c2.7,0.3,10.1,4.4,11.9,3.9c0.9-13.2,8.5-17,14.8-27.8c2.3,3.3,2.9,7.4,5.5,10.4c0.6-4.8,0.3-10.4,4.2-13.8
	c4.4,10.5,1.4,19.7-7.7,26.3c-2.7-2.5-5.3-5.1-8-7.6c-6.8,16-11.1,35.4,2.7,49.1c4.4-4.7,7.9-9.8,12-4.6c0.2-3.8,0-7.5-1.3-10.2
	c-3.4,1.2-6.8,2.1-10.4,2.6c4-2.6,24.3-30.3,29.8-26c-5.5,11.6-3.1,17.8,4.1,27.7c4,5.4,7.8,10.1,10.7,16.2c1.5,3.2,1.5,7.3,5.4,8.7
	c15,5.3,27-38.5,10.5-45.2c9.8-2.4,20.1,5.6,28.3,10.1c3.1,1.7,10.1,3.7,12.5,6.3c4.7,5.2,0.6,8.4,2,15.2c8.1-1.1,15.5-4.8,23.6-5.8
	c-0.3,5.5-1.8,10.3,1.3,14.5c2.1,2.9,14.1,8.3,17.8,9.8c6.3,2.6,5.3,3.9,7.8-0.5c1.1-2-0.3-15.2-2-17.5c-8.8,0.3-8.5,6.4-13.3-3.7
	c-1.4-3-1.7-6.6-3.7-9.4c-0.2-0.3-6.4-4.9-6.6-6.1c19.2-14.6,15.3-26.6,11.1-47.6c18.3-5.7,39.7-3.4,38.9-28.9
	c-0.6-17.9-21.3-47.8-10.5-64.6c1.1,7.6,0.3,34.2,10.8,35.6c8.3,1.1,13.8-18.3,21.3-5.6c9.2,15.6-13.4-4.7-12.9,7
	c0.5,11.7,20.5,11.3,13.4,25.6c-4.8-3.9-9.5-7.7-14.3-11.6c-5.4,16.3,1.3,39.1,8.9,53.7c-7.8-0.5-7.7,12.3-6.8,17.3
	c12,1.5,11.7-16.9,15.4-23.5c4,3.5,2.2,10.2,7.3,13.1c-0.6-11.8,8.2-15.3,11.4-26c8.1,16.6,2.8,36.3,5.8,53.8
	c0.9,5.2,3.9,22.1,11.3,17c5.4-3.7,3.6-18.3,3.2-23.7c5.3,1.1,12.2,18.8,14.9,23.3c5.4,9,11.2,18.5,18.6,26c0.4,0.4,0.8,0.8,1.1,1.1
	c-0.1-1.4-0.7-3-2-5.3c-3.9-6.8-7.2-10.8-7-19.4c3.7,10.2,10.2,22.5,19.8,29.4c2-0.9,3.5-3.7,4.2-8.9c0.5-4.1,0.2-9.3-0.7-13.3
	c-0.1-0.5-4.2,0.2-4.8-0.5c2.2-4.6,5.2-37.5,17.6-22.1c-14.6,12.1-9.3,31.5-8,49.1c0.6,0.2,1.2,0.4,1.8,0.5
	c7.4,1.8,13.4-0.5,18.2-4.7c0.2-1,0.4-1.9,0.5-2.9c0.8-7.2-4.4-14-4-19.9c1.2-16.3,10.8-0.6,14.5,6.7c0.9-2.1,1.8-4.1,2.5-6.1
	c1.5-4,2.1-11.7,5.9-13.7c8.2-4.2,10.6,6.2,13.4-6.5c1.2-5.7,0.7-14.4,3.8-19.5c5.3-8.6,9.7-2.1,15.2,3.9c4.3-4.2,7.1-8.9,8.8-13.9
	c-0.4-0.7-0.9-1.3-1.4-1.7c-10.2-7.8-12.6,11-20.1,1.5c-9-11.5,4.5-23.5,4.8-35c7.1,6.4-0.4,23.6,6.9,29c2.9,2.1,7,1.8,11.3,0.3
	c2-12.4-1.9-25.9-7-37.8c-3.1,3-6.3,6-9.4,9c-10.7-7.7-14.3-18.6-9.1-30.9c4.5,4,4.2,10.7,4.9,16.2c3.1-3.5,3.9-8.3,6.5-12.2
	c7.4,12.7,16.4,17.1,17.4,32.6c0.6,0.1,1.6-0.1,2.9-0.5c-0.1-0.6-0.1-1.2-0.1-1.9c-0.2-7.5-1.1-18.9,0.2-25.7
	c-0.5,2.6,16.8,3.2,19.6,3.5c3.4,0.3,12.8,5.6,15.1,5c1.1-16.8,10.8-21.6,18.8-35.3c2.9,4.1,3.6,9.3,7,13.2c0.8-6,0.4-13.3,5.3-17.6
	c5.6,13.3,1.8,25.1-9.8,33.4c-3.4-3.2-6.8-6.5-10.2-9.7c-8.6,20.1-14,44.3,2.8,61.6c-0.1-5.3-0.1-10.7,3.1-13.6
	c0.1,3,1.1,6.1,2.4,9.2c3.9-3.9,7.5-5.7,11.6,1c3.4,5.5,2.8,14.9,4.1,21.1c3,13.8,5.6,2.4,14.5,7c4.1,2.1,4.7,10.5,6.4,14.8
	c4.1,10.9,10.9,24.3,21.8,28.5c0.2-9.2-1.5-17.8-9.2-24.1c11.5-14.3,14.2,16.2,16.2,20.4c-0.6,0.6-4.3,0-4.5,0.4
	c-0.3,1.2-0.5,2.5-0.6,3.9c3.2,0.9,6.7,1,10.6,0c16.5-4,27.2-22.4,32.4-37.1c0,1.8-0.1,3.4-0.3,4.8c1-1.2,2.1-2,3-2.2
	c-0.4,4.9-2,18.4,3,21.9c6.8,4.7,9.6-10.9,10.4-15.7c2.8-16.2-2.1-34.4,5.4-49.7c3,9.8,11.1,13.1,10.5,24c4.7-2.7,3-8.9,6.7-12.1
	c3.4,6,3.1,23,14.2,21.7c0.8-4.6,0.9-16.4-6.3-15.9c7-13.4,13.3-34.5,8.3-49.6c-4.4,3.6-8.8,7.1-13.2,10.7
	c-6.6-13.2,11.9-12.9,12.3-23.7c0.4-10.8-20.4,8-11.9-6.5c6.9-11.7,12,6.2,19.7,5.2c9.7-1.3,9-25.8,9.9-32.9
	c10,15.5-9.2,43.1-9.7,59.7c-0.6,17.7,10.4,20.9,23,23.6v69.6c-0.8,4.4-1.1,10.2-0.4,11.4c0.2,0.3,0.3,0.6,0.4,0.8v134.6
	c-110,0-219.9,0-329.9,0c0,0,0-0.1,0-0.1c-59.8,0-119.5,0-179.3,0c-19.3,0-38.5,0-57.8,0c0,0.1,0,0.2,0,0.2c-79.1,0-158.3,0-237.4,0
	c-6.6,0.5-18.6,1.6-21.2,0c-16.7,0-33.5,0-50.2,0c-22.1,0-44.1,0-66.2,0V1544.5z M1184.5,1468.7c-0.2-0.2-0.4-0.3-0.6-0.5
	c-0.9,2.6-1.3,5.3-1.5,8.2C1183.3,1474.1,1184,1471.5,1184.5,1468.7z"/>
<path id="color3" fill="#66FF47" d="M976.6,1305.8c0.7,0.3,1.9,0.6,3.4,0.9v237.8c-0.1,0.1-0.2,0.2-0.3,0.4c-3.1,4.2-6.1,8-8.4,12.8
	c-1.2,2.6-1.2,5.7-4.2,6.8c-11.8,4.2-21.2-30.3-8.2-35.6c-7.7-1.9-15.8,4.4-22.2,8c-2.4,1.3-8,2.9-9.8,4.9c-3.7,4.1-0.5,6.6-1.6,12
	c-6.3-0.9-12.2-3.8-18.6-4.6c0.2,4.4,1.4,8.1-1.1,11.4c-1.7,2.3-11.1,6.6-14,7.7c-4.9,2-4.2,3.1-6.1-0.4c-0.1-0.1-0.1-0.3-0.2-0.5
	c0-0.2,0.1-0.4,0.1-0.6c0.8-4.2,1.6-8.3,2.4-12.5c6.2,0.6,6.1,4.7,9.7-3c1.1-2.4,1.4-5.2,2.9-7.4c0.1-0.2,5-3.9,5.2-4.8
	c-15.1-11.5-12-20.9-8.7-37.4c-1-0.3-2-0.6-3-0.9c-0.1-2.1,0-4.3,0.7-6.2c0.4-1,4-0.4,5-2.3c3.7-7.1-4.3-37.3-13.7-28.8
	c-4.7,4.2,0.2,17.2-1.5,18.3c-4.6,3.2-4.4-6.1-9.1-5.6c-2.2,6.2,0.7,12.8-1,18.9c-5-2.7-8.2-7.3-7.9-16.4
	c0.5-14.1,16.8-37.6,8.3-50.8c-0.8,6-0.2,26.9-8.5,28c-6.5,0.9-10.9-14.4-16.7-4.4c-7.3,12.3,10.5-3.7,10.2,5.5
	c-0.4,9.2-16.1,8.9-10.5,20.2c2.8-2.2,5.5-4.5,8.3-6.7c-1.2,4.8,1.2,9.6,4.1,14.2c-1.1,9.2-4.5,18.6-8.2,25.6
	c6.1-0.4,6.1,9.7,5.4,13.6c-9.4,1.2-9.2-13.3-12.1-18.5c-3.2,2.8-1.7,8-5.7,10.3c0.5-9.3-6.4-12.1-9-20.4c-6.3,13-2.2,28.5-4.6,42.3
	c0,0,0,0.1,0,0.1c-8.4-7.9-16.1-16.6-23.8-25.1c-8.6-9.5-18-22.7-30.1-28.1c-14.8-6.6-22.6,6.4-27.6,18.4c2.1-0.1,4.1,0,6.1,0.3
	c-14.7,16.6-12.3,41.5-18,62.2c-2.3-1.9-4.6-3.9-6.7-5.5c-7.4-5.5-14-11.2-16.7-20.4c-1.3-4.4-3.3-18.5,0.8-21.6
	c8-6.2,9.9,8.7,15.8,1.2c7.1-9-3.5-18.5-3.7-27.5c-5.6,5,0.3,18.6-5.4,22.8c-6.1,4.5-19.1-5-24.5-7.9c6.4-3.4,10.5-4.2,10.8-11.9
	c0.2-5.9,0.9-14.8-0.1-20.2c0.4,2-13.2,2.6-15.4,2.8c-2.7,0.3-10.1,4.4-11.9,3.9c-0.9-13.2-8.5-17-14.8-27.8
	c-2.3,3.3-2.9,7.4-5.5,10.4c-0.6-4.8-0.3-10.4-4.2-13.8c-4.4,10.5-1.4,19.7,7.7,26.3c2.7-2.5,5.3-5.1,8-7.6
	c6.8,16,11.1,35.4-2.7,49.1c-4.4-4.7-7.9-9.8-12-4.6c-0.2-3.8,0-7.5,1.3-10.2c3.4,1.2,6.8,2.1,10.4,2.6c-4-2.6-24.3-30.3-29.8-26
	c5.5,11.6,3.1,17.8-4.1,27.7c-4,5.4-7.8,10.1-10.7,16.2c-1.5,3.2-1.5,7.3-5.4,8.7c-15,5.3-27-38.5-10.5-45.2
	c-9.8-2.4-20.1,5.6-28.3,10.1c-3.1,1.7-10.1,3.7-12.5,6.3c-4.7,5.2-0.6,8.4-2,15.2c-8.1-1.1-15.5-4.8-23.6-5.8
	c0.3,5.5,1.8,10.3-1.3,14.5c-2.1,2.9-14.1,8.3-17.8,9.8c-6.3,2.6-5.3,3.9-7.8-0.5c-1.1-2,0.3-15.2,2-17.5c8.8,0.3,8.5,6.4,13.3-3.7
	c1.4-3,1.7-6.6,3.7-9.4c0.2-0.3,6.4-4.9,6.6-6.1c-19.2-14.6-15.3-26.6-11.1-47.6c-18.3-5.7-39.7-3.4-38.9-28.9
	c0.6-17.9,21.3-47.8,10.5-64.6c-1.1,7.6-0.3,34.2-10.8,35.6c-8.3,1.1-13.8-18.3-21.3-5.6c-9.2,15.6,13.4-4.7,12.9,7
	c-0.5,11.7-20.5,11.3-13.4,25.6c4.8-3.9,9.5-7.7,14.3-11.6c5.4,16.3-1.3,39.1-8.9,53.7c7.8-0.5,7.7,12.3,6.8,17.3
	c-12,1.5-11.7-16.9-15.4-23.5c-4,3.5-2.2,10.2-7.3,13.1c0.6-11.8-8.2-15.3-11.4-26c-8.1,16.6-2.8,36.3-5.8,53.8
	c-0.9,5.2-3.9,22.1-11.3,17c-5.4-3.7-3.6-18.3-3.2-23.7c-5.3,1.1-12.2,18.8-14.9,23.3c-5.4,9-11.2,18.5-18.6,26
	c-0.4,0.4-0.8,0.8-1.1,1.1c0.1-1.4,0.7-3,2-5.3c3.9-6.8,7.2-10.8,7-19.4c-3.7,10.2-10.2,22.5-19.8,29.4c-2-0.9-3.5-3.7-4.2-8.9
	c-0.5-4.1-0.2-9.3,0.7-13.3c0.1-0.5,4.2,0.2,4.8-0.5c-2.2-4.6-5.2-37.5-17.6-22.1c14.6,12.1,9.3,31.5,8,49.1
	c-0.6,0.2-1.2,0.4-1.8,0.5c-7.4,1.8-13.4-0.5-18.2-4.7c-0.2-1-0.4-1.9-0.5-2.9c-0.8-7.2,4.4-14,4-19.9c-1.2-16.3-10.8-0.6-14.5,6.7
	c-0.9-2.1-1.8-4.1-2.5-6.1c-1.5-4-2.1-11.7-5.9-13.7c-8.2-4.2-10.6,6.2-13.4-6.5c-1.2-5.7-0.7-14.4-3.8-19.5
	c-5.3-8.6-9.7-2.1-15.2,3.9c-4.3-4.2-7.1-8.9-8.8-13.9c0.4-0.7,0.9-1.3,1.4-1.7c10.2-7.8,12.6,11,20.1,1.5c9-11.5-4.5-23.5-4.8-35
	c-7.1,6.4,0.4,23.6-6.9,29c-2.9,2.1-7,1.8-11.3,0.3c-2-12.4,1.9-25.9,7-37.8c3.1,3,6.3,6,9.4,9c10.7-7.7,14.3-18.6,9.1-30.9
	c-4.5,4-4.2,10.7-4.9,16.2c-3.1-3.5-3.9-8.3-6.5-12.2c-7.4,12.7-16.4,17.1-17.4,32.6c-0.6,0.1-1.6-0.1-2.9-0.5
	c0.1-0.6,0.1-1.2,0.1-1.9c0.2-7.5,1.1-18.9-0.2-25.7c0.5,2.6-16.8,3.2-19.6,3.5c-3.4,0.3-12.8,5.6-15.1,5
	c-1.1-16.8-10.8-21.6-18.8-35.3c-2.9,4.1-3.6,9.3-7,13.2c-0.8-6-0.4-13.3-5.3-17.6c-5.6,13.3-1.8,25.1,9.8,33.4
	c3.4-3.2,6.8-6.5,10.2-9.7c8.6,20.1,14,44.3-2.8,61.6c0.1-5.3,0.1-10.7-3.1-13.6c-0.1,3-1.1,6.1-2.4,9.2c-3.9-3.9-7.5-5.7-11.6,1
	c-3.4,5.5-2.8,14.9-4.1,21.1c-3,13.8-5.6,2.4-14.5,7c-4.1,2.1-4.7,10.5-6.4,14.8c-4.1,10.9-10.9,24.3-21.8,28.5
	c-0.2-9.2,1.5-17.8,9.2-24.1c-11.5-14.3-14.2,16.2-16.2,20.4c0.6,0.6,4.3,0,4.5,0.4c0.3,1.2,0.5,2.5,0.6,3.9c-3.2,0.9-6.7,1-10.6,0
	c-16.5-4-27.2-22.4-32.4-37.1c0,1.8,0.1,3.4,0.3,4.8c-1-1.2-2.1-2-3-2.2c0.4,4.9,2,18.4-3,21.9c-6.8,4.7-9.6-10.9-10.4-15.7
	c-2.8-16.2,2.1-34.4-5.4-49.7c-3,9.8-11.1,13.1-10.5,24c-4.7-2.7-3-8.9-6.7-12.1c-3.4,6-3.1,23-14.2,21.7
	c-0.8-4.6-0.9-16.4,6.3-15.9c-7-13.4-13.3-34.5-8.3-49.6c4.4,3.6,8.8,7.1,13.2,10.7c6.6-13.2-11.9-12.9-12.3-23.7
	c-0.4-10.8,20.4,8,11.9-6.5c-6.9-11.7-12,6.2-19.7,5.2c-9.7-1.3-9-25.8-9.9-32.9c-10,15.5,9.2,43.1,9.7,59.7
	c0.6,17.7-10.4,20.9-23,23.6v-209.5c5.7-2.5,11.2-5.1,16.9-7.9c7.4-3.7,17.7-10.1,26.5-8.8c4.8,0.7,14.6,6.5,13.3,12.7
	c-1,0-2,0.1-3,0.2c0.5-0.6,5.4,19.8,5.5,21.5c0.4,4.5-0.9,15.2,4.4,15.9c4.1,0.5,10.5-9,15.3-10.3c2.5-0.7,5.5,2.1,7.4-0.4
	c2-2.7-1.1-5.7-2.6-7.4c9-0.7,9,22.4,18.2,16.7c-1.1,2.6-2.7,5-1.6,7.9c4.4-3.6,7.7-0.4,11.3,2.4c-2.2,5.9-15.8,6.6-14,16.7
	c2.3,13,12.8-0.7,15.6-5.9c1.6-3,5.1-6.9,6.3-9.8c4.1-1,4.3-3.1,0.8-6.3c-0.9-3-1.1-6-0.6-9.1c0.5-5.3,4.2-11,4.1-16.2
	c-0.2-7.3,0.2-3.4-6.4-5.7c7.5-2.8,13.7-8.8,21.8-10.1c-0.1-0.1-2.1,8.7-1.1,10.8c0.5,1.1,1.2,2.1,2.1,3c-1.5,6.8-2.1,15.5,1.6,18.4
	c2-0.8,3.7-4.9,5.4-7.8c0.6,1.1,1.2,2,1.6,2.3c8,5.4,20.2-6.3,18.1-15.1c1.6-0.9,3.1-2,4.4-3.3c2.1,0.7,4.2,1.7,6.1,2.5
	c3.3,1.5,8,3.4,10.9,5.5c7.5,5.6,2.4,1.5,2.9,9c0.7,0.1,1.5,0.1,2.2,0.2c0.1,0.7,0.4,1.4,0.9,2.2c-16.9,0.7-12.2,28.5-31.2,23.9
	c-1.8,17.1,15.4,7.3,22.2,14.8c1.7-1.3-0.4-2.5,0-3.9c9,3.1-2.9-18.3,1.2-21.2c1,2.2,1.9,4.4,2.7,6.6c2-1.2,4.2-2.1,6.6-2.5
	c2.3-0.1,3.5-1.3,3.6-3.6c3-1.3,3.1-1.4,7.7-2.4c4.2-0.8,8.2-1.8,12.3-2.8c2.4,1.1,4.9,1.9,7.1,2.5c0.2-0.5,0.7-2.4,1-4.5
	c3.2-0.8,6.3-1.7,9.5-2.6c8-2.3,19.2-6.8,27.7-3.9c4.6,1.6,13.2,9.1,10.8,14.9c-1-0.2-2-0.3-3-0.4c0.6-0.5,1.7,20.4,1.5,22.1
	c-0.4,4.5-3.6,14.8,1.4,16.4c3.9,1.2,12-6.9,16.9-7.4c2.6-0.2,5,3.1,7.4,0.9c2.4-2.2-0.1-5.8-1.2-7.7c8.9,1,4.8,23.7,14.8,19.7
	c-1.5,2.4-3.5,4.4-3,7.5c5-2.7,7.6,1,10.6,4.4c-3.2,5.4-16.8,3.7-16.8,13.9c-0.1,13.2,12.8,1.6,16.4-3c2.1-2.7,6.3-5.9,7.9-8.5
	c4.2-0.3,4.8-2.3,1.9-6c-0.4-3.1,0-6.1,1.1-9c1.4-5.1,6.2-10,6.9-15.2c1.1-7.2,0.9-3.3-5.3-6.7c7.9-1.4,15.1-6.2,23.3-6
	c-0.1-0.2-3.6,8.2-3.1,10.4c0.7,2.8,3,5.1,4.3,7.7c0.7,1.5,2.1,8.6,3.3,9.9c8.2,8.1,26.8-6.9,18.5-16.8c4.6,0.8,8.7,3.8,12.5,6.3
	c3,2.1,7.3,4.8,9.7,7.4c6.3,6.8,2.1,1.9,1.2,9.4c5.3,1.7,12,1.2,17.6,1.7c-2.6,7.3-1.9,5,2.8,10c3,3.2,8,6.4,12,8.3
	c0.6-1,3.8-8.6,3-9.9c-1.1-2-5.2,0.8-6.4-0.4c-3.9-3.7-2.5-9.8-7.6-13.3c4.7-1.8,10.4-2.3,13.7-6.5c3.3-4.2-0.1-11.4,2.1-14.2
	c2.5-3.3,20.2-0.6,24.3-1.7c23.7-6.5-5-28.4,10.2-39.9c1.5,5.1-4.5,15.9,1.9,19.2c5.8,3.1,12.7-7.5,16.9,0.9c4,8-8.3-2.2-9.8-0.8
	c-5.3,4.9,10.4,9.6,5.3,16.9c-3-2.9-5.9-5.7-8.9-8.6c-4.2,8.7-5.6,18.3-2.3,27.5c-4.3,0.8-6,3.4-7.4,7.4c6.7,2.9,10.9-3.4,15-8
	c2.3,1.9-0.1,5.2,2.7,6.9c1.5-0.7,3.2-3.9,4.7-5.1c2.4-1.8,5.8-3,8.4-4.8c2.8,10.7-6.8,20.3-4.7,30.5c2.7,13.2,9.9,1.5,12.2-5.1
	c5,9.5,9.3,24.7,18.2,31.3c9,6.6,13.7-8.1,8.5-8.9c5.7-6.7,6.3-14.2,16.2-8.7c-13,3.7-13.9,20.8-19.9,30.7c-3.1,5.1-3.2,4.6-8.1,5.9
	c-2.5,0.6-11-1.4-10.4,4.2c0.7,7,9.1,1.6,12.3,1.4c7.5-0.6,5.1,1.3,10.9-3.5c4.7-3.9,10.8-8,14.7-12.6c1.8-2.1,3.4-3.9,4.1-6.7
	c0.5-1.9-1-5.5-0.3-7c5.5-11.9,9.1,9.5,12.5,10.9c3.2,1.3,12.8-3.3,16.5-4.3c6.5-1.8,13.5-3.7,18.7-8.5c2.9-2.7,7.9-9.1,6.8-13.5
	c-1.8-6.8-6.7-1.8-11.5-2.6c-12.3-2.1,2.7-12.9,4.7-18.3c3,5.4-3.1,11.8,2.7,15.9c5.4,3.8,16-0.8,21.6-2.4c-3.8-5.5-7.4-2.2-6.8-9.4
	c0.3-4.6,4.5-7.6,3.6-12.7c7.5,5.2,17,2.7,24.3,8.4c2.2-9.6,11.9-10.8,18.5-16.3c1.3,2.2,2.4,4.5,3.5,6.8c2.7-2,2.1-7.2,6-8
	c2.6,6.8-3.1,15.5-11,14.8c-2.7-0.3-4-4.5-6.3-4.3c-2.8,0.2-7.2,7.6-8.5,9.8c-3.7,6.5-5.5,19.1,4,20.2c2.8,0.3,5.6-5,8.9-2.6
	c3.1,2.2,1.6,7.1,1.7,10.4c0.4,10.9,1.4,4.2,8.6,7.4c5.4,2.4,5.6,13.4,9.8,18.3c6.9,7.9,16.4,7.7,25.5,4.2c4.3-1.7,8.2-4.1,11.8-7
	c2.5-2,5.6-7,8.7-8.1c3.2,8.3-12.6,9.9-12.4,17.2c3.7,1.5,21-1.8,23.7-3.6c5.7-3.8,7.6-10.7-0.4-11.8c0.4-5.9,5.9-7.2,10.3-9.4
	c1.2,5.6,1.5,4.5,6,8.8c1.8,1.7,3.5,5.4,5.5,6.5c8.9,5,23.2-2.8,31.9-5c3.4-0.9,9.3-0.1,12.2-1.3c3.9-1.5,1.1-0.7,5.3-4.8
	c7.5-7.2,14.9-12.4,23.5-18.2c2.2-1.5,4-3.2,5.4-5c0.1,0.1,0.1,0.2,0.2,0.4c3,5.3,8.2,10.4,12.1,15.1c4.9,5.8,2.8,3.5,10.1,5.4
	c3.1,0.8,10.4,7.6,12.4,0.8c1.5-5.4-7.1-5-9.5-6.1c-4.6-2.1-4.8-1.6-6.9-7.2c-3.7-9.7-2.3-24.3-10.7-31.6c0.1-1,0.3-2,0.4-3
	c7-0.8,6.9,5.7,10.7,12.4c-5.3-0.1-3.3,15.2,6.7,10.3c9.9-4.8,16.9-19,23.5-27.5c1.1,6.9,6.1,19.7,11.1,7.2
	c3.9-9.7-3.8-20.8,0.8-30.9c2.2,2.2,5.4,4,7.4,6.3c1.3,1.4,2.4,4.9,3.7,5.8c3.1-1.1,1.2-4.9,3.9-6.3c3.1,5.3,6.1,12.3,13.3,10.6
	c-0.6-4.2-1.8-7-5.9-8.6c4.9-8.5,5.3-18.1,2.7-27.4c-3.4,2.3-6.9,4.6-10.3,6.8c-3.7-8.2,12.5-9.9,8.2-15.7c-1.2-1.6-15.2,6.2-9.8-1
	c5.6-7.5,10.5,4.2,16.8,2.2c6.9-2.2,3-13.8,5.3-18.6C986.6,1278.7,954.4,1295.1,976.6,1305.8z M1067.5,1305.8
	c-0.7,0.3-1.9,0.6-3.4,0.9v237.8c0.1,0.1,0.2,0.2,0.3,0.4c3.1,4.2,6.1,8,8.4,12.8c1.2,2.6,1.2,5.7,4.2,6.8
	c11.8,4.2,21.2-30.3,8.2-35.6c7.7-1.9,15.8,4.4,22.2,8c2.4,1.3,8,2.9,9.8,4.9c3.7,4.1,0.5,6.6,1.6,12c6.3-0.9,12.2-3.8,18.6-4.6
	c-0.2,4.4-1.4,8.1,1.1,11.4c1.7,2.3,11.1,6.6,14,7.7c4.9,2,4.2,3.1,6.1-0.4c0.1-0.1,0.1-0.3,0.2-0.5c0-0.2-0.1-0.4-0.1-0.6
	c-0.8-4.2-1.6-8.3-2.4-12.5c-6.2,0.6-6.1,4.7-9.7-3c-1.1-2.4-1.4-5.2-2.9-7.4c-0.1-0.2-5-3.9-5.2-4.8c15.1-11.5,12-20.9,8.7-37.4
	c1-0.3,2-0.6,3-0.9c0.1-2.1,0-4.3-0.7-6.2c-0.4-1-4-0.4-5-2.3c-3.7-7.1,4.3-37.3,13.7-28.8c4.7,4.2-0.2,17.2,1.5,18.3
	c4.6,3.2,4.4-6.1,9.1-5.6c2.2,6.2-0.7,12.8,1,18.9c5-2.7,8.2-7.3,7.9-16.4c-0.5-14.1-16.8-37.6-8.3-50.8c0.8,6,0.2,26.9,8.5,28
	c6.5,0.9,10.9-14.4,16.7-4.4c7.3,12.3-10.5-3.7-10.2,5.5c0.4,9.2,16.1,8.9,10.5,20.2c-2.8-2.2-5.5-4.5-8.3-6.7
	c1.2,4.8-1.2,9.6-4.1,14.2c1.1,9.2,4.5,18.6,8.2,25.6c-6.1-0.4-6.1,9.7-5.4,13.6c9.4,1.2,9.2-13.3,12.1-18.5c3.2,2.8,1.7,8,5.7,10.3
	c-0.5-9.3,6.4-12.1,9-20.4c6.3,13,2.2,28.5,4.6,42.3c0,0,0,0.1,0,0.1c8.4-7.9,16.1-16.6,23.8-25.1c8.6-9.5,18-22.7,30.1-28.1
	c14.8-6.6,22.6,6.4,27.6,18.4c-2.1-0.1-4.1,0-6.1,0.3c14.7,16.6,12.3,41.5,18,62.2c2.3-1.9,4.6-3.9,6.7-5.5
	c7.4-5.5,14-11.2,16.7-20.4c1.3-4.4,3.3-18.5-0.8-21.6c-8-6.2-9.9,8.7-15.8,1.2c-7.1-9,3.5-18.5,3.7-27.5c5.6,5-0.3,18.6,5.4,22.8
	c6.1,4.5,19.1-5,24.5-7.9c-6.4-3.4-10.5-4.2-10.8-11.9c-0.2-5.9-0.9-14.8,0.1-20.2c-0.4,2,13.2,2.6,15.4,2.8
	c2.7,0.3,10.1,4.4,11.9,3.9c0.9-13.2,8.5-17,14.8-27.8c2.3,3.3,2.9,7.4,5.5,10.4c0.6-4.8,0.3-10.4,4.2-13.8
	c4.4,10.5,1.4,19.7-7.7,26.3c-2.7-2.5-5.3-5.1-8-7.6c-6.8,16-11.1,35.4,2.7,49.1c4.4-4.7,7.9-9.8,12-4.6c0.2-3.8,0-7.5-1.3-10.2
	c-3.4,1.2-6.8,2.1-10.4,2.6c4-2.6,24.3-30.3,29.8-26c-5.5,11.6-3.1,17.8,4.1,27.7c4,5.4,7.8,10.1,10.7,16.2c1.5,3.2,1.5,7.3,5.4,8.7
	c15,5.3,27-38.5,10.5-45.2c9.8-2.4,20.1,5.6,28.3,10.1c3.1,1.7,10.1,3.7,12.5,6.3c4.7,5.2,0.6,8.4,2,15.2c8.1-1.1,15.5-4.8,23.6-5.8
	c-0.3,5.5-1.8,10.3,1.3,14.5c2.1,2.9,14.1,8.3,17.8,9.8c6.3,2.6,5.3,3.9,7.8-0.5c1.1-2-0.3-15.2-2-17.5c-8.8,0.3-8.5,6.4-13.3-3.7
	c-1.4-3-1.7-6.6-3.7-9.4c-0.2-0.3-6.4-4.9-6.6-6.1c19.2-14.6,15.3-26.6,11.1-47.6c18.3-5.7,39.7-3.4,38.9-28.9
	c-0.6-17.9-21.3-47.8-10.5-64.6c1.1,7.6,0.3,34.2,10.8,35.6c8.3,1.1,13.8-18.3,21.3-5.6c9.2,15.6-13.4-4.7-12.9,7
	c0.5,11.7,20.5,11.3,13.4,25.6c-4.8-3.9-9.5-7.7-14.3-11.6c-5.4,16.3,1.3,39.1,8.9,53.7c-7.8-0.5-7.7,12.3-6.8,17.3
	c12,1.5,11.7-16.9,15.4-23.5c4,3.5,2.2,10.2,7.3,13.1c-0.6-11.8,8.2-15.3,11.4-26c8.1,16.6,2.8,36.3,5.8,53.8
	c0.9,5.2,3.9,22.1,11.3,17c5.4-3.7,3.6-18.3,3.2-23.7c5.3,1.1,12.2,18.8,14.9,23.3c5.4,9,11.2,18.5,18.6,26c0.4,0.4,0.8,0.8,1.1,1.1
	c-0.1-1.4-0.7-3-2-5.3c-3.9-6.8-7.2-10.8-7-19.4c3.7,10.2,10.2,22.5,19.8,29.4c2-0.9,3.5-3.7,4.2-8.9c0.5-4.1,0.2-9.3-0.7-13.3
	c-0.1-0.5-4.2,0.2-4.8-0.5c2.2-4.6,5.2-37.5,17.6-22.1c-14.6,12.1-9.3,31.5-8,49.1c0.6,0.2,1.2,0.4,1.8,0.5
	c7.4,1.8,13.4-0.5,18.2-4.7c0.2-1,0.4-1.9,0.5-2.9c0.8-7.2-4.4-14-4-19.9c1.2-16.3,10.8-0.6,14.5,6.7c0.9-2.1,1.8-4.1,2.5-6.1
	c1.5-4,2.1-11.7,5.9-13.7c8.2-4.2,10.6,6.2,13.4-6.5c1.2-5.7,0.7-14.4,3.8-19.5c5.3-8.6,9.7-2.1,15.2,3.9c4.3-4.2,7.1-8.9,8.8-13.9
	c-0.4-0.7-0.9-1.3-1.4-1.7c-10.2-7.8-12.6,11-20.1,1.5c-9-11.5,4.5-23.5,4.8-35c7.1,6.4-0.4,23.6,6.9,29c2.9,2.1,7,1.8,11.3,0.3
	c2-12.4-1.9-25.9-7-37.8c-3.1,3-6.3,6-9.4,9c-10.7-7.7-14.3-18.6-9.1-30.9c4.5,4,4.2,10.7,4.9,16.2c3.1-3.5,3.9-8.3,6.5-12.2
	c7.4,12.7,16.4,17.1,17.4,32.6c0.6,0.1,1.6-0.1,2.9-0.5c-0.1-0.6-0.1-1.2-0.1-1.9c-0.2-7.5-1.1-18.9,0.2-25.7
	c-0.5,2.6,16.8,3.2,19.6,3.5c3.4,0.3,12.8,5.6,15.1,5c1.1-16.8,10.8-21.6,18.8-35.3c2.9,4.1,3.6,9.3,7,13.2c0.8-6,0.4-13.3,5.3-17.6
	c5.6,13.3,1.8,25.1-9.8,33.4c-3.4-3.2-6.8-6.5-10.2-9.7c-8.6,20.1-14,44.3,2.8,61.6c-0.1-5.3-0.1-10.7,3.1-13.6
	c0.1,3,1.1,6.1,2.4,9.2c3.9-3.9,7.5-5.7,11.6,1c3.4,5.5,2.8,14.9,4.1,21.1c3,13.8,5.6,2.4,14.5,7c4.1,2.1,4.7,10.5,6.4,14.8
	c4.1,10.9,10.9,24.3,21.8,28.5c0.2-9.2-1.5-17.8-9.2-24.1c11.5-14.3,14.2,16.2,16.2,20.4c-0.6,0.6-4.3,0-4.5,0.4
	c-0.3,1.2-0.5,2.5-0.6,3.9c3.2,0.9,6.7,1,10.6,0c16.5-4,27.2-22.4,32.4-37.1c0,1.8-0.1,3.4-0.3,4.8c1-1.2,2.1-2,3-2.2
	c-0.4,4.9-2,18.4,3,21.9c6.8,4.7,9.6-10.9,10.4-15.7c2.8-16.2-2.1-34.4,5.4-49.7c3,9.8,11.1,13.1,10.5,24c4.7-2.7,3-8.9,6.7-12.1
	c3.4,6,3.1,23,14.2,21.7c0.8-4.6,0.9-16.4-6.3-15.9c7-13.4,13.3-34.5,8.3-49.6c-4.4,3.6-8.8,7.1-13.2,10.7
	c-6.6-13.2,11.9-12.9,12.3-23.7c0.4-10.8-20.4,8-11.9-6.5c6.9-11.7,12,6.2,19.7,5.2c9.7-1.3,9-25.8,9.9-32.9
	c10,15.5-9.2,43.1-9.7,59.7c-0.6,17.7,10.4,20.9,23,23.6v-209.5c-5.7-2.5-11.2-5.1-16.9-7.9c-7.4-3.7-17.7-10.1-26.5-8.8
	c-4.8,0.7-14.6,6.5-13.3,12.7c1,0,2,0.1,3,0.2c-0.5-0.6-5.4,19.8-5.5,21.5c-0.4,4.5,0.9,15.2-4.4,15.9c-4.1,0.5-10.5-9-15.3-10.3
	c-2.5-0.7-5.5,2.1-7.4-0.4c-2-2.7,1.1-5.7,2.6-7.4c-9-0.7-9,22.4-18.2,16.7c1.1,2.6,2.7,5,1.6,7.9c-4.4-3.6-7.7-0.4-11.3,2.4
	c2.2,5.9,15.8,6.6,14,16.7c-2.3,13-12.8-0.7-15.6-5.9c-1.6-3-5.1-6.9-6.3-9.8c-4.1-1-4.3-3.1-0.8-6.3c0.9-3,1.1-6,0.6-9.1
	c-0.5-5.3-4.2-11-4.1-16.2c0.2-7.3-0.2-3.4,6.4-5.7c-7.5-2.8-13.7-8.8-21.8-10.1c0.1-0.1,2.1,8.7,1.1,10.8c-0.5,1.1-1.2,2.1-2.1,3
	c1.5,6.8,2.1,15.5-1.6,18.4c-2-0.8-3.7-4.9-5.4-7.8c-0.6,1.1-1.2,2-1.6,2.3c-8,5.4-20.2-6.3-18.1-15.1c-1.6-0.9-3.1-2-4.4-3.3
	c-2.1,0.7-4.2,1.7-6.1,2.5c-3.3,1.5-8,3.4-10.9,5.5c-7.5,5.6-2.4,1.5-2.9,9c-0.7,0.1-1.5,0.1-2.2,0.2c-0.1,0.7-0.4,1.4-0.9,2.2
	c16.9,0.7,12.2,28.5,31.2,23.9c1.8,17.1-15.4,7.3-22.2,14.8c-1.7-1.3,0.4-2.5,0-3.9c-9,3.1,2.9-18.3-1.2-21.2
	c-1,2.2-1.9,4.4-2.7,6.6c-2-1.2-4.2-2.1-6.6-2.5c-2.3-0.1-3.5-1.3-3.6-3.6c-3-1.3-3.1-1.4-7.7-2.4c-4.2-0.8-8.2-1.8-12.3-2.8
	c-2.4,1.1-4.9,1.9-7.1,2.5c-0.2-0.5-0.7-2.4-1-4.5c-3.2-0.8-6.3-1.7-9.5-2.6c-8-2.3-19.2-6.8-27.7-3.9c-4.6,1.6-13.2,9.1-10.8,14.9
	c1-0.2,2-0.3,3-0.4c-0.6-0.5-1.7,20.4-1.5,22.1c0.4,4.5,3.6,14.8-1.4,16.4c-3.9,1.2-12-6.9-16.9-7.4c-2.6-0.2-5,3.1-7.4,0.9
	c-2.4-2.2,0.1-5.8,1.2-7.7c-8.9,1-4.8,23.7-14.8,19.7c1.5,2.4,3.5,4.4,3,7.5c-5-2.7-7.6,1-10.6,4.4c3.2,5.4,16.8,3.7,16.8,13.9
	c0.1,13.2-12.8,1.6-16.4-3c-2.1-2.7-6.3-5.9-7.9-8.5c-4.2-0.3-4.8-2.3-1.9-6c0.4-3.1,0-6.1-1.1-9c-1.4-5.1-6.2-10-6.9-15.2
	c-1.1-7.2-0.9-3.3,5.3-6.7c-7.9-1.4-15.1-6.2-23.3-6c0.1-0.2,3.6,8.2,3.1,10.4c-0.7,2.8-3,5.1-4.3,7.7c-0.7,1.5-2.1,8.6-3.3,9.9
	c-8.2,8.1-26.8-6.9-18.5-16.8c-4.6,0.8-8.7,3.8-12.5,6.3c-3,2.1-7.3,4.8-9.7,7.4c-6.3,6.8-2.1,1.9-1.2,9.4c-5.3,1.7-12,1.2-17.6,1.7
	c2.6,7.3,1.9,5-2.8,10c-3,3.2-8,6.4-12,8.3c-0.6-1-3.8-8.6-3-9.9c1.1-2,5.2,0.8,6.4-0.4c3.9-3.7,2.5-9.8,7.6-13.3
	c-4.7-1.8-10.4-2.3-13.7-6.5c-3.3-4.2,0.1-11.4-2.1-14.2c-2.5-3.3-20.2-0.6-24.3-1.7c-23.7-6.5,5-28.4-10.2-39.9
	c-1.5,5.1,4.5,15.9-1.9,19.2c-5.8,3.1-12.7-7.5-16.9,0.9c-4,8,8.3-2.2,9.8-0.8c5.3,4.9-10.4,9.6-5.3,16.9c3-2.9,5.9-5.7,8.9-8.6
	c4.2,8.7,5.6,18.3,2.3,27.5c4.3,0.8,6,3.4,7.4,7.4c-6.7,2.9-10.9-3.4-15-8c-2.3,1.9,0.1,5.2-2.7,6.9c-1.5-0.7-3.2-3.9-4.7-5.1
	c-2.4-1.8-5.8-3-8.4-4.8c-2.8,10.7,6.8,20.3,4.7,30.5c-2.7,13.2-9.9,1.5-12.2-5.1c-5,9.5-9.3,24.7-18.2,31.3
	c-9,6.6-13.7-8.1-8.5-8.9c-5.7-6.7-6.3-14.2-16.2-8.7c13,3.7,13.9,20.8,19.9,30.7c3.1,5.1,3.2,4.6,8.1,5.9c2.5,0.6,11-1.4,10.4,4.2
	c-0.7,7-9.1,1.6-12.3,1.4c-7.5-0.6-5.1,1.3-10.9-3.5c-4.7-3.9-10.8-8-14.7-12.6c-1.8-2.1-3.4-3.9-4.1-6.7c-0.5-1.9,1-5.5,0.3-7
	c-5.5-11.9-9.1,9.5-12.5,10.9c-3.2,1.3-12.8-3.3-16.5-4.3c-6.5-1.8-13.5-3.7-18.7-8.5c-2.9-2.7-7.9-9.1-6.8-13.5
	c1.8-6.8,6.7-1.8,11.5-2.6c12.3-2.1-2.7-12.9-4.7-18.3c-3,5.4,3.1,11.8-2.7,15.9c-5.4,3.8-16-0.8-21.6-2.4c3.8-5.5,7.4-2.2,6.8-9.4
	c-0.3-4.6-4.5-7.6-3.6-12.7c-7.5,5.2-17,2.7-24.3,8.4c-2.2-9.6-11.9-10.8-18.5-16.3c-1.3,2.2-2.4,4.5-3.5,6.8c-2.7-2-2.1-7.2-6-8
	c-2.6,6.8,3.1,15.5,11,14.8c2.7-0.3,4-4.5,6.3-4.3c2.8,0.2,7.2,7.6,8.5,9.8c3.7,6.5,5.5,19.1-4,20.2c-2.8,0.3-5.6-5-8.9-2.6
	c-3.1,2.2-1.6,7.1-1.7,10.4c-0.4,10.9-1.4,4.2-8.6,7.4c-5.4,2.4-5.6,13.4-9.8,18.3c-6.9,7.9-16.4,7.7-25.5,4.2
	c-4.3-1.7-8.2-4.1-11.8-7c-2.5-2-5.6-7-8.7-8.1c-3.2,8.3,12.6,9.9,12.4,17.2c-3.7,1.5-21-1.8-23.7-3.6c-5.7-3.8-7.6-10.7,0.4-11.8
	c-0.4-5.9-5.9-7.2-10.3-9.4c-1.2,5.6-1.5,4.5-6,8.8c-1.8,1.7-3.5,5.4-5.5,6.5c-8.9,5-23.2-2.8-31.9-5c-3.4-0.9-9.3-0.1-12.2-1.3
	c-3.9-1.5-1.1-0.7-5.3-4.8c-7.5-7.2-14.9-12.4-23.5-18.2c-2.2-1.5-4-3.2-5.4-5c-0.1,0.1-0.1,0.2-0.2,0.4c-3,5.3-8.2,10.4-12.1,15.1
	c-4.9,5.8-2.8,3.5-10.1,5.4c-3.1,0.8-10.4,7.6-12.4,0.8c-1.5-5.4,7.1-5,9.5-6.1c4.6-2.1,4.8-1.6,6.9-7.2c3.7-9.7,2.3-24.3,10.7-31.6
	c-0.1-1-0.3-2-0.4-3c-7-0.8-6.9,5.7-10.7,12.4c5.3-0.1,3.3,15.2-6.7,10.3c-9.9-4.8-16.9-19-23.5-27.5c-1.1,6.9-6.1,19.7-11.1,7.2
	c-3.9-9.7,3.8-20.8-0.8-30.9c-2.2,2.2-5.4,4-7.4,6.3c-1.3,1.4-2.4,4.9-3.7,5.8c-3.1-1.1-1.2-4.9-3.9-6.3
	c-3.1,5.3-6.1,12.3-13.3,10.6c0.6-4.2,1.8-7,5.9-8.6c-4.9-8.5-5.3-18.1-2.7-27.4c3.4,2.3,6.9,4.6,10.3,6.8
	c3.7-8.2-12.5-9.9-8.2-15.7c1.2-1.6,15.2,6.2,9.8-1c-5.6-7.5-10.5,4.2-16.8,2.2c-6.9-2.2-3-13.8-5.3-18.6
	C1057.5,1278.7,1089.7,1295.1,1067.5,1305.8z"/>
</svg>
