<?xml version="1.0" encoding="utf-8"?>
<!-- Generator: Adobe Illustrator 19.0.1, SVG Export Plug-In . SVG Version: 6.00 Build 0)  -->
<svg version="1.1" id="Layer_5" xmlns="http://www.w3.org/2000/svg" xmlns:xlink="http://www.w3.org/1999/xlink" x="0px" y="0px"
	 viewBox="0 0 2048 2048" style="enable-background:new 0 0 2048 2048;" xml:space="preserve">

<path id="color1" fill="#2B2928" d="M36.8,1431.2V410.9h942v740.4C693.1,1316.6,284.7,1403.2,36.8,1431.2z M2004.7,1431.2V410.9h-942v740.4
	C1348.4,1316.6,1756.8,1403.2,2004.7,1431.2z"/>
<path id="color2" fill="#E31E25" d="M978.8,1249.9v431h-942v-195.1C276.1,1460.8,690.8,1397.7,978.8,1249.9z M1062.7,1249.9v431h942v-195.1
	C1765.4,1460.8,1350.7,1397.7,1062.7,1249.9z"/>
<path id="color3" fill="#C5C6C6" d="M978.8,1249.9c-287.9,147.8-702.7,210.9-942,235.9v-54.6c248-27.9,656.3-114.6,942-279.9V1249.9z
	 M1062.7,1249.9c287.9,147.8,702.7,210.9,942,235.9v-54.6c-248-27.9-656.3-114.6-942-279.9V1249.9z"/>
</svg>
