<?xml version="1.0" encoding="utf-8"?>
<!-- Generator: Adobe Illustrator 19.0.1, SVG Export Plug-In . SVG Version: 6.00 Build 0)  -->
<svg version="1.1" id="Layer_4" xmlns="http://www.w3.org/2000/svg" xmlns:xlink="http://www.w3.org/1999/xlink" x="0px" y="0px"
	 viewBox="0 0 2048 2048" style="enable-background:new 0 0 2048 2048;" xml:space="preserve">

<path id="color1" fill="#B2B4B3" d="M979.6,1681.1h-942v-1270h942V1681.1z M1062.5,1681.1h942v-1270h-942V1681.1z"/>
<path id="color2" fill="#FDFDFD" d="M316,1680c-10.1,0-20.3,0-30.4,0c11-115.4,47.5-237.2,151.1-302.9c19.4-12.3,49.5-30.6,73.2-30.6
	c24.5,0,56,19.9,75.5,33.1c47.3,32,82.2,79,105.3,130.8c13.9,31.1,23.8,63.9,30.2,97.3c3.2,16.7,5.5,33.6,7,50.6
	c0.3,3.3,3.7,18.8,1.1,21.7c-2.3,2.6-25.7,0-29.3,0c5.5-1.8-16.2-64.2-18.4-69.5c-9.5-23.1-22.4-44.9-41.6-61.4
	c-18.6-15.9-41.4-25.4-64.8-31.7c-26-7.1-54.9-14-81.7-9.8c-45.4,7.2-92.4,16.8-125.6,51.1c-15.2,15.7-25.7,34.5-33.6,54.8
	c-5,12.8-9.2,26-12.6,39.3C319.7,1659.2,313.6,1673.5,316,1680C305.9,1680,315.9,1679.8,316,1680z M1726.1,1680
	c10.1,0,20.3,0,30.4,0c-11-115.4-47.5-237.2-151.1-302.9c-19.4-12.3-49.5-30.6-73.2-30.6c-24.5,0-56,19.9-75.5,33.1
	c-47.3,32-82.2,79-105.3,130.8c-13.9,31.1-23.8,63.9-30.2,97.3c-3.2,16.7-5.5,33.6-7,50.6c-0.3,3.3-3.7,18.8-1.1,21.7
	c2.3,2.6,25.7,0,29.3,0c-5.5-1.8,16.2-64.2,18.4-69.5c9.5-23.1,22.4-44.9,41.6-61.4c18.6-15.9,41.4-25.4,64.8-31.7
	c26-7.1,54.9-14,81.7-9.8c45.4,7.2,92.4,16.8,125.6,51.1c15.2,15.7,25.7,34.5,33.6,54.8c5,12.8,9.2,26,12.6,39.3
	C1722.4,1659.2,1728.5,1673.5,1726.1,1680C1736.2,1680,1726.2,1679.8,1726.1,1680z"/>
<path id="color3" fill="#f6d214" d="M261.7,1680c-1.1-51.4,5.1-103.7,21.5-152.7c16.3-48.6,28.2-97.7,33.8-148.7c10.2-91.4,12.1-203.2-55.5-274.8
	c-32.1-34.1-75.6-53-120.8-62.2c-24.5-5-49.4-7.4-74.4-8c-4.3-0.1-28.2,2.3-24.1-5.6c2.4-4.6,25.9-3,32.5-3.2
	c86.6-2,176.8,24.4,232.5,94.1c28,35,45.5,78.3,52.8,122.4c4.7,28.1,5.3,57,2.5,85.3c-1.4,14.1-3.7,28.1-6.8,42
	c-1.7,7.6-11.9,28.5-8.9,35.4c20.3-25.8,42.8-49.6,69.3-69.1c13.4-9.8,27.6-18.7,42.5-26c14.4-7.1,35-18.4,51.4-18.3
	c14.9,0.1,33.2,10.1,46.4,16.4c14.7,7.1,28.7,15.7,41.9,25.3c14.3,10.5,27.8,22.2,40.2,35c5.7,5.8,11.1,11.9,16.4,18.1
	c3.8,4.4,9.6,15.5,15,18.2c3-5.2-6.7-25.6-8.2-32c-3.1-13.4-5.4-27-6.9-40.7c-3-26.8-2.7-54,0.8-80.8c6.4-49.1,24.9-96.9,56.5-135.4
	c27.4-33.4,63.9-57.8,104.4-72.2c25.8-9.2,52.7-14.3,79.9-16.6c13.3-1.1,26.7-1.4,40-1.2c7.2,0.1,14.4,0.5,21.7,0.9
	c8.2,0.5,18.9-2.5,18.7,7.4c-59.8,0.5-120.2,3.2-174.1,32.1c-49.2,26.5-80.8,72-95.6,125.2c-16.6,59.3-14.7,122.8-8.4,183.5
	c3.4,32.8,8.9,64.7,16.9,96.7c7.1,28.7,17.4,56.3,24.5,84.9c7.9,31.5,12.4,64,13.5,96.5c0.2,6.5,2.1,15.6,0.2,21.8
	c-0.4,1.4,0.4,4.9-1,6.3c-0.7,0.7-12.5-0.4-12,0c-2.4-1.9-1-16.7-1.3-20.5c-0.6-8.8-1.4-17.5-2.4-26.3
	c-6.7-58.3-23.7-116.2-52.3-167.6c-26.6-47.9-64.7-90.8-113.4-116.9c-21.5-11.6-49.4-25.5-74.1-19.6c-24.4,5.7-48.2,17-69.2,30.6
	c-51,32.9-88.8,83.7-113.4,138.6c-13.3,29.7-23.3,60.9-29.9,92.7c-3.6,17.3-6.2,34.8-8.1,52.4c-0.8,8.1-1.6,16.2-1.9,24.4
	c0-0.4,0.3,11.8-0.2,12.2C272.9,1681.5,263.8,1680,261.7,1680C261.2,1660.3,266,1680,261.7,1680z M1780.4,1680
	c1.1-51.4-5.1-103.7-21.5-152.7c-16.3-48.6-28.2-97.7-33.8-148.7c-10.2-91.4-12.1-203.2,55.5-274.8c32.1-34.1,75.6-53,120.8-62.2
	c24.5-5,49.4-7.4,74.4-8c4.3-0.1,28.2,2.3,24.1-5.6c-2.4-4.6-25.9-3-32.5-3.2c-86.6-2-176.8,24.4-232.5,94.1
	c-28,35-45.5,78.3-52.8,122.4c-4.7,28.1-5.3,57-2.5,85.3c1.4,14.1,3.7,28.1,6.8,42c1.7,7.6,11.9,28.5,8.9,35.4
	c-20.3-25.8-42.8-49.6-69.3-69.1c-13.4-9.8-27.6-18.7-42.5-26c-14.4-7.1-35-18.4-51.4-18.3c-14.9,0.1-33.2,10.1-46.4,16.4
	c-14.7,7.1-28.7,15.7-41.9,25.3c-14.3,10.5-27.8,22.2-40.2,35c-5.7,5.8-11.1,11.9-16.4,18.1c-3.8,4.4-9.6,15.5-15,18.2
	c-3-5.2,6.7-25.6,8.2-32c3.1-13.4,5.4-27,6.9-40.7c3-26.8,2.7-54-0.8-80.8c-6.4-49.1-24.9-96.9-56.5-135.4
	c-27.4-33.4-63.9-57.8-104.4-72.2c-25.8-9.2-52.7-14.3-79.9-16.6c-13.3-1.1-26.7-1.4-40-1.2c-7.2,0.1-14.4,0.5-21.7,0.9
	c-8.2,0.5-18.9-2.5-18.7,7.4c59.8,0.5,120.2,3.2,174.1,32.1c49.2,26.5,80.8,72,95.6,125.2c16.6,59.3,14.7,122.8,8.4,183.5
	c-3.4,32.8-8.9,64.7-16.9,96.7c-7.1,28.7-17.4,56.3-24.5,84.9c-7.9,31.5-12.4,64-13.5,96.5c-0.2,6.5-2.1,15.6-0.2,21.8
	c0.4,1.4-0.4,4.9,1,6.3c0.7,0.7,12.5-0.4,12,0c2.4-1.9,1-16.7,1.3-20.5c0.6-8.8,1.4-17.5,2.4-26.3c6.7-58.3,23.7-116.2,52.3-167.6
	c26.6-47.9,64.7-90.8,113.4-116.9c21.5-11.6,49.4-25.5,74.1-19.6c24.4,5.7,48.2,17,69.2,30.6c51,32.9,88.8,83.7,113.4,138.6
	c13.3,29.7,23.3,60.9,29.9,92.7c3.6,17.3,6.2,34.8,8.1,52.4c0.8,8.1,1.6,16.2,1.9,24.4c0-0.4-0.3,11.8,0.2,12.2
	C1769.2,1681.5,1778.3,1680,1780.4,1680C1780.9,1660.3,1776.1,1680,1780.4,1680z"/>
<path id="color4" fill="#2B2928" d="M979.6,411.1v613.5h-2.6c-0.1,0.8-0.1,1.7-0.2,2.6c-97.2-8.8-201.8,9.3-266.1,89.3
	c-30.7,38.2-48.8,85.2-55,133.6c-3.5,26.7-3.7,54-0.8,80.8c1.5,13.7,3.8,27.3,6.9,40.7c1.5,6.4,11.1,26.8,8.2,32
	c-5.2-2.6-9.6-11.8-13.2-16.1c-5.8-6.9-11.8-13.7-18.2-20.1c-11.8-12.1-24.5-23.3-38.1-33.4c-13.1-9.8-27-18.5-41.7-25.7
	c-13.8-6.8-33-17.4-48.7-17.6c-15.6-0.1-35.2,10.5-49,17.1c-15,7.2-29.4,15.9-42.9,25.7c-27.4,19.8-50.6,44.1-71.4,70.6
	c-3.1-7,7.1-27.8,8.9-35.4c3.2-13.8,5.5-27.8,6.8-42c2.6-27.4,2.2-55.2-2-82.4c-6.9-44.4-24.1-88.1-52-123.6
	c-64.3-82-167.6-99.5-266-94.4c-0.1-0.5-0.1-1-0.2-1.6h-4.8V411.1H979.6z M274.7,1680c3.6,0,7.2,0,10.9,0c0.2-1.8,0.3-3.6,0.5-5.4
	c1-2.4,0.8-8.7,1-10.8c0.8-8.4,1.6-16.8,2.7-25.2c2.2-16.9,5.2-33.6,9.1-50.1c7.7-32.3,18.9-64,34-93.6
	c24.7-48.4,61.1-92,107.9-120.4c18.5-11.2,49-29.6,71.4-27.7c25.6,2.2,54.6,20,75.3,34.2c45.5,31.4,79.3,76.8,102,126.7
	c12.5,27.6,22,56.5,28.5,86.1c3.3,14.7,5.8,29.7,7.7,44.6c1.3,10.3,7.6,31.8,3.2,41.5c4,0,8,0,12,0c-4.3-71.4-17.7-140.8-50.9-204.8
	c-26.5-51.1-65.4-97.2-116.3-125.2c-23-12.7-52.2-27.2-78.8-20.2c-26.7,7.1-52.2,19.5-74.8,35.3
	C323.4,1433.1,274.2,1564.8,274.7,1680C278.3,1680,274.6,1663.7,274.7,1680z M700.3,1678.8c-8.7-48.1-24.6-101.4-64.6-132.9
	c-18.7-14.7-41-23.3-63.8-29.3c-24.1-6.3-51.2-13.3-76-9.5c-44,6.7-90.3,15.4-123.9,47c-15.2,14.3-26.5,32-34.8,51
	c-9.3,21.5-21.3,49.9-21.4,73.7C444.1,1678.9,572.2,1679.4,700.3,1678.8C694.4,1646.3,696.5,1678.9,700.3,1678.8z M1062.5,411.1
	v613.5h2.6c0.1,0.8,0.1,1.7,0.2,2.6c97.2-8.8,201.8,9.3,266.1,89.3c30.7,38.2,48.8,85.2,55,133.6c3.5,26.7,3.7,54,0.8,80.8
	c-1.5,13.7-3.8,27.3-6.9,40.7c-1.5,6.4-11.1,26.8-8.2,32c5.2-2.6,9.6-11.8,13.2-16.1c5.8-6.9,11.8-13.7,18.2-20.1
	c11.8-12.1,24.5-23.3,38.1-33.4c13.1-9.8,27-18.5,41.7-25.7c13.8-6.8,33-17.4,48.7-17.6c15.6-0.1,35.2,10.5,49,17.1
	c15,7.2,29.4,15.9,42.9,25.7c27.4,19.8,50.6,44.1,71.4,70.6c3.1-7-7.1-27.8-8.9-35.4c-3.2-13.8-5.5-27.8-6.8-42
	c-2.6-27.4-2.2-55.2,2-82.4c6.9-44.4,24.1-88.1,52-123.6c64.3-82,167.6-99.5,266-94.4c0.1-0.5,0.1-1,0.2-1.6h4.8V411.1H1062.5z
	 M1767.4,1680c-3.6,0-7.2,0-10.9,0c-0.2-1.8-0.3-3.6-0.5-5.4c-1-2.4-0.8-8.7-1-10.8c-0.8-8.4-1.6-16.8-2.7-25.2
	c-2.2-16.9-5.2-33.6-9.1-50.1c-7.7-32.3-18.9-64-34-93.6c-24.7-48.4-61.1-92-107.9-120.4c-18.5-11.2-49-29.6-71.4-27.7
	c-25.6,2.2-54.6,20-75.3,34.2c-45.5,31.4-79.3,76.8-102,126.7c-12.5,27.6-22,56.5-28.5,86.1c-3.3,14.7-5.8,29.7-7.7,44.6
	c-1.3,10.3-7.6,31.8-3.2,41.5c-4,0-8,0-12,0c4.3-71.4,17.7-140.8,50.9-204.8c26.5-51.1,65.4-97.2,116.3-125.2
	c23-12.7,52.2-27.2,78.8-20.2c26.7,7.1,52.2,19.5,74.8,35.3C1718.7,1433.1,1767.9,1564.8,1767.4,1680
	C1763.8,1680,1767.5,1663.7,1767.4,1680z M1341.8,1678.8c8.7-48.1,24.6-101.4,64.6-132.9c18.7-14.7,41-23.3,63.8-29.3
	c24.1-6.3,51.2-13.3,76-9.5c44,6.7,90.3,15.4,123.9,47c15.2,14.3,26.5,32,34.8,51c9.3,21.5,21.3,49.9,21.4,73.7
	C1598,1678.9,1469.9,1679.4,1341.8,1678.8C1347.7,1646.3,1345.6,1678.9,1341.8,1678.8z"/>
</svg>
