<?xml version="1.0" encoding="utf-8"?>
<!-- Generator: Adobe Illustrator 19.0.1, SVG Export Plug-In . SVG Version: 6.00 Build 0)  -->
<svg version="1.1" id="_x2B_4_draft" xmlns="http://www.w3.org/2000/svg" xmlns:xlink="http://www.w3.org/1999/xlink" x="0px"
	 y="0px" viewBox="0 0 2048 2048" style="enable-background:new 0 0 2048 2048;" xml:space="preserve">

<path id="color1" fill="#000000" d="M619.9,1011.5l-0.4-3.5c-0.6-5.2-1.5-13.3-2.6-23.3l-0.3-3c-5-46.5-14.2-133-24-182.1
	c-10.6-53.1-23-103.3-28.2-114.3l-1-2.2l1.5-1.9c5.1-6.7,12-14.9,19.9-24.3c18.2-21.6,43.1-51.1,65.7-86.2
	c36.2-56.1,70.1-132,90.8-203c20.7-71.1,44.8-164.1,62.5-232c10.3-39.7,18.4-71.1,23.2-87.7l0.9-3.3l3.4,0.4
	c14.3,1.6,77.3,9.7,150.3,19.1C1086.7,77.7,1206.2,93,1221,94.2c28.5,2.2,394.7,14.7,396.8,14.7h3.6l0.3,3.6
	c8.8,91.2,22.1,207.6,46.6,298.5c17.6,65.5,41,117.3,73.5,163c13.8,19.4,31.6,38,50.3,52.4c35.9,27.8,76.3,49.6,113.7,61.3l4.1,1.3
	l-1.6,4c-17.2,43.1-29,89.2-35.2,137c-5.6,42.9-8,107.9-9.5,146.7c-0.4,9.8-0.7,18.2-1,24l-0.2,3.8h-3.8c-0.7,0-3,0-7,0
	c-19.5,0-78.8-0.1-161.2-0.1c-119.7,0-299.5,0.2-475.5,1.3c-203.3,1.2-403.7,3.6-511.4,4.9c-44,0.5-73,0.9-80.1,0.9H619.9z
	 M1810,2011.8l0.3-3.7c2.2-31,12.2-127.8,27.9-213.6c8.2-44.8,19-84.3,24.7-103.9l0.6-2.1l-1.4-1.6c-21.7-25.3-69.6-84.2-95.4-126.5
	c-23.2-38-42.1-84.4-55.9-120.6c-14.6-38.2-29-83.1-41.6-129.9c-11.8-43.8-22.8-87.5-33.4-129.8c-10.1-40.3-19.6-78.3-28.1-109
	l-0.9-3.4l-3.5,0.5c-9,1.4-29.3,3.9-57.4,7.4c-32.2,4-76.2,9.5-123.5,15.8c-87.8,11.7-198,25.7-219.9,26.5
	c-5.9,0.2-16.5,0.6-30.6,1.1c-84.7,3.2-283.2,10.6-336.6,12.1l-3.8,0.1l-0.1,3.8c-1.4,63-20.7,198.1-47.1,298.8
	c-12.1,46.2-44.1,118.7-63.3,143.6c-54.9,71-102.5,96.9-166.1,117.6l-3.8,1.2l1.2,3.8c2.1,6.7,4.1,12.5,6.2,18.6
	c4.6,13.6,9.8,29.1,18.8,60.3c12.5,43.4,17.7,145.2,19.8,223l0.1,3.9h3.9c3.4,0,11,0,22.5-0.1c34.5-0.1,98.7-0.4,182.3-0.4
	c64.8,0,128.3,0.1,188.7,0.4c251.8,1.2,563.4,3.8,713.2,5c56.3,0.5,93.5,0.8,98.6,0.8H1810z M144.3,874.7V228.4h-101v646.2H144.3z
	 M144.3,1535.5V898.4h-101v637.1H144.3z"/>
<path id="color2" fill="#009444" d="M254.6,490.3L238.1,223H396l-18.6,267.3H254.6z M359.1,1026.3l20-381.9H254l21.5,381.9H359.1z M376.4,1928.5
	v-686.6H253v686.6H376.4z"/>
<path id="color3" fill="#f15a29" d="M43.3,1786v-229h103.6v229H43.3z M146.9,2018.4v-210.8H43.3v210.8H146.9z"/>
<path id="color4" fill="#fbb040" d="M88.2,173.3c-26,0-41.7,0-41.7-24.5V68.3c0-7.5,5.2-12.2,13.4-12.2c0.2,0,0.4,0,0.6,0
	c2.5-5.1,9.6-13.8,29.2-13.8c19.8,0,27.1,9,29.7,14C127.2,56.6,132,61,132,68v79.3C132,173.3,114.6,173.3,88.2,173.3z M68.5,146.3
	c0,1.1,0.9,2,2,2h37c1.1,0,2-0.9,2-2v-6.8h-41V146.3z M109.5,86.8v-8.3c0-1.1-0.9-2-2-2h-37c-1.1,0-2,0.9-2,2v8.3H109.5z"/>
</svg>
