<?xml version="1.0" encoding="utf-8"?>
<!-- Generator: Adobe Illustrator 19.0.1, SVG Export Plug-In . SVG Version: 6.00 Build 0)  -->
<svg version="1.1" id="base" xmlns="http://www.w3.org/2000/svg" xmlns:xlink="http://www.w3.org/1999/xlink" x="0px" y="0px"
	 viewBox="0 0 2048 2048" style="enable-background:new 0 0 2048 2048;" xml:space="preserve">

<path id="color1" fill="#000000" d="M242.3,227h149.3l-18,259.3H258.3L242.3,227z M279.3,1022.3h76L375,648.5H258.3L279.3,1022.3z M372.4,1245.9
	H257v678.6h115.4V1245.9z M830.6,49c34.8,3.9,364.8,47.2,390.1,49.2c25.3,2,389.8,14.7,397.1,14.7c7.4,76.2,20.6,202.2,46.7,299.1
	c17.5,65,41.2,118,74.1,164.3c14.9,21,33.6,39.7,51.1,53.3c56,43.3,104.3,58.6,115,61.9c-15.1,37.9-28.5,84.4-35.5,138
	c-5.6,43.2-8.1,108.3-9.6,147.2c-99.1,0-330.9-3.2-644.1-1.3c-286.6,1.7-525,6-594.6,8.7c-4.9-46.3-14.3-135.1-24.4-185.4
	c-10.8-54.2-23.2-103.9-28.5-115.3c16.9-22.2,53.3-60.4,85.8-110.8c40.7-63.2,72.9-141,91.3-204C777.5,257.3,817.6,94.7,830.6,49z
	 M788,1435c-12.7,48.6-45.1,120.5-64,145c-54.5,70.5-102,97.5-168,119c7,22,12,34,25,79c11.9,41.3,17.1,133.8,19.4,205.1
	c81.1,1.4,189.4-1.5,394.3-0.5c344.9,1.7,758.6,4.2,813.3,3.8c4-43.2,13.3-122.5,26.2-192.7c8.1-44,18.6-83,24.8-104.3
	c-18.3-21.3-68.4-82.1-95.8-127c-22.8-37.3-41.4-82.4-56.3-121.3c-15.1-39.5-29.5-84.9-41.8-130.3c-23.4-86.9-44.4-177-61.5-238.8
	c-19.8,3-93.6,11.6-181,23.3c-97.5,13-199.7,25.7-220.3,26.5c-40.5,1.5-304.8,11.5-367.3,13.3C833.9,1195.3,815.4,1330.5,788,1435z
	 M140.3,232.4h-93v638.2h93V232.4z M140.3,902.4h-93v629.1h93V902.4z M142.9,1782H47.3v-221h95.6V1782z M142.9,1811.6H47.3v202.8
	h95.6V1811.6z M116.8,60.4c0,0-3-14.1-27-14.1c-24,0-26.5,14.1-26.5,14.1s-12.8-2.6-12.8,7.9c0,26,0,68.1,0,80.5
	c0,19.8,10.3,20.5,37.7,20.5c27.5,0,39.8-0.5,39.8-22c0-13.2,0-54.2,0-79.3C128,58.8,116.8,60.4,116.8,60.4z M64.5,107h49v7.3h-49
	V107z M70.5,72.5h37c3.3,0,6,2.7,6,6v12.3h-49V78.5C64.5,75.2,67.2,72.5,70.5,72.5z M107.5,152.3h-37c-3.3,0-6-2.7-6-6v-10.8h49
	v10.8C113.5,149.5,110.8,152.3,107.5,152.3z"/>
</svg>
