<?xml version="1.0" encoding="utf-8"?>
<!-- Generator: Adobe Illustrator 26.2.1, SVG Export Plug-In . SVG Version: 6.00 Build 0)  -->
<svg version="1.1" id="Layer_4" xmlns="http://www.w3.org/2000/svg" xmlns:xlink="http://www.w3.org/1999/xlink" x="0px" y="0px"
	 viewBox="0 0 2048 2048" style="enable-background:new 0 0 2048 2048;" xml:space="preserve">

<path id="color1" fill="#C8C8C8" d="M262.1,818.3l0.2-4.2c0.5-10.4-0.8-23.6-1.6-32.3c-0.3-3.1-0.6-5.9-0.7-7.9c-17.2-67.4-58.6-172-90.2-248
	C134.7,441.6,24.1,179.5,23,176.9l-1.2-2.7l2.3-1.9c46-38.1,97-63.5,165.4-82.2c87.2-23.9,184.1-35.5,296.3-35.5c2.2,0,4.5,0,6.7,0
	C605.9,55,719.6,68.4,789.2,89.7c59,18,124.2,41.9,160.3,82.7l1.8,2l-1.2,2.4c-11.3,23-151.5,323.5-188,421.4
	c-37,99-55.3,152.1-59.3,185.8c-1.6,13.5-1.6,17.9-1.5,25.1c0,1.6,0,3.3,0,5.3v4L262.1,818.3L262.1,818.3z M831.6,2015.4v-4
	c0-0.8,0.1-42.9,0.2-101.2c0.2-150.2,0.6-401.6,0.6-414.6v-2.3l-2-1.1c-9.9-5.6-20.1-11.3-35.2-27.1c-18.4-19.2-31.7-65-37.4-129.1
	c-5.6-62.1-8.6-265.3-8.6-267.3l-0.1-3.9H478.6l-29.4,218.7c-8-59.9-25.4-191.5-28-215.1l-0.4-3.6H150l-0.1,3.9
	c-1.3,43.8-2.2,81.8-3,115.3c-3.5,149.2-4.9,205-31.2,263.8c-5.8,12.9-28.4,35.5-46.6,43.3l-2.4,1v2.6c0,2.1,0,12.3,0.1,28.6
	c1.1,288.8,1,453.1-0.1,488.1l-0.1,4.1h765V2015.4z M1242,936.7V886H557.3v50.7H1242z M1719.5,818.4l-0.2-4.2
	c-0.5-10.4,0.8-23.6,1.6-32.3c0.3-3.1,0.6-5.9,0.7-7.9c17.2-67.4,58.6-172,90.2-248c35.1-84.3,145.7-346.4,146.8-349.1l1.2-2.7
	l-2.3-1.9c-46-38.1-97-63.5-165.4-82.2c-87.2-23.9-184.1-35.5-296.3-35.5c-2.2,0-4.5,0-6.7,0c-113.4,0.5-227.1,13.9-296.7,35.2
	c-59,18-124.2,41.9-160.3,82.7l-1.8,2l1.2,2.4c11.3,23,151.5,323.5,188,421.4c37,99.2,56.4,155,59.6,185c1,9.2,0.8,15.6,0.7,22.4
	c-0.1,2.7-0.1,5.6-0.1,8.7v4H1719.5z M1876.4,2015.4l-0.1-4.1c-1-66.5-1.3-512.6-1.3-516.9v-2.6l-2.4-1
	c-19.1-8.2-32.2-19.8-42.8-54.5c-21-69.1-34.3-154.7-35.7-367.6v-4h-225.4l-1.2,1.2c-19.2,19.2-48.9,32.3-75.7,33.4
	c-0.9,0-1.7,0.1-2.6,0.1c-32.6,0-60.9-25.6-68.8-33.5l-1.2-1.2H1195l-0.2,3.8c-0.1,1.9-7.9,188.4-13.5,250.6
	c-6.3,70.1-26.6,124.8-32.7,139.9c-7.1,17.6-22.6,26.2-32.9,31.9c-0.8,0.4-1.5,0.8-2.2,1.2l-2,1.1v2.3c0,13-0.8,264.4-1.2,414.6
	c-0.2,60.4-0.3,100.4-0.3,101.2v4L1876.4,2015.4L1876.4,2015.4z"/>
<path id="color2" fill="#F7941E" d="M182.1,296l168.1,522.4H289L182.1,296z M701.3,809.1c-0.1-7.2-0.1-11.6,1.5-25.1c0.9-7.7,2.6-16.4,5-26.5
	L503.9,570.1L661,818.4h40.3v-4C701.3,812.4,701.3,810.7,701.3,809.1z M333.3,482.7l207.9,335.7h-80.7L333.3,482.7z M228.3,1656.4
	l0.7-0.4c0,0-105.2,27.5-161.6,42.4c0,17.2,0.1,33.7,0.1,49.5l163.3-92.2C230.7,1655.8,229.9,1656,228.3,1656.4z M67.5,1915.7
	c0-21,0.1-45.3,0.1-72.7L195,1741L67.5,1915.7z M668.3,1655.8c0,0,0.9,0.2,2.4,0.6l-0.7-0.4c0,0,105.8,27.6,162,42.5
	c0,16.3,0,33-0.1,49.7L668.3,1655.8z M228.2,1815.7l-55.3,199.8H88L228.2,1815.7z M670.8,1815.7L811,2015.5h-84.9L670.8,1815.7z
	 M831.8,1916.1L704,1741l127.9,102.4c0,23.6-0.1,46.2-0.1,66.8C831.8,1912.2,831.8,1914.1,831.8,1916.1z M1799.4,296l-168.1,522.4
	h61.2L1799.4,296z M1273.7,757.5c2.5,10.1,4.1,18.8,5,26.5c1.6,13.5,1.6,17.9,1.5,25.1c0,1.6,0,3.3,0,5.3v4h40.3l157.1-248.3
	L1273.7,757.5z M1648.3,482.7l-207.9,335.7h80.7L1648.3,482.7z M1238.7,1741l-128.4,176c0-2.3,0-4.6,0-6.9c0.1-20.5,0.1-43,0.2-66.4
	L1238.7,1741z M1110.9,1698.5c0,16.3-0.1,33-0.1,49.7l163.7-92.4c0,0-0.9,0.2-2.4,0.6l0.7-0.4
	C1272.7,1656,1167.3,1683.5,1110.9,1698.5z M1271.9,1815.7l-140.1,199.6h84.8L1271.9,1815.7z M1875.3,1748c0-16.7-0.1-33.3-0.1-49.6
	c-56.4-15-161.4-42.4-161.4-42.4l0.7,0.4c-1.6-0.4-2.4-0.6-2.4-0.6L1875.3,1748z M1747.7,1741l128,175.4
	c-0.1-22.3-0.2-47.1-0.2-73.1L1747.7,1741z M1714.5,1815.7l55.2,199.6h84.8L1714.5,1815.7z M179.8,1064.8l23.9,86.8l6.2,22.7
	l7.3-109.5H179.8z M324.1,1064.8c0.3,9.6,2.3,82.8,2.3,82.6c0-0.6,28.4-76.3,30.7-82.6H324.1z M250.5,1064.8l14.6,73.9l4.7,19.4
	l13.1-93.3H250.5z M682.4,1064.8l7.3,109.5l6.2-22.7l23.9-86.8H682.4z M542.3,1064.8c2.3,6.2,30.7,82,30.7,82.6c0,0.2,2-73,2.3-82.6
	H542.3z M616.5,1064.8l13.1,93.3l4.7-19.4l14.6-73.9H616.5z M1223.5,1064.7l23.9,86.8l6.2,22.7l7.3-109.5H1223.5z M1367.8,1064.7
	c0.3,9.6,2.3,82.8,2.3,82.6c0-0.6,28.4-76.3,30.7-82.6H1367.8z M1294.2,1064.7l14.6,73.9l4.7,19.4l13.1-93.3H1294.2z M1726.1,1064.7
	l7.3,109.5l6.2-22.7l23.9-86.8H1726.1z M1586,1064.7c2.3,6.2,30.7,82,30.7,82.6c0,0.2,2-73,2.3-82.6H1586z M1660.2,1064.7l13.1,93.3
	l4.7-19.4l14.6-73.9H1660.2z"/>
<path id="color3" fill="#231F20" d="M831.7,1968.5l-110.5-197.3l110.6,150.9C831.7,1939.6,831.7,1955.3,831.7,1968.5z M686.9,1670.4L832,1799.2
	c0-15,0-30.2,0.1-45.4L686.9,1670.4z M177.8,1771.2L67.5,1921.8c0,18.1-0.1,33.7-0.2,46.8L177.8,1771.2z M676.8,2015.5h44.9
	l-49.9-178.7L676.8,2015.5z M67.5,1753.6c0,15.8,0.1,30.9,0.1,45.3l144.6-128.5L67.5,1753.6z M177.3,2015.5h44.9l5-178.7
	L177.3,2015.5z M721.5,711.1L521.8,579.2l188,170.8C712.8,738.7,716.7,725.9,721.5,711.1z M207.7,353.4l148.7,465H392L207.7,353.4z
	 M368.4,525.8l180.4,292.6h43.3L368.4,525.8z M1271.8,750l188-170.8L1260,711.1C1264.9,725.9,1268.8,738.7,1271.8,750z
	 M1773.9,353.4l-148.7,465h-35.7L1773.9,353.4z M1613.2,525.8l-180.4,292.6h-43.3L1613.2,525.8z M1270.9,1836.8l-49.8,178.5h44.8
	L1270.9,1836.8z M1221.5,1771.2L1110.2,1923c-0.1,18.1-0.1,33.9-0.1,47.1L1221.5,1771.2z M1110.7,1753.8c0,15.2-0.1,30.5-0.1,45.6
	l145.3-129L1110.7,1753.8z M1764.9,1771.2l111,198.3c-0.1-13.6-0.1-29.5-0.2-47L1764.9,1771.2z M1875.4,1799c0-15-0.1-30.2-0.1-45.4
	l-144.7-83.2L1875.4,1799z M1715.5,1836.8l5,178.5h44.8L1715.5,1836.8z M179.8,1064.8h-15.3l38.8,85.7l0.4,0.4L179.8,1064.8z
	 M308.4,1064.8l17.5,63.3c-0.7-22.3-1.6-56.8-1.8-63.3H308.4z M250.5,1064.8h-15.2l29.5,73L250.5,1064.8z M695.9,1150.9l0.4-0.4
	l38.8-85.7h-15.3L695.9,1150.9z M575.3,1064.8c-0.1,6.4-1.1,41-1.8,63.3l17.5-63.3H575.3z M634.7,1137.8l29.5-73H649L634.7,1137.8z
	 M1223.5,1064.7h-15.3l38.8,85.7l0.4,0.4L1223.5,1064.7z M1352.1,1064.7l17.5,63.3c-0.7-22.3-1.6-56.8-1.8-63.3H1352.1z
	 M1294.2,1064.7H1279l29.5,73L1294.2,1064.7z M1739.6,1150.8l0.4-0.4l38.8-85.7h-15.3L1739.6,1150.8z M1619,1064.7
	c-0.1,6.4-1.1,41-1.8,63.3l17.5-63.3H1619z M1678.4,1137.7l29.5-73h-15.2L1678.4,1137.7z"/>
</svg>
