<?xml version="1.0" encoding="utf-8"?>
<!-- Generator: Adobe Illustrator 19.0.1, SVG Export Plug-In . SVG Version: 6.00 Build 0)  -->
<svg version="1.1" id="Layer_4" xmlns="http://www.w3.org/2000/svg" xmlns:xlink="http://www.w3.org/1999/xlink" x="0px" y="0px"
	 viewBox="0 0 2048 2048" style="enable-background:new 0 0 2048 2048;" xml:space="preserve">
<path id="color1" fill="#000000" d="M262.1,818.3l0.2-4.2c0.5-10.4-0.8-23.6-1.6-32.3c-0.3-3.1-0.6-5.9-0.7-7.9c-17.2-67.4-58.6-172-90.2-248
	C134.7,441.6,24.1,179.5,23,176.9l-1.2-2.7l2.3-1.9c46-38.1,97-63.5,165.4-82.2c87.2-23.9,184.1-35.5,296.3-35.5c2.2,0,4.5,0,6.7,0
	C605.9,55,719.6,68.4,789.2,89.7c59,18,124.2,41.9,160.3,82.7l1.8,2l-1.2,2.4c-11.3,23-151.5,323.5-188,421.4
	c-37,99-55.3,152.1-59.3,185.8c-1.6,13.5-1.6,17.9-1.5,25.1c0,1.6,0,3.3,0,5.3v4L262.1,818.3L262.1,818.3z M1718.3,818.3l-0.2-4.2
	c-0.5-10.4,0.8-23.6,1.6-32.3c0.3-3.1,0.6-5.9,0.7-7.9c17.2-67.4,58.6-172,90.2-248c35.1-84.3,145.7-346.4,146.8-349.1l1.2-2.7
	l-2.3-1.9c-46-38.1-97-63.5-165.4-82.2c-87.2-23.9-184.1-35.5-296.3-35.5c-2.2,0-4.5,0-6.7,0c-113.4,0.5-227.1,13.9-296.7,35.2
	c-59,18-124.2,41.9-160.3,82.7l-1.8,2l1.2,2.4c11.3,23,151.5,323.5,188,421.4c37,99.2,56.4,155,59.6,185c1,9.2,0.8,15.6,0.7,22.4
	c-0.1,2.7-0.1,5.6-0.1,8.7v4H1718.3z M831.6,2015.4v-4c0-0.8,0.1-42.9,0.2-101.2c0.2-150.2,0.6-401.6,0.6-414.6v-2.3l-2-1.1
	c-9.9-5.6-20.1-11.3-35.2-27.1c-18.4-19.2-31.7-65-37.4-129.1c-5.6-62.1-8.6-265.3-8.6-267.3l-0.1-3.9H478.6l-29.4,218.7
	c-8-59.9-25.4-191.5-28-215.1l-0.4-3.6H150l-0.1,3.9c-1.3,43.8-2.2,81.8-3,115.3c-3.5,149.2-4.9,205-31.2,263.8
	c-5.8,12.9-28.4,35.5-46.6,43.3l-2.4,1v2.6c0,2.1,0,12.3,0.1,28.6c1.1,288.8,1,453.1-0.1,488.1l-0.1,4.1h765V2015.4z M1876.4,2015.4
	l-0.1-4.1c-1-66.5-1.3-512.6-1.3-516.9v-2.6l-2.4-1c-19.1-8.2-32.2-19.8-42.8-54.5c-21-69.1-34.3-154.7-35.7-367.6v-4h-225.4
	l-1.2,1.2c-19.2,19.2-48.9,32.3-75.7,33.4c-0.9,0-1.7,0.1-2.6,0.1c-32.6,0-60.9-25.6-68.8-33.5l-1.2-1.2H1195l-0.2,3.8
	c-0.1,1.9-7.9,188.4-13.5,250.6c-6.3,70.1-26.6,124.8-32.7,139.9c-7.1,17.6-22.6,26.2-32.9,31.9c-0.8,0.4-1.5,0.8-2.2,1.2l-2,1.1
	v2.3c0,13-0.8,264.4-1.2,414.6c-0.2,60.4-0.3,100.4-0.3,101.2v4L1876.4,2015.4L1876.4,2015.4z M831.6,2015.4v-4
	c0-0.8,0.1-42.9,0.2-101.2c0.2-150.2,0.6-401.6,0.6-414.6v-2.3l-2-1.1c-9.9-5.6-20.1-11.3-35.2-27.1c-18.4-19.2-31.7-65-37.4-129.1
	c-5.6-62.1-8.6-265.3-8.6-267.3l-0.1-3.9H478.6l-29.4,218.7c-8-59.9-25.4-191.5-28-215.1l-0.4-3.6H150l-0.1,3.9
	c-1.3,43.8-2.2,81.8-3,115.3c-3.5,149.2-4.9,205-31.2,263.8c-5.8,12.9-28.4,35.5-46.6,43.3l-2.4,1v2.6c0,2.1,0,12.3,0.1,28.6
	c1.1,288.8,1,453.1-0.1,488.1l-0.1,4.1h765V2015.4z M1876.4,2015.4l-0.1-4.1c-1-66.5-1.3-512.6-1.3-516.9v-2.6l-2.4-1
	c-19.1-8.2-32.2-19.8-42.8-54.5c-21-69.1-34.3-154.7-35.7-367.6v-4h-225.4l-1.2,1.2c-19.2,19.2-48.9,32.3-75.7,33.4
	c-0.9,0-1.7,0.1-2.6,0.1c-32.6,0-60.9-25.6-68.8-33.5l-1.2-1.2H1195l-0.2,3.8c-0.1,1.9-7.9,188.4-13.5,250.6
	c-6.3,70.1-26.6,124.8-32.7,139.9c-7.1,17.6-22.6,26.2-32.9,31.9c-0.8,0.4-1.5,0.8-2.2,1.2l-2,1.1v2.3c0,13-0.8,264.4-1.2,414.6
	c-0.2,60.4-0.3,100.4-0.3,101.2v4L1876.4,2015.4L1876.4,2015.4z M1242,936.7V886H557.3v50.7H1242z"/>
<path id="color2" fill="#ED1C24" d="M492.5,54.6c19.8,0.1,39.5,0.5,59,1.4c0,44.1,0,74,0,79.4c0,26.4-17.8,59.2-65,59.2c-47.2,0-65-32.8-65-59.2
	c0-5.4,0-35.2,0-79.4c20.9-0.9,42.3-1.3,64.3-1.3C488,54.6,490.3,54.6,492.5,54.6z M1487.3,54.6c-19.8,0.1-39.5,0.5-59,1.4
	c0,44.1,0,74,0,79.4c0,26.4,17.8,59.2,65,59.2c47.2,0,65-32.8,65-59.2c0-5.4,0-35.2,0-79.4c-20.9-0.9-42.3-1.3-64.3-1.3
	C1491.8,54.6,1489.5,54.6,1487.3,54.6z M67.6,1892h764.3c0.1-39.5,0.1-84.5,0.2-129.7H67.5C67.6,1812.9,67.6,1856.2,67.6,1892z
	 M756.5,613.1H205c17.4,44.7,34.3,90.8,46.2,129.7h460.5C720.4,712.4,735,671.2,756.5,613.1z M1775.4,613.1h-551.5
	c21.4,57.6,36.3,99.6,45.1,129.7h460.3C1741.1,703.9,1758,657.8,1775.4,613.1z M1110.7,1762.2c-0.1,45.2-0.3,90.2-0.4,129.7h765.3
	c-0.1-39.5-0.2-84.5-0.3-129.7H1110.7z M1794.8,1126.6c-0.4-18.2-0.6-37.4-0.7-57.9v-4h-225.4l-1.2,1.2
	c-19.2,19.2-48.9,32.3-75.7,33.4c-0.9,0-1.7,0.1-2.6,0.1c-32.6,0-60.9-25.6-68.8-33.5l-1.2-1.2H1195l-0.2,3.8c0,0.7-1,24.7-2.6,58.1
	H1794.8z M428.2,1123.8c-3.4-26.4-6.1-47.3-7-55.4l-0.4-3.6H150l-0.1,3.9c-0.6,19.5-1.1,37.8-1.5,55.1H428.2z M750.2,1123.8
	c-0.6-32-1-54.4-1-55.1l-0.1-3.9H478.6l-7.9,59H750.2z"/>
</svg>
