<?xml version="1.0" encoding="utf-8"?>
<!-- Generator: Adobe Illustrator 19.0.1, SVG Export Plug-In . SVG Version: 6.00 Build 0)  -->
<svg version="1.1" id="_x2B_4" xmlns="http://www.w3.org/2000/svg" xmlns:xlink="http://www.w3.org/1999/xlink" x="0px" y="0px"
	 viewBox="0 0 2048 2048" style="enable-background:new 0 0 2048 2048;" xml:space="preserve">

<path id="color1" fill="#0000FF" d="M372.1,819.8c-32.9,0-58.5-0.1-76.1-0.2c-9.7-0.1-17.2-0.1-22.3-0.2c-2.7,0-4.7-0.1-6-0.2
	c-1.9-0.1-5.9-0.2-5.9-4.2c0-3.4,0.1-6.3,0.1-9.1c0.2-8.4,0.3-15-1.3-25.9c-4.8-32.1-52.7-162.9-90.7-254.1
	C134.7,441.6,24.1,179.5,23,176.9l-1.2-2.7l2.3-1.9c46-38.1,97-63.5,165.4-82.2c87.2-23.9,184.1-35.5,296.3-35.5c2.2,0,4.5,0,6.7,0
	C605.9,55,719.6,68.4,789.2,89.7c59,18,124.2,41.9,160.3,82.7l1.8,2l-1.2,2.4c-11.3,23-151.5,323.5-188,421.4
	c-36.9,98.9-52.5,142.9-58.4,180.9c-1.8,12-1.5,20.5-1.2,28.1c0.1,2.7,0.2,5.3,0.2,7.9v4h-4c-4.9,0-23.1,0.1-48.4,0.1
	C584.1,819.4,460.7,819.8,372.1,819.8z M1684.1,819.7c9.7-0.1,17.2-0.1,22.3-0.2c2.7,0,4.7-0.1,6-0.2c1.9-0.1,5.9-0.2,5.9-4.2
	c0-3.3-0.1-6.3-0.1-9.1c-0.2-8.4-0.3-15,1.3-25.9c4.8-32,52.7-162.9,90.7-254.1c35.1-84.3,145.7-346.4,146.8-349.1l1.2-2.7l-2.3-1.9
	c-46-38.1-97-63.5-165.4-82.2c-87.2-23.9-184.1-35.5-296.3-35.5c-2.2,0-4.5,0-6.7,0c-113.4,0.5-227.1,13.9-296.7,35.2
	c-59,18-124.2,41.9-160.3,82.7l-1.8,2l1.2,2.4c11.3,23,151.5,323.5,188,421.4c36.9,98.9,52.5,142.9,58.4,180.9
	c1.8,12,1.5,20.5,1.2,28.1c-0.1,2.7-0.2,5.3-0.2,7.9v4h4c4.9,0,23.1,0.1,48.4,0.1c66.3,0.2,189.7,0.6,278.3,0.6
	C1640.9,819.8,1666.5,819.8,1684.1,819.7z M831.6,2016.3v-4c0-0.8,0.1-43,0.2-101.4c0.2-150.5,0.6-402.3,0.6-415.3v-2.3l-2-1.1
	c-9.9-5.6-20.1-11.3-35.2-27.1c-18.4-19.2-31.7-65-37.4-129.1c-5.6-62.1-8.6-265.3-8.6-267.3l-0.1-3.9H478.6l-29.4,218.7
	c-8-59.9-25.4-191.5-28-215.1l-0.4-3.6H150l-0.1,3.9c-1.3,43.8-2.2,81.8-3,115.3c-3.5,149.2-4.9,205-31.2,263.8
	c-5.8,12.9-28.4,35.5-46.6,43.3l-2.4,1v2.6c0,2.1,0,12.3,0.1,28.6c1.1,289.4,1,453.9-0.1,489l-0.1,4.1h765V2016.3z M1876.4,2016.3
	l-0.1-4.1c-1-66.5-1.3-513.5-1.3-517.8v-2.6l-2.4-1c-19.1-8.2-32.2-19.8-42.8-54.5c-21-69.1-34.3-154.7-35.7-367.6v-4h-225.4
	l-1.2,1.2c-19.2,19.1-48.9,32.3-75.7,33.4c-0.9,0-1.7,0.1-2.6,0.1c-25.9,0-52.5-17.3-68.8-33.5l-1.2-1.2H1195l-0.2,3.8
	c-0.1,1.9-7.9,188.4-13.5,250.6c-6.3,70.1-26.6,124.8-32.7,139.9c-7.1,17.6-22.6,26.2-32.9,31.9c-0.8,0.4-1.5,0.8-2.2,1.2l-2,1.1
	v2.3c0,13-0.8,264.8-1.2,415.3c-0.2,60.5-0.3,100.5-0.3,101.4v4L1876.4,2016.3L1876.4,2016.3z M1242,936.7V886h-4
	c-0.4,0-45.3-0.2-88.8-0.2c-37.7,0-63.2,0.1-75.6,0.4c-31,0.6-124.1,2.6-173.1,40.1C857.6,892.2,769.7,887,706.7,886
	c-13.8-0.2-33.5-0.3-58.6-0.3c-42.6,0-86.5,0.3-86.9,0.3h-4v50.6H1242V936.7z"/>
<path id="color2" fill="#ED1C24" d="M902.2,1023.9c-1.5,0-3.4-0.5-10.4-6.5c-4.5-3.9-9.9-9.1-15.3-14.6c-8.2-8.5-23.4-25.2-32.9-41.9l-3.4-6h120.4
	l-2.7,5.7c-8.4,18-22.9,34.7-30.8,43.1c-5,5.3-10.2,10.3-14.7,14.1C905.1,1024,903.4,1024,902.2,1023.9z M485.8,54.6
	c-22,0-43.4,0.5-64.3,1.3c0,44.1,0,74,0,79.4c0,26.4,17.8,59.2,65,59.2c47.2,0,65-32.8,65-59.2c0-5.4,0-35.2,0-79.4
	c-19.5-0.8-39.3-1.3-59-1.4C490.3,54.6,488,54.6,485.8,54.6z M1494,54.6c22,0,43.4,0.5,64.3,1.3c0,44.1,0,74,0,79.4
	c0,26.4-17.8,59.2-65,59.2c-47.2,0-65-32.8-65-59.2c0-5.4,0-35.2,0-79.4c19.5-0.8,39.3-1.3,59-1.4
	C1489.5,54.6,1491.8,54.6,1494,54.6z M469.9,1129.8l8.7-65h270.5l0.1,3.9c0,0.7,0.4,25.9,1.1,61.1H469.9z M149.9,1068.7l0.1-3.9
	h270.8l0.4,3.6c1,8.7,3.9,32.2,7.7,61.4H148.2C148.7,1110.8,149.3,1090.4,149.9,1068.7z M1194.8,1068.5l0.2-3.8h224.2l1.2,1.2
	c7.9,7.9,36.2,33.5,68.8,33.5c0.9,0,1.7-0.1,2.6-0.1c26.8-1.1,56.5-14.2,75.7-33.4l1.2-1.2h225.4v4c0.1,21.6,0.4,41.9,0.8,61h-602.8
	C1193.7,1094.7,1194.8,1069.2,1194.8,1068.5z M67.5,1762.2H832c-0.1,45.2-0.1,90.2-0.2,129.7H67.6
	C67.6,1856.2,67.6,1812.9,67.5,1762.2z M711.7,742.9H251.2c-11.9-39-28.8-85.1-46.2-129.7h551.5C735,671.2,720.4,712.4,711.7,742.9z
	 M1729.2,742.9h-460.3c-8.8-30.2-23.7-72.1-45.1-129.7h551.5C1758,657.8,1741.1,703.9,1729.2,742.9z M1875.3,1762.2
	c0.1,45.2,0.2,90.3,0.3,129.7h-765.3c0.1-39.5,0.2-84.5,0.4-129.7H1875.3z"/>
</svg>
