<?xml version="1.0" encoding="utf-8"?>
<!-- Generator: Adobe Illustrator 19.0.1, SVG Export Plug-In . SVG Version: 6.00 Build 0)  -->
<svg version="1.1" id="_x2B_4" xmlns="http://www.w3.org/2000/svg" xmlns:xlink="http://www.w3.org/1999/xlink" x="0px" y="0px"
	 viewBox="0 0 2048 2048" style="enable-background:new 0 0 2048 2048;" xml:space="preserve">

<path id="color1" fill="#0000FF" d="M261.4,819.3l0.1-4.1c0.1-2.4,0.2-4.7,0.3-7c0.3-7.4,0.7-15-0.5-23.6c-4.8-33.1-53.9-168.5-91.5-258.6
	C134.7,441.6,24.1,179.5,23,176.9l-1.2-2.7l2.3-1.9c46-38.1,97-63.5,165.4-82.2c87.2-23.9,184.1-35.5,296.3-35.5c2.2,0,4.5,0,6.7,0
	C605.9,55,719.6,68.4,789.2,89.7c59,18,124.2,41.9,160.3,82.7l1.8,2l-1.2,2.4c-11.3,23-151.5,323.5-188,421.4
	C725,697.7,710.7,739,704.6,772.7c-2.1,11.6-2.1,20.8-2.2,32.5c0,3.2,0,6.6-0.1,10.2l-0.1,3.9H261.4z M1719.7,819.3l-0.1-4.1
	c-0.1-2.4-0.2-4.7-0.3-7c-0.3-7.4-0.7-15,0.5-23.6c4.8-33.1,53.9-168.5,91.5-258.6c35.1-84.3,145.7-346.4,146.8-349.1l1.2-2.7
	l-2.3-1.9c-46-38.1-97-63.5-165.4-82.2c-87.2-23.9-184.1-35.5-296.3-35.5c-2.2,0-4.5,0-6.7,0c-113.4,0.4-227,13.8-296.6,35.1
	c-59,18-124.2,41.9-160.3,82.7l-1.8,2l1.2,2.4c11.3,23,151.5,323.5,188,421.4c37.1,99.5,51.4,140.8,57.5,174.5
	c2.1,11.6,2.1,20.8,2.2,32.5c0,3.2,0,6.5,0.1,10.2l0.1,3.9H1719.7z M831.6,2017.1v-4c0-0.8,0.1-43.1,0.2-101.5
	c0.2-150.7,0.6-403,0.6-415.9v-2.3l-2-1.1c-9.9-5.6-20.1-11.3-35.2-27.1c-18.4-19.2-31.7-65-37.4-129.1
	c-5.6-62.1-8.6-265.3-8.6-267.3l-0.1-3.9H519.8l-0.2,3.7c-0.3,4.7-0.5,10.6-0.7,17.5c-1.9,54.2-5.7,166.9-69.6,166.9
	c-29.8,0-50.6-25-61.8-74.2c-9.3-40.9-9.3-86.4-9.2-108.2v-5.8H150l-0.1,3.9c-1.3,43.8-2.2,81.8-3,115.3
	c-3.5,149.2-4.9,205-31.2,263.8c-5.8,12.9-28.4,35.5-46.6,43.3l-2.4,1v2.6c0,2.1,0,12.3,0.1,28.6c1.1,289.9,1,454.7-0.1,489.8
	l-0.1,4.1h765V2017.1z M1876.4,2017.1l-0.1-4.1c-1-66.5-1.3-514.3-1.3-518.6v-2.6l-2.4-1c-19.1-8.2-32.2-19.8-42.8-54.5
	c-21-69.1-34.3-154.7-35.7-367.6v-4h-225.4l-1.2,1.2c-19.2,19.2-48.9,32.3-75.7,33.4c-0.9,0-1.7,0.1-2.6,0.1
	c-32.6,0-60.9-25.6-68.8-33.5l-1.2-1.2H1195l-0.2,3.8c-0.1,1.9-7.9,188.4-13.5,250.6c-6.3,70.1-26.6,124.8-32.7,139.9
	c-7.1,17.6-22.6,26.2-32.9,31.9c-0.8,0.4-1.5,0.8-2.2,1.2l-2,1.1v2.3c0,13-0.8,265.2-1.2,415.9c-0.2,60.6-0.3,100.7-0.3,101.6v4
	L1876.4,2017.1L1876.4,2017.1z M1242,936.7V886H557.3v50.7H1242z"/>
<path id="color2" fill="#ED1C24" d="M492.5,54.6c19.8,0.1,39.5,0.5,59,1.4c0,44.1,0,74,0,79.4c0,26.4-17.8,59.2-65,59.2c-47.2,0-65-32.8-65-59.2
	c0-5.4,0-35.2,0-79.4c20.9-0.9,42.3-1.3,64.3-1.3C488,54.6,490.3,54.6,492.5,54.6z M1487.3,54.6c-19.8,0.1-39.5,0.5-59,1.4
	c0,44.1,0,74,0,79.4c0,26.4,17.8,59.2,65,59.2c47.2,0,65-32.8,65-59.2c0-5.4,0-35.2,0-79.4c-20.9-0.9-42.3-1.3-64.3-1.3
	C1491.8,54.6,1489.5,54.6,1487.3,54.6z M380.3,1129.8c-2-24.2-2-46-2-59.2v-5.8H150l-0.1,3.9c0,0.2,0,0.4,0,0.7
	c-0.2,5.2-0.3,10.4-0.4,15.4c-0.1,1.8-0.1,3.5-0.1,5.3c0,0.8,0,1.7-0.1,2.5c-0.1,5.1-0.3,10.1-0.4,15.1c0,0.1,0,0.1,0,0.2
	c-0.1,2.3-0.1,4.6-0.2,6.9c0,0.2,0,0.3,0,0.5c-0.1,4.7-0.2,9.4-0.4,13.9c0,0.2,0,0.4,0,0.6H380.3z M750.3,1129.8
	c-0.7-35.1-1.1-60.3-1.1-61l-0.1-3.9H519.8l-0.2,3.7c-0.3,4.7-0.5,10.6-0.7,17.5c-0.4,12.2-1,27.5-2.3,43.7H750.3z M1194.8,1068.7
	c0,0.1,0,0.1,0,0.2c0,0,0,0,0,0.1c0,0.2,0,0.5,0,0.8c0,0.2,0,0.4,0,0.6c0,0.3,0,0.5,0,0.8c0,0.3,0,0.6,0,0.9c0,0.1,0,0.2,0,0.3
	c0,0.7-0.1,1.6-0.1,2.6c0,0.4,0,0.8-0.1,1.3c0,0.3,0,0.5,0,0.8c0,0.4,0,0.7,0,1.1c-0.1,1.8-0.2,3.9-0.3,6.2c0,0,0,0,0,0
	c-0.1,1.2-0.1,2.4-0.2,3.7c0,0.2,0,0.4,0,0.5c-0.2,3.5-0.3,7.4-0.5,11.6c0,0,0,0.1,0,0.1c-0.4,8.6-0.8,18.6-1.3,29.5h602.8
	c0,0,0,0,0,0c-0.2-9-0.3-18.3-0.5-27.8c0-0.7,0-1.5,0-2.2c0-1.6,0-3.3-0.1-5c0-1.3,0-2.7,0-4c0-1.4,0-2.8,0-4.2c0-1.8,0-3.6-0.1-5.4
	c0-1.1,0-2.2,0-3.3c0-3,0-6-0.1-9v-4h-225.4l-1.2,1.2c-19.2,19.2-48.9,32.3-75.7,33.4c-0.9,0-1.7,0.1-2.6,0.1
	c-32.6,0-60.9-25.6-68.8-33.5l-1.2-1.2H1195l-0.2,3.8C1194.8,1068.5,1194.8,1068.6,1194.8,1068.7
	C1194.8,1068.6,1194.8,1068.7,1194.8,1068.7z M67.6,1892h764.3c0.1-39.5,0.1-84.5,0.2-129.7H67.5C67.6,1812.9,67.6,1856.2,67.6,1892
	z M756.5,613.1H205c17.4,44.7,34.3,90.8,46.2,129.7h460.5C720.4,712.4,735,671.2,756.5,613.1z M1775.4,613.1h-551.5
	c21.4,57.6,36.3,99.6,45.1,129.7h460.3C1741.1,703.9,1758,657.8,1775.4,613.1z M1110.7,1762.2c-0.1,45.2-0.3,90.2-0.4,129.7h765.3
	c-0.1-39.5-0.2-84.5-0.3-129.7H1110.7z"/>
</svg>
