<?xml version="1.0" encoding="utf-8"?>
<!-- Generator: Adobe Illustrator 19.0.1, SVG Export Plug-In . SVG Version: 6.00 Build 0)  -->
<svg version="1.1" id="Layer_4" xmlns="http://www.w3.org/2000/svg" xmlns:xlink="http://www.w3.org/1999/xlink" x="0px" y="0px"
	 viewBox="0 0 2048 2048" style="enable-background:new 0 0 2048 2048;" xml:space="preserve">

<path id="color1" fill="#0000FF" d="M261.7,819.1l-0.3-3.7c-0.1-1.6-0.1-3.7,0-6.4c0.1-7.9,0.4-21.2-3.3-39.7c-5-25-51.5-155.1-88.3-243.3
	C134.7,441.6,24.1,179.5,23,176.9l-1.2-2.7l2.3-1.9c46-38.1,97-63.5,165.4-82.2c87.2-23.9,184.1-35.5,296.3-35.5c2.2,0,4.5,0,6.7,0
	C605.9,55,719.6,68.4,789.2,89.7c59,18,124.2,41.9,160.3,82.7l1.8,2l-1.2,2.4c-11.3,23-151.5,323.5-188,421.4
	c-37.5,100.4-53.9,151-58.6,180.5c-1.3,8.4-1.1,18-0.9,28.2c0.1,2.7,0.1,5.4,0.1,8.1v4h-441V819.1z M1718.4,819.1l0.3-3.7
	c0.1-1.6,0.1-3.7,0-6.4c-0.1-7.9-0.4-21.2,3.3-39.7c5-25.1,51.5-155.1,88.3-243.3c35.1-84.3,145.7-346.4,146.8-349.1l1.2-2.7
	l-2.3-1.9c-46-38.1-97-63.5-165.4-82.2c-87.2-23.9-184.1-35.5-296.3-35.5c-2.2,0-4.5,0-6.7,0c-113.4,0.5-227.1,13.9-296.7,35.2
	c-59,18-124.2,41.9-160.3,82.7l-1.8,2l1.2,2.4c11.3,23,151.5,323.5,188,421.4c37.5,100.4,53.9,151,58.6,180.5
	c1.3,8.4,1.1,18.1,0.9,28.3c-0.1,2.7-0.1,5.4-0.1,8.1v4L1718.4,819.1L1718.4,819.1z M831.6,2016.8v-4c0-0.8,0.1-43.1,0.2-101.5
	c0.2-150.6,0.6-402.7,0.6-415.7v-2.3l-2-1.1c-9.9-5.6-20.1-11.3-35.2-27.1c-18.4-19.2-31.7-65-37.4-129.1
	c-5.6-62.1-8.6-265.3-8.6-267.3l-0.1-3.9h-257l-0.5,3.4c-1.4,9.4-34,227-32.5,297.9H440c-4.7-89.2-24.2-244.8-33-297.9l-0.6-3.3H150
	l-0.1,3.9c-1.3,43.8-2.2,81.8-3,115.3c-3.5,149.2-4.9,205-31.2,263.8c-5.8,12.9-28.4,35.5-46.6,43.3l-2.4,1v2.6
	c0,2.1,0,12.3,0.1,28.6c1.1,289.7,1,454.4-0.1,489.4l-0.1,4.1h765V2016.8z M1876.4,2016.8l-0.1-4.1c-1-66.5-1.3-513.9-1.3-518.2
	v-2.6l-2.4-1c-19.1-8.2-32.2-19.8-42.8-54.5c-21-69.1-34.3-154.7-35.7-367.6v-4h-225.4l-1.2,1.2c-19.2,19.2-48.9,32.3-75.7,33.4
	c-0.9,0-1.7,0.1-2.6,0.1c-32.6,0-60.9-25.6-68.8-33.5l-1.2-1.2H1195l-0.2,3.8c-0.1,1.9-7.9,188.4-13.5,250.6
	c-6.3,70.1-26.6,124.8-32.7,139.9c-7.1,17.6-22.6,26.2-32.9,31.9c-0.8,0.4-1.5,0.8-2.2,1.2l-2,1.1v2.3c0,13-0.8,265-1.2,415.6
	c-0.2,60.6-0.3,100.6-0.3,101.5v4L1876.4,2016.8L1876.4,2016.8z M946.3,1014.3l-1.1-77.3l422.8-0.3v-52.5l-422.1,11.9l-3.6,13.5
	L921.9,893l-1.2-0.9h-5.5l0.9,91.7h-29.8l0.9-91.7h-6.9l-20.6,17.4l-3.7-13.9l-422-11.4v52.5l423.9,0.3l-1.2,77.3H946.3z
	 M949,1786.5v-363.8h-36.5v363.8H949z M994.1,1786.5v-363.8h-36.5v363.8H994.1z"/>
<path id="color2" fill="#009847" d="M831.6,2011.4v4H66.9l-0.1-3c0-0.4,0-0.8-0.1-1.1c0.5-14.6,0.7-51.5,0.8-110.2c30.7,2,116.6,5,209.9-10.6
	c144.1-24.1,235-73.2,351.4-102.9c72.3-18.5,157.2-18.3,203.1-14.8c-0.1,48.8-0.1,96.8-0.2,137.5
	C831.7,1968.5,831.6,2010.6,831.6,2011.4z M1111.2,2011.4v4h764.7l0.1-3c0-0.4,0-0.8,0.1-1.1c-0.5-14.6-0.7-51.5-0.8-110.2
	c-30.7,2-116.6,5-209.9-10.6c-144.1-24.1-235-73.2-351.4-102.9c-72.3-18.5-157.2-18.3-203.1-14.8c0.1,48.8,0.1,96.8,0.2,137.5
	C1111.1,1968.5,1111.2,2010.6,1111.2,2011.4z M745.9,1467.2c-39.1-33-85.8-37.5-110-36.7c-24.3,0.8-78.2,28.8-115.8,41.8
	c-31.9,11.1-64.3,19.7-130.4,22c73.8,30.8,151.8,3.2,185.8-13.8c13.8-6.9,39-20.4,70.1-23.9C682.1,1452.4,728,1461.5,745.9,1467.2z
	 M701.1,440.6c25.9-14.9,49.9-36.2,56-70.1c6.1-33.9-3-59.1-1.9-74.7s3-25.5,17.9-46.5c14.9-21,21-52.6,11.1-72
	c-10.3,34.3-26.7,39.3-45.7,60.6s-22.1,51.1-20.2,77c1.9,25.9,8,46.5,1.1,75.8C712.6,420,706.8,430.3,701.1,440.6z M1279.7,390.7
	c-6.9-29.3-0.8-49.9,1.1-75.8c1.9-25.9-1.1-55.6-20.2-77s-35.4-26.3-45.7-60.6c-9.9,19.4-3.8,51.1,11.1,72
	c14.9,21,16.8,30.9,17.9,46.5s-8,40.8-1.9,74.7s30.1,55.3,56,70.1C1292.3,430.3,1286.5,420,1279.7,390.7z"/>
<path id="color3" fill="#FFFF00" d="M831.9,1822.4c-68.5-9.6-166.1,2.8-226.7,21.3c-74.8,22.7-158.9,57.1-230.9,41.1
	c51.6,2.3,155.9-46.5,223.1-67.4c63.7-19.8,159.3-33.5,234.6-24C832,1803.1,831.9,1812.8,831.9,1822.4z M1110.9,1822.4
	c68.5-9.6,166.1,2.8,226.7,21.3c74.8,22.7,158.9,57.1,230.9,41.1c-51.6,2.3-155.9-46.5-223.1-67.4c-63.7-19.8-159.3-33.5-234.6-24
	C1110.9,1803.1,1110.9,1812.8,1110.9,1822.4z"/>
<path id="color4" fill="#000000" d="M67.6,1849.3c39.8,5.1,107.8,7.8,161.5,0.3c87.6-12.2,127.6-32.5,189.7-50.2c47-13.4,107.5-31.1,169.4-18.9
	c-23.5,3.2-162.1,47.9-196.1,59.9c-34.1,12-105.9,32.7-175.9,39.6c-45.6,4.5-106.7,5.3-148.6,0.5
	C67.6,1870.6,67.6,1860.2,67.6,1849.3z M1875.2,1849.3c-39.8,5.1-107.8,7.8-161.5,0.3c-87.6-12.2-127.6-32.5-189.7-50.2
	c-47-13.4-107.5-31.1-169.4-18.9c23.5,3.2,162.1,47.9,196.1,59.9c34.1,12,105.9,32.7,175.9,39.6c45.6,4.5,106.7,5.3,148.6,0.5
	C1875.2,1870.6,1875.2,1860.2,1875.2,1849.3z M250,1448.2c37.6,0.9,82.7,22.9,110.3,25.1c37.9,3,67.8,9.1,137-26.7
	c-44.1,5.6-88.4,7.5-135.6-2.6c-45.6-9.8-85.1-22.5-109.3-23.3c-24.3-0.8-71.1,12.1-111.6,54.2
	C175.7,1460.2,216.1,1447.4,250,1448.2z M253.7,390.7c-6.9-29.3-0.8-49.9,1.1-75.8c1.9-25.9-1.1-55.6-20.2-77s-35.4-26.3-45.7-60.6
	c-9.9,19.4-3.8,51.1,11.1,72c14.9,21,16.8,30.9,17.9,46.5c1.1,15.6-8,40.8-1.9,74.7s30.1,55.3,56,70.1
	C266.3,430.3,260.5,420,253.7,390.7z M1727.1,440.6c25.9-14.9,49.9-36.2,56-70.1s-3-59.1-1.9-74.7s3-25.5,17.9-46.5
	c14.9-21,21-52.6,11.1-72c-10.3,34.3-26.7,39.3-45.7,60.6s-22.1,51.1-20.2,77c1.9,25.9,8,46.5,1.1,75.8
	C1738.6,420,1732.8,430.3,1727.1,440.6z"/>
</svg>
