<?xml version="1.0" encoding="utf-8"?>
<!-- Generator: Adobe Illustrator 19.0.1, SVG Export Plug-In . SVG Version: 6.00 Build 0)  -->
<svg version="1.1" id="Layer_4" xmlns="http://www.w3.org/2000/svg" xmlns:xlink="http://www.w3.org/1999/xlink" x="0px" y="0px"
	 viewBox="0 0 2048 2048" style="enable-background:new 0 0 2048 2048;" xml:space="preserve">

<path id="color1" fill="#0000FF" d="M261.7,819.1l-0.3-3.7c-0.1-1.6-0.1-3.7,0-6.4c0.1-7.9,0.4-21.2-3.3-39.7c-5-25-51.5-155.1-88.3-243.3
	C134.7,441.6,24.1,179.5,23,176.9l-1.2-2.7l2.3-1.9c46-38.1,97-63.5,165.4-82.2c87.2-23.9,184.1-35.5,296.3-35.5c2.2,0,4.5,0,6.7,0
	C605.9,55,719.6,68.4,789.2,89.7c59,18,124.2,41.9,160.3,82.7l1.8,2l-1.2,2.4c-11.3,23-151.5,323.5-188,421.4
	c-37.5,100.4-53.9,151-58.6,180.5c-1.3,8.4-1.1,18-0.9,28.2c0.1,2.7,0.1,5.4,0.1,8.1v4h-441V819.1z M1718.4,819.1l0.3-3.7
	c0.1-1.6,0.1-3.7,0-6.4c-0.1-7.9-0.4-21.2,3.3-39.7c5-25.1,51.5-155.1,88.3-243.3c35.1-84.3,145.7-346.4,146.8-349.1l1.2-2.7
	l-2.3-1.9c-46-38.1-97-63.5-165.4-82.2c-87.2-23.9-184.1-35.5-296.3-35.5c-2.2,0-4.5,0-6.7,0c-113.4,0.5-227.1,13.9-296.7,35.2
	c-59,18-124.2,41.9-160.3,82.7l-1.8,2l1.2,2.4c11.3,23,151.5,323.5,188,421.4c37.5,100.4,53.9,151,58.6,180.5
	c1.3,8.4,1.1,18.1,0.9,28.3c-0.1,2.7-0.1,5.4-0.1,8.1v4L1718.4,819.1L1718.4,819.1z M831.6,2016.8v-4c0-0.8,0.1-43.1,0.2-101.5
	c0.2-150.6,0.6-402.7,0.6-415.7v-2.3l-2-1.1c-9.9-5.6-20.1-11.3-35.2-27.1c-18.4-19.2-31.7-65-37.4-129.1
	c-5.6-62.1-8.6-265.3-8.6-267.3l-0.1-3.9h-257l-0.5,3.4c-1.4,9.4-34,227-32.5,297.9H440c-4.7-89.2-24.2-244.8-33-297.9l-0.6-3.3H150
	l-0.1,3.9c-1.3,43.8-2.2,81.8-3,115.3c-3.5,149.2-4.9,205-31.2,263.8c-5.8,12.9-28.4,35.5-46.6,43.3l-2.4,1v2.6
	c0,2.1,0,12.3,0.1,28.6c1.1,289.7,1,454.4-0.1,489.4l-0.1,4.1h765V2016.8z M1876.4,2016.8l-0.1-4.1c-1-66.5-1.3-513.9-1.3-518.2
	v-2.6l-2.4-1c-19.1-8.2-32.2-19.8-42.8-54.5c-21-69.1-34.3-154.7-35.7-367.6v-4h-225.4l-1.2,1.2c-19.2,19.2-48.9,32.3-75.7,33.4
	c-0.9,0-1.7,0.1-2.6,0.1c-32.6,0-60.9-25.6-68.8-33.5l-1.2-1.2H1195l-0.2,3.8c-0.1,1.9-7.9,188.4-13.5,250.6
	c-6.3,70.1-26.6,124.8-32.7,139.9c-7.1,17.6-22.6,26.2-32.9,31.9c-0.8,0.4-1.5,0.8-2.2,1.2l-2,1.1v2.3c0,13-0.8,265-1.2,415.6
	c-0.2,60.6-0.3,100.6-0.3,101.5v4L1876.4,2016.8L1876.4,2016.8z M946.3,1014.3l-1.1-77.3l422.8-0.3v-52.5l-422.1,11.9l-3.6,13.5
	L921.9,893l-1.2-0.9h-5.5l0.9,91.7h-29.8l0.9-91.7h-6.9l-20.6,17.4l-3.7-13.9l-422-11.4v52.5l423.9,0.3l-1.2,77.3H946.3z
	 M949,1786.5v-363.8h-36.5v363.8H949z M994.1,1786.5v-363.8h-36.5v363.8H994.1z"/>
<path id="color2" fill="#ED1C24" d="M492.5,54.6c19.8,0.1,39.5,0.5,59,1.4c0,44.1,0,74,0,79.4c0,26.4-17.8,59.2-65,59.2c-47.2,0-65-32.8-65-59.2
	c0-5.4,0-35.2,0-79.4c20.9-0.9,42.3-1.3,64.3-1.3C488,54.6,490.3,54.6,492.5,54.6z M1487.3,54.6c-19.8,0.1-39.5,0.5-59,1.4
	c0,44.1,0,74,0,79.4c0,26.4,17.8,59.2,65,59.2c47.2,0,65-32.8,65-59.2c0-5.4,0-35.2,0-79.4c-20.9-0.9-42.3-1.3-64.3-1.3
	C1491.8,54.6,1489.5,54.6,1487.3,54.6z M750.3,1129.8c-0.7-35.2-1.1-60.4-1.1-61.1l-0.1-3.9H478.6l-8.7,65H750.3z M148.2,1129.8
	h280.7c-3.8-29.2-6.8-52.7-7.7-61.4l-0.4-3.6H150l-0.1,3.9C149.3,1090.4,148.7,1110.8,148.2,1129.8z M1192.1,1129.7h602.8
	c-0.4-19.1-0.6-39.4-0.8-61v-4h-225.4l-1.2,1.2c-19.2,19.2-48.9,32.3-75.7,33.4c-0.9,0-1.7,0.1-2.6,0.1c-32.6,0-60.9-25.6-68.8-33.5
	l-1.2-1.2H1195l-0.2,3.8C1194.8,1069.2,1193.7,1094.7,1192.1,1129.7z M67.6,1892h764.3c0.1-39.5,0.1-84.5,0.2-129.7H67.5
	C67.6,1812.9,67.6,1856.2,67.6,1892z M756.5,613.1H205c17.4,44.7,34.3,90.8,46.2,129.7h460.5C720.4,712.4,735,671.2,756.5,613.1z
	 M1775.4,613.1h-551.5c21.4,57.6,36.3,99.6,45.1,129.7h460.3C1741.1,703.9,1758,657.8,1775.4,613.1z M1110.7,1762.2
	c-0.1,45.2-0.3,90.2-0.4,129.7h765.3c-0.1-39.5-0.2-84.5-0.3-129.7H1110.7z"/>
</svg>
