<?xml version="1.0" encoding="utf-8"?>
<!-- Generator: Adobe Illustrator 19.0.1, SVG Export Plug-In . SVG Version: 6.00 Build 0)  -->
<svg version="1.1" id="Layer_4" xmlns="http://www.w3.org/2000/svg" xmlns:xlink="http://www.w3.org/1999/xlink" x="0px" y="0px"
	 viewBox="0 0 2048 2048" style="enable-background:new 0 0 2048 2048;" xml:space="preserve">

<path id="color1" fill="#0000FF" d="M402,946.2l-0.1-3.9c-0.1-3.2-0.1-6.5-0.1-10.1c0-6,0-12.2-0.6-17.6c-0.8-6.9-33.6-92.4-57.5-154.8
	c-16.1-42.2-30.1-78.6-34.7-91.9c-15.9-45.3-64.8-199.6-72.1-224.2l-0.9-2.9l2.5-1.6C265.4,422,341.1,363,371.2,332.7
	c63.7-64.1,96.6-115.9,110.5-141.1c19.1-34.6,34.1-71.1,45.7-111.6l2-7.1l4.8,5.6c12.6,14.6,22.7,23.3,37,24.7
	c2.6,0.2,5.5,0.4,8.6,0.4c13.5,0,27.6-2.5,32.9-4.8l3.8-1.7l1.5,3.9c0.4,1.1,42.8,111.7,84.4,176.2c37.2,57.7,60.6,77.3,81.3,94.7
	c2.7,2.3,5.3,4.5,8,6.7c20.5,17.7,56.4,38.1,77.8,50.3c2.3,1.3,4.4,2.5,6.3,3.6l2.5,1.4l-0.5,2.8c-5.9,32.2-31.8,212.4-33,223.4
	l-0.1,0.6l-0.3,0.6C831.6,689.6,746.7,905.5,745,916c-0.2,4.6-0.1,10.4,0.1,16.5c0.1,3.1,0.2,6.3,0.2,9.6v4H402V946.2z
	 M1512.4,946.2l0.1-3.8c0.1-3.5,0-8-0.1-12.4c-0.2-6.4-0.4-13.7,0.3-16.5c1.5-5.9,26.5-72.4,48.6-131
	c19.2-50.9,37.2-98.9,42.8-114.7c15.9-45.4,64.8-199.6,72.1-224.2l0.9-2.9l-2.5-1.6c-26.9-17.1-102.5-76.2-132.6-106.4
	c-63.7-64.1-96.6-115.9-110.5-141.1c-19.1-34.6-34.1-71.1-45.7-111.6l-2-7.1l-4.8,5.6c-12.6,14.6-22.7,23.3-37,24.7
	c-2.6,0.2-5.5,0.4-8.6,0.4c-13.5,0-27.6-2.5-32.9-4.8l-3.8-1.7l-1.5,3.9c-0.4,1.1-42.8,111.6-84.4,176.2
	c-37.2,57.7-60.6,77.3-81.3,94.7c-2.7,2.3-5.3,4.5-8,6.7c-20.5,17.7-56.4,38.1-77.8,50.3c-2.3,1.3-4.4,2.5-6.3,3.6l-2.5,1.4l0.5,2.8
	c5.9,32.2,31.8,212.4,33,223.4l0.1,0.6l0.3,0.6c10.5,23.3,94.2,237,98.5,251.3c1.2,4.1,1,11.8,0.7,19.2c-0.1,3.4-0.2,6.9-0.2,10.3v4
	h344.6V946.2z M504.1,2014.2c7.6-0.2,15.4-0.4,22.9-0.4c5.9,0,12.6,0.2,19.8,0.3c7.9,0.2,16.1,0.4,24.2,0.4c5.2,0,9.8-0.1,13.9-0.3
	c129.2-5.5,272.6-49.7,303.9-61.2l2.6-1v-2.8c0-6.6-0.2-63.8-0.4-136.1c-0.4-124.6-0.9-295.3-0.9-329.3c0-9.2,0.2-17.6,0.3-25.8
	c0.7-39,1.2-67.1-17.3-111.8c-19.6-47.2-53.4-90.8-103.4-133.2c-28-23.8-62.6-43.1-86.6-55.2c-30.6-15.3-62.9-26-96-31.8l-2.2-0.4
	l-1.5,1.7c-11.2,13-49.3,14-60.8,14c-13.9,0-34.1-2.5-51.5-14.5l-1.4-0.9l-1.6,0.3c-58.8,11.3-114,37.6-142.6,58.6
	c-55.1,40.4-90.5,68-124.1,123.1c-39.1,64.3-38.7,118.3-38.3,175.5c0,5.7,0.1,11.5,0.1,17.3c0,31.5-0.1,122.5-0.1,218.8
	c-0.1,96.4-0.1,196-0.1,230.5v2.8l2.7,0.9c68,24.3,192.7,53.5,306,60.3c3.3,0.2,7.2,0.3,11.9,0.3
	C489.7,2014.6,496.7,2014.4,504.1,2014.2z M1729,1954.8v-4c0-34.5,0.1-136.9,0.3-235.9c0.1-98.9,0.2-192.4,0.2-223.9
	c0-6.6,0.1-13,0.1-19.2c0.5-55.5,0.9-99.4-37.7-162.9c-20.8-34.2-54.9-68.5-98.7-99.2c-45-31.5-96.8-56.8-149.9-73l-4.1-1.3
	l-0.9,4.2c-9.2,40.7-43.9,100.2-75.3,129.5c-32.8-28.4-59.8-74.1-76.1-129.3l-1.1-3.7l-3.8,1c-82.8,22.3-159.5,77-174,89.3
	c-38,32.2-71.3,63.4-94.6,119.5c-19.2,46.3-18.9,75.8-18.4,116.7c0.1,6.8,0.2,13.8,0.2,21.3c0,24.6,0.4,110,0.9,200.3
	c0.5,105.9,1.1,225.9,1.1,266.5v4L1729,1954.8L1729,1954.8z M1261.2,1085.2v-51.3H618.6v51.3H1261.2z"/>
<path id="color2" fill="#ED1C24" d="M489.2,266.6c0-3.7,0-43.8,0-89c15.6-30.4,28.2-62.5,38.2-97.6l2-7.1l4.8,5.6c12.6,14.6,22.7,23.3,37,24.7
	c0.4,0,0.8,0.1,1.2,0.1v240.2C511.9,342.9,489.2,300.6,489.2,266.6z M163,1883.2h728.2c-0.1-20.4-0.1-44.3-0.2-70.1
	c-0.1-16.6-0.1-34-0.2-51.8H163.1C163,1805.6,163,1848.5,163,1883.2z M313.9,681.4c6.6,17.8,17.6,46.4,29.8,78.4
	c5.3,13.7,11,28.6,16.6,43.5h427.1c17.9-45.7,37.1-94.2,48.5-121.9H313.9z M1077.2,681.4c11.1,27.4,30.4,76.2,48.3,121.9h428
	c2.6-7,5.2-13.9,7.8-20.8c15.3-40.5,29.8-79.1,37.9-101.1H1077.2z M1729.2,1761.3H996.5c0.2,44.2,0.4,87,0.5,121.9h732
	C1729.1,1848.5,1729.1,1805.7,1729.2,1761.3z M658.2,266.6c0-3.3,0-34.1,0-71.8C635.2,146,618.3,101.7,618,101l-1.5-3.9l-3.8,1.7
	c-5.3,2.3-19.4,4.8-32.9,4.8c-2.6,0-5.1-0.1-7.4-0.3v240.2c0.4,0,0.9,0,1.3,0C635.1,343.5,658.2,300.8,658.2,266.6z M1424,266.6
	c0-3.7,0-43.8,0-89c-15.6-30.4-28.2-62.5-38.2-97.6l-2-7.1l-4.8,5.6c-12.6,14.6-22.7,23.3-37,24.7c-0.4,0-0.8,0.1-1.2,0.1v240.2
	C1401.2,342.9,1424,300.6,1424,266.6z M1339.4,343.5c0.4,0,0.9,0,1.3,0V103.3c-2.3,0.2-4.8,0.3-7.4,0.3c-13.5,0-27.6-2.5-32.9-4.8
	l-3.8-1.7l-1.5,3.9c-0.3,0.7-17.2,45-40.2,93.8c0,37.7,0,68.5,0,71.8C1254.9,300.8,1278,343.5,1339.4,343.5z M1282,1137.1
	c-35.5,9.6-69.9,25.1-98.7,40.7c38.3,0,84.8,0,117.2,0c-5.1-12-9.6-24.7-13.5-38l-1.1-3.7L1282,1137.1z M1443.3,1136.7l-4.1-1.3
	l-0.9,4.2c-2.6,11.6-7.3,24.7-13.4,38.2c32,0,78.2,0,116.4,0C1510.1,1160.9,1477,1147,1443.3,1136.7z M581,1166
	c26.4,0,68.8,0,107.6,0c3.4,0,6.8,0,10.1,0c-5.6-3-10.8-5.7-15.7-8.2c-30.6-15.3-62.9-26-96-31.8l-2.2-0.4l-1.5,1.7
	c-11.2,13-49.3,14-60.8,14c-13.9,0-34.1-2.5-51.5-14.5l-1.4-0.9l-1.6,0.3c-42,8.1-82.2,23.8-112.1,39.8c16.6,0,34.3,0,51.3,0
	c25.3,0,49.2,0,66.3,0H581z"/>
</svg>
