<?xml version="1.0" encoding="utf-8"?>
<!-- Generator: Adobe Illustrator 19.0.1, SVG Export Plug-In . SVG Version: 6.00 Build 0)  -->
<svg version="1.1" id="Layer_4" xmlns="http://www.w3.org/2000/svg" xmlns:xlink="http://www.w3.org/1999/xlink" x="0px" y="0px"
	 viewBox="0 0 2048 2048" style="enable-background:new 0 0 2048 2048;" xml:space="preserve">

<path id="color1" fill="#0000FF" d="M402,946.2l-0.1-3.9c-0.1-3.2-0.1-6.5-0.1-10.1c0-6,0-12.2-0.6-17.6c-0.8-6.9-33.6-92.4-57.5-154.8
	c-16.1-42.2-30.1-78.6-34.7-91.9c-15.9-45.3-64.8-199.6-72.1-224.2l-0.9-2.9l2.5-1.6C265.4,422,341.1,363,371.2,332.7
	c63.7-64.1,96.6-115.9,110.5-141.1c19.1-34.6,34.1-71.1,45.7-111.6l2-7.1l4.8,5.6c12.6,14.6,22.7,23.3,37,24.7
	c2.6,0.2,5.5,0.4,8.6,0.4c13.5,0,27.6-2.5,32.9-4.8l3.8-1.7l1.5,3.9c0.4,1.1,42.8,111.7,84.4,176.2c37.2,57.7,60.6,77.3,81.3,94.7
	c2.7,2.3,5.3,4.5,8,6.7c20.5,17.7,56.4,38.1,77.8,50.3c2.3,1.3,4.4,2.5,6.3,3.6l2.5,1.4l-0.5,2.8c-5.9,32.2-31.8,212.4-33,223.4
	l-0.1,0.6l-0.3,0.6C831.6,689.6,746.7,905.5,745,916c-0.2,4.6-0.1,10.4,0.1,16.5c0.1,3.1,0.2,6.3,0.2,9.6v4H402V946.2z
	 M1512.4,946.2l0.1-3.8c0.1-3.5,0-8-0.1-12.4c-0.2-6.4-0.4-13.7,0.3-16.5c1.5-5.9,26.5-72.4,48.6-131
	c19.2-50.9,37.2-98.9,42.8-114.7c15.9-45.4,64.8-199.6,72.1-224.2l0.9-2.9l-2.5-1.6c-26.9-17.1-102.5-76.2-132.6-106.4
	c-63.7-64.1-96.6-115.9-110.5-141.1c-19.1-34.6-34.1-71.1-45.7-111.6l-2-7.1l-4.8,5.6c-12.6,14.6-22.7,23.3-37,24.7
	c-2.6,0.2-5.5,0.4-8.6,0.4c-13.5,0-27.6-2.5-32.9-4.8l-3.8-1.7l-1.5,3.9c-0.4,1.1-42.8,111.6-84.4,176.2
	c-37.2,57.7-60.6,77.3-81.3,94.7c-2.7,2.3-5.3,4.5-8,6.7c-20.5,17.7-56.4,38.1-77.8,50.3c-2.3,1.3-4.4,2.5-6.3,3.6l-2.5,1.4l0.5,2.8
	c5.9,32.2,31.8,212.4,33,223.4l0.1,0.6l0.3,0.6c10.5,23.3,94.2,237,98.5,251.3c1.2,4.1,1,11.8,0.7,19.2c-0.1,3.4-0.2,6.9-0.2,10.3v4
	h344.6V946.2z M504.1,2014.2c7.6-0.2,15.4-0.4,22.9-0.4c5.9,0,12.6,0.2,19.8,0.3c7.9,0.2,16.1,0.4,24.2,0.4c5.2,0,9.8-0.1,13.9-0.3
	c129.2-5.5,272.6-49.7,303.9-61.2l2.6-1v-2.8c0-6.6-0.2-63.8-0.4-136.1c-0.4-124.6-0.9-295.3-0.9-329.3c0-9.2,0.2-17.6,0.3-25.8
	c0.7-39,1.2-67.1-17.3-111.8c-19.6-47.2-53.4-90.8-103.4-133.2c-28-23.8-62.6-43.1-86.6-55.2c-30.6-15.3-62.9-26-96-31.8l-2.2-0.4
	l-1.5,1.7c-11.2,13-49.3,14-60.8,14c-13.9,0-34.1-2.5-51.5-14.5l-1.4-0.9l-1.6,0.3c-58.8,11.3-114,37.6-142.6,58.6
	c-55.1,40.4-90.5,68-124.1,123.1c-39.1,64.3-38.7,118.3-38.3,175.5c0,5.7,0.1,11.5,0.1,17.3c0,31.5-0.1,122.5-0.1,218.8
	c-0.1,96.4-0.1,196-0.1,230.5v2.8l2.7,0.9c68,24.3,192.7,53.5,306,60.3c3.3,0.2,7.2,0.3,11.9,0.3
	C489.7,2014.6,496.7,2014.4,504.1,2014.2z M1729,1954.8v-4c0-34.5,0.1-136.9,0.3-235.9c0.1-98.9,0.2-192.4,0.2-223.9
	c0-6.6,0.1-13,0.1-19.2c0.5-55.5,0.9-99.4-37.7-162.9c-20.8-34.2-54.9-68.5-98.7-99.2c-45-31.5-96.8-56.8-149.9-73l-4.1-1.3
	l-0.9,4.2c-9.2,40.7-43.9,100.2-75.3,129.5c-32.8-28.4-59.8-74.1-76.1-129.3l-1.1-3.7l-3.8,1c-82.8,22.3-159.5,77-174,89.3
	c-38,32.2-71.3,63.4-94.6,119.5c-19.2,46.3-18.9,75.8-18.4,116.7c0.1,6.8,0.2,13.8,0.2,21.3c0,24.6,0.4,110,0.9,200.3
	c0.5,105.9,1.1,225.9,1.1,266.5v4L1729,1954.8L1729,1954.8z M1261.2,1085.2v-51.3H618.6v51.3H1261.2z"/>
<path id="color2" fill="#009847" d="M890.7,1732.6c0.1,27.7,0.2,55.1,0.3,80.5c0.2,72.3,0.4,129.5,0.4,136.1v2.8l-2.6,1
	c-31.3,11.5-174.7,55.7-303.9,61.2c-4.1,0.2-8.7,0.3-13.9,0.3c-8.1,0-16.3-0.2-24.2-0.4c-7.2-0.1-13.9-0.3-19.8-0.3
	c-7.5,0-15.3,0.2-22.9,0.4c-7.4,0.2-14.4,0.4-20.5,0.1c-4.7,0-8.6-0.1-11.9-0.3c-113.3-6.8-238-36-306-60.3l-2.7-0.9v-2.8
	c0-17.4,0-51.4,0-93.2c32.2,1.9,112.2,4,198.6-10.4c138.8-23.3,226.4-70.5,338.5-99.2C767.1,1730.1,845.6,1729.6,890.7,1732.6z
	 M1729.1,1856.6c-29.6,1.9-112.3,4.8-202.1-10.2c-138.8-23.3-226.4-70.5-338.5-99.2c-67.8-17.3-147.2-17.6-192.1-14.5
	c0.4,91.8,0.9,183.5,0.9,218v4H1729v-3.9C1729,1933.5,1729,1899.1,1729.1,1856.6z M1167.6,1428.5c30,3.4,54.2,16.4,67.5,23.1
	c32.8,16.4,107.9,42.9,179,13.3c-63.7-2.2-94.8-10.5-125.6-21.2c-36.2-12.6-88.2-39.5-111.5-40.3s-68.3,3.5-106,35.3
	C1088.2,1433.2,1132.4,1424.5,1167.6,1428.5z M733.3,666.9c21.3-12.2,41-29.7,46-57.6s-2.5-48.5-1.6-61.3s2.5-21,14.7-38.2
	s17.2-43.2,9.1-59.1c-8.4,28.2-21.9,32.2-37.5,49.7c-15.6,17.5-18.1,41.9-16.6,63.2c1.6,21.3,6.6,38.2,0.9,62.3
	C742.7,650,738,658.5,733.3,666.9z M1164.8,625.9c-5.6-24.1-0.6-41,0.9-62.3c1.6-21.3-0.9-45.7-16.6-63.2
	c-15.6-17.5-29.1-21.6-37.5-49.7c-8.1,16-3.1,41.9,9.1,59.1c12.2,17.2,13.8,25.3,14.7,38.2s-6.6,33.5-1.6,61.3
	c5,27.8,24.7,45.4,46,57.6C1175.2,658.5,1170.5,650,1164.8,625.9z"/>
<path id="color3" fill="#FFFF00" d="M890.9,1780.2c-65.7-8.1-156.5,3.8-213.6,21.1c-72,21.9-153,55-222.4,39.6c49.7,2.2,150.1-44.8,214.9-64.9
	c60-18.6,149.3-31.6,221-23.7C890.8,1761.7,890.9,1771,890.9,1780.2z M996.4,1752.5c0,9.3,0.1,18.6,0.1,27.8
	c65.8-8.3,157.3,3.5,214.6,20.9c72,21.9,153,55,222.4,39.6c-49.7,2.2-150.1-44.8-214.9-64.9
	C1158.4,1757.3,1068.4,1744.2,996.4,1752.5z"/>
<path id="color4" fill="#000000" d="M472,1798.2c-32.8,11.5-102,31.5-169.4,38.1c-42.7,4.2-99.4,5.1-139.6,0.9c0-9.7,0-19.8,0-30.1c38.7,4.6,101.9,6.9,152-0.1
	c84.4-11.8,122.9-31.3,182.7-48.3c45.2-12.9,103.5-30,163.2-18.2C638.3,1743.6,504.9,1786.6,472,1798.2z M1729.1,1806.7
	c-38.3,4.9-103.9,7.6-155.6,0.3c-84.4-11.8-122.9-31.3-182.7-48.3c-45.2-12.9-103.5-30-163.2-18.2c22.6,3.1,156.1,46.1,188.9,57.6
	c32.8,11.5,102,31.5,169.4,38.1c43.9,4.3,102.8,5.1,143.2,0.5C1729.1,1827.3,1729.1,1817.3,1729.1,1806.7z M1653.6,1446.2
	c-38.9-40.5-84.1-52.9-107.4-52.2s-61.3,13-105.3,22.4c-45.4,9.7-88.1,7.9-130.6,2.5c66.7,34.6,95.4,28.6,131.9,25.8
	c26.6-2.1,70-23.3,106.3-24.2C1581.2,1419.7,1620.1,1432,1653.6,1446.2z M366,625.9c-5.6-24.1-0.6-41,0.9-62.3
	c1.6-21.3-0.9-45.7-16.6-63.2c-15.6-17.5-29.1-21.6-37.5-49.7c-8.1,16-3.1,41.9,9.1,59.1s13.8,25.3,14.7,38.2
	c0.9,12.8-6.6,33.5-1.6,61.3c5,27.8,24.7,45.4,46,57.6C376.3,658.5,371.6,650,366,625.9z M1532.2,666.9c21.3-12.2,41-29.7,46-57.6
	c5-27.8-2.5-48.5-1.6-61.3s2.5-21,14.7-38.2c12.2-17.2,17.2-43.2,9.1-59.1c-8.4,28.2-21.9,32.2-37.5,49.7
	c-15.6,17.5-18.1,41.9-16.6,63.2c1.6,21.3,6.6,38.2,0.9,62.3C1541.5,650,1536.8,658.5,1532.2,666.9z"/>
</svg>
